<?xml version="1.0" encoding="UTF-8"?>
<svg id="sketch" xmlns="http://www.w3.org/2000/svg" xmlns:xlink="http://www.w3.org/1999/xlink" viewBox="0 0 32 32">
  <image width="938" height="1292" transform="translate(-190.32 -183.48) scale(.48)" xlink:href="DH_notebook_raster.png"/>
  <g>
    <g opacity=".35">
      <text transform="translate(7.13 13.45)" fill="none" font-family="Consolas, Consolas" font-size="12" stroke="#666" stroke-miterlimit="10" stroke-width=".75"><tspan x="0" y="0" letter-spacing=".02em">Тепер</tspan><tspan x="34.01" y="0" letter-spacing="0em">ь </tspan><tspan x="47.08" y="0" letter-spacing=".02em">понятно</tspan><tspan x="94.69" y="0" letter-spacing="0em">, </tspan><tspan x="107.77" y="0" letter-spacing=".02em">почем</tspan><tspan x="141.78" y="0" letter-spacing="0em">у </tspan><tspan x="154.85" y="0" letter-spacing=".02em">серве</tspan><tspan x="188.86" y="0" letter-spacing="0em">р </tspan><tspan x="0" y="16.2" letter-spacing=".02em">иногд</tspan><tspan x="34.01" y="16.2" letter-spacing="0em">а </tspan><tspan x="47.08" y="16.2" letter-spacing=".02em">зависает</tspan><tspan x="101.5" y="16.2" letter-spacing="0em">. </tspan><tspan x="114.57" y="16.2" letter-spacing=".02em">Добави</tspan><tspan x="155.38" y="16.2" letter-spacing="0em">л </tspan><tspan x="168.46" y="16.2" letter-spacing=".02em">лог</tspan><tspan x="188.86" y="16.2" letter-spacing="0em">и </tspan><tspan x="0" y="32.4" letter-spacing=".02em">п</tspan><tspan x="6.8" y="32.4" letter-spacing="0em">о </tspan><tspan x="19.88" y="32.4" letter-spacing=".02em">узки</tspan><tspan x="47.08" y="32.4" letter-spacing="0em">м </tspan><tspan x="60.16" y="32.4" letter-spacing=".02em">места</tspan><tspan x="94.17" y="32.4" letter-spacing="0em">м</tspan></text>
    </g>
    <text transform="translate(7.13 13.45)" fill="#fff" font-family="Consolas, Consolas" font-size="12"><tspan x="0" y="0" letter-spacing=".02em">Тепер</tspan><tspan x="34.01" y="0" letter-spacing="0em">ь </tspan><tspan x="47.08" y="0" letter-spacing=".02em">понятно</tspan><tspan x="94.69" y="0" letter-spacing="0em">, </tspan><tspan x="107.77" y="0" letter-spacing=".02em">почем</tspan><tspan x="141.78" y="0" letter-spacing="0em">у </tspan><tspan x="154.85" y="0" letter-spacing=".02em">серве</tspan><tspan x="188.86" y="0" letter-spacing="0em">р </tspan><tspan x="0" y="16.2" letter-spacing=".02em">иногд</tspan><tspan x="34.01" y="16.2" letter-spacing="0em">а </tspan><tspan x="47.08" y="16.2" letter-spacing=".02em">зависает</tspan><tspan x="101.5" y="16.2" letter-spacing="0em">. </tspan><tspan x="114.57" y="16.2" letter-spacing=".02em">Добави</tspan><tspan x="155.38" y="16.2" letter-spacing="0em">л </tspan><tspan x="168.46" y="16.2" letter-spacing=".02em">лог</tspan><tspan x="188.86" y="16.2" letter-spacing="0em">и </tspan><tspan x="0" y="32.4" letter-spacing=".02em">п</tspan><tspan x="6.8" y="32.4" letter-spacing="0em">о </tspan><tspan x="19.88" y="32.4" letter-spacing=".02em">узки</tspan><tspan x="47.08" y="32.4" letter-spacing="0em">м </tspan><tspan x="60.16" y="32.4" letter-spacing=".02em">места</tspan><tspan x="94.17" y="32.4" letter-spacing="0em">м</tspan></text>
  </g>
</svg>
