<?xml version="1.0" encoding="UTF-8"?>
<svg xmlns="http://www.w3.org/2000/svg" xmlns:xlink="http://www.w3.org/1999/xlink" viewBox="0 0 450 620">
  <defs>
    <clipPath id="clippath">
      <path d="M-620.6,605.84c-1.25,0-2.51-.12-3.74-.35-3.88-.74-7.41-2.62-10.22-5.43-2.13-2.13-3.76-4.75-4.73-7.58-.7-2.05-1.05-4.19-1.05-6.38V34.2c0-2.38.42-4.7,1.24-6.91.99-2.66,2.52-5.03,4.54-7.05,2.81-2.81,6.34-4.69,10.22-5.43,1.22-.23,2.48-.35,3.74-.35H-238.86c1.64,0,3.28.2,4.86.6,1.29.33,2.57.79,3.77,1.38,1.98.96,3.77,2.24,5.33,3.8,2.02,2.02,3.55,4.39,4.54,7.05.82,2.21,1.24,4.53,1.24,6.91v551.9c0,2.18-.35,4.33-1.05,6.38-.97,2.83-2.6,5.46-4.73,7.59-1.56,1.56-3.36,2.84-5.34,3.8-1.2.58-2.47,1.05-3.77,1.38-1.58.4-3.21.6-4.85.6h-381.73Z" fill="#333"/>
    </clipPath>
    <clipPath id="clippath-2">
      <rect x="596.76" width="450" height="620" fill="none"/>
    </clipPath>
    <image id="image" width="6000" height="4000" xlink:href="D:\source\{to sort}\bryn-young-F6VI5_Vnxo8-unsplash.jpg"/>
  </defs>
  <g isolation="isolate">
    <g id="sketch">
      <image width="938" height="1292" transform="translate(-.04 .03) scale(.48)" xlink:href="DH_notebook_raster.png"/>
      <g>
        <g mix-blend-mode="color">
          <text transform="translate(197.45 256.49)" fill="none" font-family="Consolas, Consolas" font-size="12" stroke="gray"><tspan x="0" y="0" letter-spacing=".03em">Написа</tspan><tspan x="41.46" y="0" letter-spacing="0em">л </tspan><tspan x="54.75" y="0" letter-spacing=".03em">тес</tspan><tspan x="75.48" y="0" letter-spacing="0em">т </tspan><tspan x="88.77" y="0" letter-spacing=".03em">дл</tspan><tspan x="102.59" y="0" letter-spacing="0em">я </tspan><tspan x="115.88" y="0" letter-spacing=".03em">критическог</tspan><tspan x="191.88" y="0" letter-spacing="0em">о </tspan><tspan x="0" y="16.2" letter-spacing=".03em">модуля</tspan><tspan x="41.46" y="16.2" letter-spacing="0em">. </tspan><tspan x="54.75" y="16.2" letter-spacing=".03em">Тепер</tspan><tspan x="89.3" y="16.2" letter-spacing="0em">ь </tspan><tspan x="102.59" y="16.2" letter-spacing=".03em">н</tspan><tspan x="109.5" y="16.2" letter-spacing="0em">е </tspan><tspan x="122.79" y="16.2" letter-spacing=".03em">страшн</tspan><tspan x="164.25" y="16.2" letter-spacing="0em">о </tspan><tspan x="0" y="32.4" letter-spacing=".03em">деплоит</tspan><tspan x="48.37" y="32.4" letter-spacing="0em">ь в </tspan><tspan x="74.95" y="32.4" letter-spacing=".03em">пятниц</tspan><tspan x="116.41" y="32.4" letter-spacing="0em">у</tspan></text>
          <text transform="translate(197.45 375.61)" fill="none" font-family="Consolas, Consolas" font-size="12" stroke="gray"><tspan x="0" y="0" letter-spacing="-.02em">Коллег</tspan><tspan x="38.43" y="0" letter-spacing="0em">а </tspan><tspan x="51.51" y="0" letter-spacing="-.02em">поблагодари</tspan><tspan x="121.97" y="0" letter-spacing="0em">л </tspan><tspan x="135.05" y="0" letter-spacing="-.02em">з</tspan><tspan x="141.45" y="0" letter-spacing="0em">а </tspan><tspan x="154.53" y="0" letter-spacing="-.02em">понятну</tspan><tspan x="199.37" y="0" letter-spacing="0em">ю </tspan><tspan x="0" y="16.2" letter-spacing="-.02em">схем</tspan><tspan x="25.62" y="16.2" letter-spacing="0em">у в </tspan><tspan x="51.77" y="16.2" letter-spacing="-.02em">READM</tspan><tspan x="83.8" y="16.2" letter-spacing="0em">E</tspan></text>
          <text transform="translate(197.24 316.05)" fill="none" font-family="Consolas, Consolas" font-size="12" stroke="gray"><tspan x="0" y="0" letter-spacing="-.02em">Переписал</tspan><tspan x="57.44" y="0" letter-spacing="0em">а </tspan><tspan x="70.73" y="0" letter-spacing="-.02em">стары</tspan><tspan x="102.64" y="0" letter-spacing="0em">й </tspan><tspan x="115.93" y="0" letter-spacing="-.02em">легаси-модуль</tspan><tspan x="198.89" y="0" letter-spacing="0em">. </tspan><tspan x="0" y="16.2" letter-spacing="-.02em">Тепер</tspan><tspan x="31.91" y="16.2" letter-spacing="0em">ь </tspan><tspan x="45.2" y="16.2" letter-spacing="-.02em">о</tspan><tspan x="51.58" y="16.2" letter-spacing="0em">н в 3 </tspan><tspan x="91.46" y="16.2" letter-spacing="-.02em">раз</tspan><tspan x="110.6" y="16.2" letter-spacing="0em">а </tspan><tspan x="123.89" y="16.2" letter-spacing="-.02em">короч</tspan><tspan x="155.8" y="16.2" letter-spacing="0em">е </tspan><tspan x="0" y="32.4" letter-spacing="0em">и </tspan><tspan x="13.29" y="32.4" letter-spacing="-.02em">понятне</tspan><tspan x="57.96" y="32.4" letter-spacing="0em">е</tspan></text>
          <text transform="translate(197.45 137.37)" fill="none" font-family="Consolas, Consolas" font-size="12" stroke="gray"><tspan x="0" y="0" letter-spacing=".03em">Разобралась</tspan><tspan x="76.01" y="0" letter-spacing="0em">, </tspan><tspan x="89.3" y="0" letter-spacing=".03em">почем</tspan><tspan x="123.84" y="0" letter-spacing="0em">у </tspan><tspan x="137.14" y="0" letter-spacing=".03em">падае</tspan><tspan x="171.68" y="0" letter-spacing="0em">т </tspan><tspan x="0" y="16.2" letter-spacing=".03em">сборка</tspan><tspan x="41.46" y="16.2" letter-spacing="0em">. </tspan><tspan x="54.75" y="16.2" letter-spacing=".03em">Нашл</tspan><tspan x="82.39" y="16.2" letter-spacing="0em">а </tspan><tspan x="95.68" y="16.2" letter-spacing=".03em">опечатк</tspan><tspan x="144.05" y="16.2" letter-spacing="0em">у </tspan><tspan x="0" y="32.4" letter-spacing="0em">в </tspan><tspan x="13.29" y="32.4" letter-spacing=".03em">конфиге</tspan><tspan x="61.66" y="32.4" letter-spacing="0em">. </tspan><tspan x="74.95" y="32.4" letter-spacing=".03em">Вс</tspan><tspan x="88.77" y="32.4" letter-spacing="0em">ё </tspan><tspan x="102.06" y="32.4" letter-spacing=".03em">заработал</tspan><tspan x="164.25" y="32.4" letter-spacing="0em">о</tspan></text>
          <text transform="translate(197.45 196.93)" fill="none" font-family="Consolas, Consolas" font-size="12" stroke="gray"><tspan x="0" y="0" letter-spacing=".02em">Тепер</tspan><tspan x="34.01" y="0" letter-spacing="0em">ь </tspan><tspan x="47.08" y="0" letter-spacing=".02em">понятно</tspan><tspan x="94.69" y="0" letter-spacing="0em">, </tspan><tspan x="107.77" y="0" letter-spacing=".02em">почем</tspan><tspan x="141.78" y="0" letter-spacing="0em">у </tspan><tspan x="154.85" y="0" letter-spacing=".02em">серве</tspan><tspan x="188.86" y="0" letter-spacing="0em">р </tspan><tspan x="0" y="16.2" letter-spacing=".02em">иногд</tspan><tspan x="34.01" y="16.2" letter-spacing="0em">а </tspan><tspan x="47.08" y="16.2" letter-spacing=".02em">зависает</tspan><tspan x="101.5" y="16.2" letter-spacing="0em">. </tspan><tspan x="114.57" y="16.2" letter-spacing=".02em">Добави</tspan><tspan x="155.38" y="16.2" letter-spacing="0em">л </tspan><tspan x="168.46" y="16.2" letter-spacing=".02em">лог</tspan><tspan x="188.86" y="16.2" letter-spacing="0em">и </tspan><tspan x="0" y="32.4" letter-spacing=".02em">п</tspan><tspan x="6.8" y="32.4" letter-spacing="0em">о </tspan><tspan x="19.88" y="32.4" letter-spacing=".02em">узки</tspan><tspan x="47.08" y="32.4" letter-spacing="0em">м </tspan><tspan x="60.16" y="32.4" letter-spacing=".02em">места</tspan><tspan x="94.17" y="32.4" letter-spacing="0em">м</tspan></text>
          <text transform="translate(197.45 77.81)" fill="none" font-family="Consolas, Consolas" font-size="12" stroke="gray"><tspan x="0" y="0" letter-spacing=".03em">Запрос</tspan><tspan x="41.46" y="0" letter-spacing="0em">, </tspan><tspan x="54.75" y="0" letter-spacing=".03em">которы</tspan><tspan x="96.21" y="0" letter-spacing="0em">й </tspan><tspan x="109.5" y="0" letter-spacing=".03em">раньш</tspan><tspan x="144.05" y="0" letter-spacing="0em">е </tspan><tspan x="0" y="16.2" letter-spacing=".03em">выполнялс</tspan><tspan x="62.19" y="16.2" letter-spacing="0em">я </tspan><tspan x="75.48" y="16.2" letter-spacing=".03em">1</tspan><tspan x="82.39" y="16.2" letter-spacing="0em">0 </tspan><tspan x="95.68" y="16.2" letter-spacing=".03em">секунд</tspan><tspan x="137.14" y="16.2" letter-spacing="0em">, </tspan><tspan x="150.43" y="16.2" letter-spacing=".03em">тепер</tspan><tspan x="184.97" y="16.2" letter-spacing="0em">ь </tspan><tspan x="0" y="32.4" letter-spacing=".03em">летае</tspan><tspan x="34.55" y="32.4" letter-spacing="0em">т </tspan><tspan x="47.84" y="32.4" letter-spacing=".03em">з</tspan><tspan x="54.75" y="32.4" letter-spacing="0em">а </tspan><tspan x="68.04" y="32.4" letter-spacing=".03em">0.</tspan><tspan x="81.86" y="32.4" letter-spacing="0em">3 </tspan><tspan x="95.15" y="32.4" letter-spacing=".03em">се</tspan><tspan x="108.97" y="32.4" letter-spacing="0em">к</tspan></text>
        </g>
        <g>
          <text transform="translate(197.45 256.49)" fill="#fff" font-family="Consolas, Consolas" font-size="12"><tspan x="0" y="0" letter-spacing=".03em">Написа</tspan><tspan x="41.46" y="0" letter-spacing="0em">л </tspan><tspan x="54.75" y="0" letter-spacing=".03em">тес</tspan><tspan x="75.48" y="0" letter-spacing="0em">т </tspan><tspan x="88.77" y="0" letter-spacing=".03em">дл</tspan><tspan x="102.59" y="0" letter-spacing="0em">я </tspan><tspan x="115.88" y="0" letter-spacing=".03em">критическог</tspan><tspan x="191.88" y="0" letter-spacing="0em">о </tspan><tspan x="0" y="16.2" letter-spacing=".03em">модуля</tspan><tspan x="41.46" y="16.2" letter-spacing="0em">. </tspan><tspan x="54.75" y="16.2" letter-spacing=".03em">Тепер</tspan><tspan x="89.3" y="16.2" letter-spacing="0em">ь </tspan><tspan x="102.59" y="16.2" letter-spacing=".03em">н</tspan><tspan x="109.5" y="16.2" letter-spacing="0em">е </tspan><tspan x="122.79" y="16.2" letter-spacing=".03em">страшн</tspan><tspan x="164.25" y="16.2" letter-spacing="0em">о </tspan><tspan x="0" y="32.4" letter-spacing=".03em">деплоит</tspan><tspan x="48.37" y="32.4" letter-spacing="0em">ь в </tspan><tspan x="74.95" y="32.4" letter-spacing=".03em">пятниц</tspan><tspan x="116.41" y="32.4" letter-spacing="0em">у</tspan></text>
          <text transform="translate(197.45 375.61)" fill="#fff" font-family="Consolas, Consolas" font-size="12"><tspan x="0" y="0" letter-spacing="-.02em">Коллег</tspan><tspan x="38.43" y="0" letter-spacing="0em">а </tspan><tspan x="51.51" y="0" letter-spacing="-.02em">поблагодари</tspan><tspan x="121.97" y="0" letter-spacing="0em">л </tspan><tspan x="135.05" y="0" letter-spacing="-.02em">з</tspan><tspan x="141.45" y="0" letter-spacing="0em">а </tspan><tspan x="154.53" y="0" letter-spacing="-.02em">понятну</tspan><tspan x="199.37" y="0" letter-spacing="0em">ю </tspan><tspan x="0" y="16.2" letter-spacing="-.02em">схем</tspan><tspan x="25.62" y="16.2" letter-spacing="0em">у в </tspan><tspan x="51.77" y="16.2" letter-spacing="-.02em">READM</tspan><tspan x="83.8" y="16.2" letter-spacing="0em">E</tspan></text>
          <text transform="translate(197.24 316.05)" fill="#fff" font-family="Consolas, Consolas" font-size="12"><tspan x="0" y="0" letter-spacing="-.02em">Переписал</tspan><tspan x="57.44" y="0" letter-spacing="0em">а </tspan><tspan x="70.73" y="0" letter-spacing="-.02em">стары</tspan><tspan x="102.64" y="0" letter-spacing="0em">й </tspan><tspan x="115.93" y="0" letter-spacing="-.02em">легаси-модуль</tspan><tspan x="198.89" y="0" letter-spacing="0em">. </tspan><tspan x="0" y="16.2" letter-spacing="-.02em">Тепер</tspan><tspan x="31.91" y="16.2" letter-spacing="0em">ь </tspan><tspan x="45.2" y="16.2" letter-spacing="-.02em">о</tspan><tspan x="51.58" y="16.2" letter-spacing="0em">н в 3 </tspan><tspan x="91.46" y="16.2" letter-spacing="-.02em">раз</tspan><tspan x="110.6" y="16.2" letter-spacing="0em">а </tspan><tspan x="123.89" y="16.2" letter-spacing="-.02em">короч</tspan><tspan x="155.8" y="16.2" letter-spacing="0em">е </tspan><tspan x="0" y="32.4" letter-spacing="0em">и </tspan><tspan x="13.29" y="32.4" letter-spacing="-.02em">понятне</tspan><tspan x="57.96" y="32.4" letter-spacing="0em">е</tspan></text>
          <text transform="translate(197.45 137.37)" fill="#fff" font-family="Consolas, Consolas" font-size="12"><tspan x="0" y="0" letter-spacing=".03em">Разобралась</tspan><tspan x="76.01" y="0" letter-spacing="0em">, </tspan><tspan x="89.3" y="0" letter-spacing=".03em">почем</tspan><tspan x="123.84" y="0" letter-spacing="0em">у </tspan><tspan x="137.14" y="0" letter-spacing=".03em">падае</tspan><tspan x="171.68" y="0" letter-spacing="0em">т </tspan><tspan x="0" y="16.2" letter-spacing=".03em">сборка</tspan><tspan x="41.46" y="16.2" letter-spacing="0em">. </tspan><tspan x="54.75" y="16.2" letter-spacing=".03em">Нашл</tspan><tspan x="82.39" y="16.2" letter-spacing="0em">а </tspan><tspan x="95.68" y="16.2" letter-spacing=".03em">опечатк</tspan><tspan x="144.05" y="16.2" letter-spacing="0em">у </tspan><tspan x="0" y="32.4" letter-spacing="0em">в </tspan><tspan x="13.29" y="32.4" letter-spacing=".03em">конфиге</tspan><tspan x="61.66" y="32.4" letter-spacing="0em">. </tspan><tspan x="74.95" y="32.4" letter-spacing=".03em">Вс</tspan><tspan x="88.77" y="32.4" letter-spacing="0em">ё </tspan><tspan x="102.06" y="32.4" letter-spacing=".03em">заработал</tspan><tspan x="164.25" y="32.4" letter-spacing="0em">о</tspan></text>
          <text transform="translate(197.45 196.93)" fill="#fff" font-family="Consolas, Consolas" font-size="12"><tspan x="0" y="0" letter-spacing=".02em">Тепер</tspan><tspan x="34.01" y="0" letter-spacing="0em">ь </tspan><tspan x="47.08" y="0" letter-spacing=".02em">понятно</tspan><tspan x="94.69" y="0" letter-spacing="0em">, </tspan><tspan x="107.77" y="0" letter-spacing=".02em">почем</tspan><tspan x="141.78" y="0" letter-spacing="0em">у </tspan><tspan x="154.85" y="0" letter-spacing=".02em">серве</tspan><tspan x="188.86" y="0" letter-spacing="0em">р </tspan><tspan x="0" y="16.2" letter-spacing=".02em">иногд</tspan><tspan x="34.01" y="16.2" letter-spacing="0em">а </tspan><tspan x="47.08" y="16.2" letter-spacing=".02em">зависает</tspan><tspan x="101.5" y="16.2" letter-spacing="0em">. </tspan><tspan x="114.57" y="16.2" letter-spacing=".02em">Добави</tspan><tspan x="155.38" y="16.2" letter-spacing="0em">л </tspan><tspan x="168.46" y="16.2" letter-spacing=".02em">лог</tspan><tspan x="188.86" y="16.2" letter-spacing="0em">и </tspan><tspan x="0" y="32.4" letter-spacing=".02em">п</tspan><tspan x="6.8" y="32.4" letter-spacing="0em">о </tspan><tspan x="19.88" y="32.4" letter-spacing=".02em">узки</tspan><tspan x="47.08" y="32.4" letter-spacing="0em">м </tspan><tspan x="60.16" y="32.4" letter-spacing=".02em">места</tspan><tspan x="94.17" y="32.4" letter-spacing="0em">м</tspan></text>
          <text transform="translate(197.45 77.81)" fill="#fff" font-family="Consolas, Consolas" font-size="12"><tspan x="0" y="0" letter-spacing=".03em">Запрос</tspan><tspan x="41.46" y="0" letter-spacing="0em">, </tspan><tspan x="54.75" y="0" letter-spacing=".03em">которы</tspan><tspan x="96.21" y="0" letter-spacing="0em">й </tspan><tspan x="109.5" y="0" letter-spacing=".03em">раньш</tspan><tspan x="144.05" y="0" letter-spacing="0em">е </tspan><tspan x="0" y="16.2" letter-spacing=".03em">выполнялс</tspan><tspan x="62.19" y="16.2" letter-spacing="0em">я </tspan><tspan x="75.48" y="16.2" letter-spacing=".03em">1</tspan><tspan x="82.39" y="16.2" letter-spacing="0em">0 </tspan><tspan x="95.68" y="16.2" letter-spacing=".03em">секунд</tspan><tspan x="137.14" y="16.2" letter-spacing="0em">, </tspan><tspan x="150.43" y="16.2" letter-spacing=".03em">тепер</tspan><tspan x="184.97" y="16.2" letter-spacing="0em">ь </tspan><tspan x="0" y="32.4" letter-spacing=".03em">летае</tspan><tspan x="34.55" y="32.4" letter-spacing="0em">т </tspan><tspan x="47.84" y="32.4" letter-spacing=".03em">з</tspan><tspan x="54.75" y="32.4" letter-spacing="0em">а </tspan><tspan x="68.04" y="32.4" letter-spacing=".03em">0.</tspan><tspan x="81.86" y="32.4" letter-spacing="0em">3 </tspan><tspan x="95.15" y="32.4" letter-spacing=".03em">се</tspan><tspan x="108.97" y="32.4" letter-spacing="0em">к</tspan></text>
        </g>
      </g>
      <path d="M408.9,515.62v-21.18l-71.78-71.78-141.87-.24-32.96-32.85v-65.39c-17.19-17.92-41.38-29.08-68.18-29.08-23.56,0-45.1,8.62-61.65,22.89-17.64,15.21-29.81,36.83-32.47,61.24v240.78h450v-65.17s-41.1-39.21-41.1-39.21Z" fill="#2e2e2e"/>
      <g>
        <path d="M383.97,551.42l-7.28-7.28c-.08-.08-.19-.12-.3-.12h-1.08s-8.1,0-8.1,0h-5.37c-.75,0-1.13.91-.6,1.44l5.84,5.84c.08.08.19.12.3.12h7.92s0,18.48,0,18.48h-7.92c-.11,0-.22.04-.3.12l-5.84,5.84c-.53.53-.15,1.44.6,1.44h5.37s8.1,0,8.1,0h1.08c.11,0,.22-.04.3-.12l7.28-7.28v-18.48s0,0,0,0Z" fill="#fff"/>
        <path d="M361,553.46v14.81c0,.75.91,1.13,1.44.6l7.7-7.7c.16-.16.16-.43,0-.6l-7.7-7.7c-.53-.53-1.44-.15-1.44.6Z" fill="#7d009c"/>
        <path d="M407.22,544.44v32.44c0,.23-.19.42-.42.42h-7.81c-.23,0-.42-.19-.42-.42v-12.98h-5.95v12.98c0,.23-.19.42-.42.42h-7.81c-.23,0-.42-.19-.42-.42v-32.44c0-.23.19-.42.42-.42h7.81c.23,0,.42.19.42.42v12.05h5.95v-12.05c0-.23.19-.42.42-.42h7.81c.23,0,.42.19.42.42Z" fill="#7d009c"/>
      </g>
      <path d="M.21.13v379.09c2.66-24.41,14.61-46.03,32.26-61.24,16.54-14.26,38.09-22.89,61.65-22.89,26.79,0,50.98,11.16,68.18,29.08V.13H.21Z" fill="#fff"/>
      <g>
        <text transform="translate(148.95 482.89)" fill="#e68600" font-family="Consolas, Consolas" font-size="12"><tspan x="0" y="0">class Future {</tspan><tspan x="0" y="15.6">constructor(ideas) {</tspan><tspan x="0" y="31.2">this.implement();</tspan><tspan x="0" y="46.8">}</tspan><tspan x="0" y="62.4">}</tspan></text>
        <text transform="translate(148.95 482.89)" fill="none" font-family="Consolas, Consolas" font-size="12" stroke="#291800" stroke-miterlimit="10"><tspan x="0" y="0">class Future {</tspan><tspan x="0" y="15.6">constructor(ideas) {</tspan><tspan x="0" y="31.2">this.implement();</tspan><tspan x="0" y="46.8">}</tspan><tspan x="0" y="62.4">}</tspan></text>
        <text transform="translate(148.95 482.89)" fill="#e68600" font-family="Consolas, Consolas" font-size="12"><tspan x="0" y="0">class Future {</tspan><tspan x="0" y="15.6">constructor(ideas) {</tspan><tspan x="0" y="31.2">this.implement();</tspan><tspan x="0" y="46.8">}</tspan><tspan x="0" y="62.4">}</tspan></text>
      </g>
      <text transform="translate(82.78 279.28) rotate(-90)" fill="#e68600" font-family="Roboto-Regular, Roboto" font-size="12"><tspan x="0" y="0">Clean code. Clear logic.</tspan></text>
      <text transform="translate(48.97 279.28) rotate(-90)" fill="#e68600" font-family="Roboto-Regular, Roboto" font-size="12"><tspan x="0" y="0">Пишу б</tspan><tspan x="40.47" y="0" letter-spacing="-.03em">у</tspan><tspan x="45.82" y="0">ду</tspan><tspan x="58.74" y="0" letter-spacing="0em">щ</tspan><tspan x="68.74" y="0">ее. Строка за стро</tspan><tspan x="171.93" y="0" letter-spacing="-.01em">к</tspan><tspan x="178.28" y="0">ой.</tspan></text>
      <text transform="translate(115.49 279.28) rotate(-90)" fill="#e68600" font-family="Roboto-Regular, Roboto" font-size="12"><tspan x="0" y="0">Refac</tspan><tspan x="30.72" y="0" letter-spacing="0em">t</tspan><tspan x="34.52" y="0">oring thoughts...</tspan></text>
      <text transform="translate(148.94 279.28) rotate(-90)" fill="#e68600" font-family="Roboto-Regular, Roboto" font-size="12"><tspan x="0" y="0">Debugging </tspan><tspan x="60.28" y="0" letter-spacing="0em">r</tspan><tspan x="64.22" y="0">ealit</tspan><tspan x="86.85" y="0" letter-spacing="-.05em">y</tspan><tspan x="91.9" y="0">...</tspan></text>
      <g mix-blend-mode="multiply">
        <line x1="362.91" y1="483.61" x2="312.86" y2="483.61" fill="none" stroke="#000" stroke-width="5"/>
        <g mix-blend-mode="multiply" opacity=".65">
          <g>
            <polyline points="394.44 515.15 331.07 451.78 261.39 451.78" fill="none" stroke="#000" stroke-miterlimit="10" stroke-width="5"/>
            <path d="M261.39,446.14c-3.11,0-5.64,2.53-5.64,5.64s2.53,5.64,5.64,5.64,5.64-2.53,5.64-5.64-2.53-5.64-5.64-5.64Z"/>
          </g>
          <g>
            <polyline points="429.39 534.28 429.39 478.87 390.1 439.59" fill="none" stroke="#000" stroke-miterlimit="10" stroke-width="5"/>
            <path d="M394.09,435.6c-2.2-2.2-5.77-2.2-7.98,0s-2.2,5.77,0,7.98c2.2,2.2,5.77,2.2,7.98,0s2.2-5.77,0-7.98Z"/>
          </g>
          <g>
            <path d="M408.9,515.62v-21.18l-71.78-71.78-141.87-.24-32.96-32.85c0-37.65-30.52-68.18-68.18-68.18s-68.18,30.52-68.18,68.18" fill="none" stroke="#000" stroke-miterlimit="10" stroke-width="5"/>
            <circle cx="25.94" cy="389.56" r="5.64"/>
          </g>
          <g>
            <path d="M162.29,389.56h-25.66c0-23.48-19.03-42.51-42.51-42.51s-42.51,19.03-42.51,42.51" fill="none" stroke="#000" stroke-miterlimit="10" stroke-width="5"/>
            <circle cx="51.6" cy="389.56" r="5.64"/>
          </g>
          <g>
            <line x1="362.91" y1="483.61" x2="312.86" y2="483.61" fill="none" stroke="#000" stroke-miterlimit="10" stroke-width="5"/>
            <path d="M312.86,477.97c-3.11,0-5.64,2.53-5.64,5.64s2.53,5.64,5.64,5.64,5.64-2.53,5.64-5.64-2.53-5.64-5.64-5.64Z"/>
          </g>
        </g>
      </g>
      <polyline points="456.28 561.11 410.78 515.62 355.95 515.62 294.57 577 95.85 577 79.78 560.93 79.78 516.95" fill="none" stroke="#000" stroke-width="5"/>
      <g>
        <g>
          <path d="M162.29,391.24v-67.07c-17.19-17.92-41.38-29.08-68.18-29.08-23.56,0-45.1,8.62-61.65,22.89C12.37,335.3-.35,360.94-.35,389.56" fill="none" stroke="#000" stroke-miterlimit="10" stroke-width="5"/>
          <circle cx="-.35" cy="389.56" r="5.64"/>
        </g>
        <g>
          <line x1="95.38" y1="295.09" x2="95.38" y2="113.23" fill="none" stroke="#000" stroke-miterlimit="10" stroke-width="5"/>
          <circle cx="95.38" cy="113.23" r="5.64"/>
        </g>
        <g>
          <line x1="128.84" y1="301.86" x2="128.84" y2="168.57" fill="none" stroke="#000" stroke-miterlimit="10" stroke-width="5"/>
          <circle cx="128.84" cy="168.57" r="5.64"/>
        </g>
        <g>
          <line x1="61.93" y1="301.23" x2="61.93" y2="64.73" fill="none" stroke="#000" stroke-miterlimit="10" stroke-width="5"/>
          <path d="M67.57,64.73c0-3.11-2.53-5.64-5.64-5.64s-5.64,2.53-5.64,5.64,2.53,5.64,5.64,5.64,5.64-2.53,5.64-5.64Z"/>
        </g>
        <g>
          <line x1="162.29" y1="324.17" x2="162.29" y2="23.67" fill="none" stroke="#000" stroke-miterlimit="10" stroke-width="5"/>
          <circle cx="162.29" cy="23.67" r="5.64"/>
        </g>
        <g>
          <polyline points="162.29 151.41 138.93 128.05 138.93 75.34" fill="none" stroke="#000" stroke-miterlimit="10" stroke-width="5"/>
          <path d="M144.57,75.34c0-3.11-2.53-5.64-5.64-5.64s-5.64,2.53-5.64,5.64,2.53,5.64,5.64,5.64,5.64-2.53,5.64-5.64Z"/>
        </g>
      </g>
      <rect x="77.84" y="470.08" width="36.03" height="36.03"/>
      <rect x="81.69" y="473.93" width="28.33" height="28.33" fill="#7d009c"/>
      <path d="M101.95,448.02h-12.18c-.62,0-.93.75-.49,1.18l6.34,6.34c.14.14.35.14.49,0l6.34-6.34c.44-.44.13-1.18-.49-1.18Z" fill="#7d009c"/>
      <path d="M118.03,448.02h-12.18c-.62,0-.93.75-.49,1.18l6.34,6.34c.14.14.35.14.49,0l6.34-6.34c.44-.44.13-1.18-.49-1.18Z" fill="#7d009c"/>
      <path d="M85.86,448.02h-12.18c-.62,0-.93.75-.49,1.18l6.34,6.34c.14.14.35.14.49,0l6.34-6.34c.44-.44.13-1.18-.49-1.18Z" fill="#7d009c"/>
      <path d="M52.69,479.36v17.45c0,.88,1.07,1.33,1.69.7l9.08-9.08c.19-.19.19-.51,0-.7l-9.08-9.08c-.63-.63-1.69-.18-1.69.7Z"/>
      <path d="M126.64,457.31h-61.56v61.56h7.94c-.06.23-.03.48.17.68l6.34,6.34c.14.14.35.14.49,0l6.34-6.34c.2-.2.24-.45.17-.68h2.59c-.06.23-.02.48.17.68l4.65,4.65v47.39l2.94,2.87h.91v-50.26l4.65-4.65c.2-.2.24-.45.17-.68h2.59c-.06.23-.03.48.17.68l4.65,4.65v50.3h3.85v-50.3l4.65-4.65c.2-.2.23-.45.17-.68h7.94v-61.56ZM122.78,515.02h-53.86v-53.86h53.86v53.86Z" fill="#7d009c"/>
      <circle cx="94.11" cy="389.56" r="21.26" fill="none" stroke="#000" stroke-width="4.55"/>
      <rect x="14.39" y="14.31" width="421.22" height="591.38" fill="none" stroke="#194cb3" stroke-miterlimit="10"/>
      <g id="NOTEBOOK" mix-blend-mode="multiply">
        <path d="M-620.6,605.84c-1.25,0-2.51-.12-3.74-.35-3.88-.74-7.41-2.62-10.22-5.43-2.13-2.13-3.76-4.75-4.73-7.58-.7-2.05-1.05-4.19-1.05-6.38V34.2c0-2.38.42-4.7,1.24-6.91.99-2.66,2.52-5.03,4.54-7.05,2.81-2.81,6.34-4.69,10.22-5.43,1.22-.23,2.48-.35,3.74-.35H-238.86c1.64,0,3.28.2,4.86.6,1.29.33,2.57.79,3.77,1.38,1.98.96,3.77,2.24,5.33,3.8,2.02,2.02,3.55,4.39,4.54,7.05.82,2.21,1.24,4.53,1.24,6.91v551.9c0,2.18-.35,4.33-1.05,6.38-.97,2.83-2.6,5.46-4.73,7.59-1.56,1.56-3.36,2.84-5.34,3.8-1.2.58-2.47,1.05-3.77,1.38-1.58.4-3.21.6-4.85.6h-381.73Z" fill="#333"/>
        <g clip-path="url(#clippath)">
          <path d="M-219.12,541.41V34.2c0-2.38-.42-4.7-1.24-6.91-.99-2.66-2.52-5.03-4.54-7.05-1.56-1.56-3.36-2.84-5.33-3.8-1.21-.59-2.48-1.05-3.77-1.38-1.58-.4-3.21-.6-4.86-.6h-253.58v375.25l32.96,32.85,141.87.24,71.78,71.78v21.18l26.71,25.65Z" fill="#2b2b2b"/>
        </g>
      </g>
      <g clip-path="url(#clippath-2)">
        <use transform="translate(292.27 -7.12) scale(.14)" xlink:href="#image"/>
        <use transform="translate(292.27 1136.28) scale(.14 -.14)" xlink:href="#image"/>
      </g>
    </g>
  </g>
</svg>
