<?xml version="1.0" encoding="UTF-8"?>
<svg id="sketch" xmlns="http://www.w3.org/2000/svg" viewBox="0 0 128 128">
  <rect x="46.28" y="91.14" width="3.85" height="39.69"/>
  <rect x="46.28" y="42.67" width="36.03" height="36.03"/>
  <rect x="50.13" y="46.52" width="28.33" height="28.33" fill="#7d009c"/>
  <path d="M70.38,20.61h-12.18c-.62,0-.93.75-.49,1.18l6.34,6.34c.14.14.35.14.49,0l6.34-6.34c.44-.44.13-1.18-.49-1.18Z" fill="#7d009c"/>
  <path d="M86.47,20.61h-12.18c-.62,0-.93.75-.49,1.18l6.34,6.34c.14.14.35.14.49,0l6.34-6.34c.44-.44.13-1.18-.49-1.18Z" fill="#7d009c"/>
  <path d="M54.3,20.61h-12.18c-.62,0-.93.75-.49,1.18l6.34,6.34c.14.14.35.14.49,0l6.34-6.34c.44-.44.13-1.18-.49-1.18Z" fill="#7d009c"/>
  <path d="M21.13,51.95v17.45c0,.88,1.07,1.33,1.69.7l9.08-9.08c.19-.19.19-.51,0-.7l-9.08-9.08c-.63-.63-1.69-.18-1.69.7Z"/>
  <path d="M95.08,29.9h-61.56v61.56h7.94c-.06.23-.03.48.17.68l6.34,6.34c.14.14.35.14.49,0l6.34-6.34c.2-.2.24-.45.17-.68h2.59c-.06.23-.02.48.17.68l4.65,4.65v34.04h3.85v-34.04l4.65-4.65c.2-.2.24-.45.17-.68h2.59c-.06.23-.03.48.17.68l4.65,4.65v34.04h3.85v-34.04l4.65-4.65c.2-.2.23-.45.17-.68h7.94V29.9ZM91.22,87.61h-53.86v-53.86h53.86v53.86Z" fill="#7d009c"/>
</svg>
