<?xml version="1.0" encoding="UTF-8"?>
<svg id="logo" xmlns="http://www.w3.org/2000/svg" viewBox="0 0 480 320">
  <rect x="8.5" y="224.11" width="113.39" height="87.38" fill="none" stroke="#194cb3" stroke-miterlimit="10"/>
  <rect x="188.49" y="233.23" width="186.85" height="78.27" fill="none" stroke="#194cb3" stroke-miterlimit="10"/>
  <rect x="52.01" y="8.6" width="198.43" height="85.04" fill="none" stroke="#194cb3" stroke-miterlimit="10"/>
  <path d="M419.53,35V9.19h-23.76l-7.87,12.83c-.91-2.05-2.01-3.87-3.3-5.46-2.25-2.79-5.02-4.88-8.23-6.22-2.93-1.22-6.12-1.84-9.49-1.84-3.83,0-7.38.75-10.55,2.24-2.2,1.03-4.17,2.39-5.9,4.05v-5.6h-23.76l-19.68,32.1v17.43h19v8.31h24.44v-5.03c1.79,1.66,3.82,2.97,6.05,3.91,2.93,1.22,6.12,1.84,9.49,1.84,3.86,0,7.42-.76,10.58-2.26,3.23-1.54,6-3.78,8.23-6.66.03-.04.05-.08.08-.12h10.22v8.31h24.44v-8.31h6.19v-23.72h-6.19Z" fill="none" stroke="#194cb3" stroke-miterlimit="10"/>
  <path d="M276.2,134.15c-2.74-2.41-6.45-3.63-11.01-3.63-.38,0-1.11.03-1.11.03H104.52c-6.13,0-11.09,4.97-11.09,11.09v24.7c0,1.63.34,3.13.99,4.48.74,1.52,1.81,2.72,3.2,3.58,1.36.83,2.9,1.26,4.56,1.26h122.16c.73.89,1.69,1.6,2.87,2.1,1.07.45,2.19.67,3.32.67,1.38,0,2.66-.27,3.79-.8,1-.47,1.87-1.14,2.55-1.97h17.32c1.27,0,2.47-.26,3.58-.77.51-.24.98-.54,1.41-.86,1.5,1.23,3.39,1.89,5.51,1.89,2.36,0,4.43-.8,5.99-2.31,1.61-1.55,2.47-3.59,2.47-5.9,0-1.43-.33-2.76-.96-3.94v-3.26l.09-1.37c.05-.37.2-.82.75-1.35l2.01-1.91c1.93-1.87,3.28-3.61,4.14-5.31.93-1.86,1.41-3.86,1.41-5.95,0-5.47-2.39-8.71-4.39-10.47Z" fill="none" stroke="#194cb3" stroke-miterlimit="10"/>
</svg>
