<?xml version="1.0" encoding="UTF-8"?>
<svg id="logo" xmlns="http://www.w3.org/2000/svg" width="210" height="152.9" version="1.1" viewBox="0 0 210 152.9">
  <!-- Generator: Adobe Illustrator 29.1.0, SVG Export Plug-In . SVG Version: 2.1.0 Build 142)  -->
  <rect x="0" width="210" height="152.9" fill="#fff"/>
  <g>
    <path d="M25.4,32.3c.5-.6,1.1-.9,1.9-.9,1.4,0,2.1.8,2.1,2.4v4.4h-1.1v-4.4c0-.5-.1-.8-.3-1.1-.2-.2-.5-.3-1-.3s-.7,0-1,.3c-.3.2-.5.5-.6.8v4.7h-1.1v-9.4h1.1v3.6Z"/>
    <path d="M36.6,34.8c0,1-.2,1.8-.7,2.4-.5.6-1.1.9-1.9.9s-1.4-.3-1.9-.8v3.2h-1.1v-9.1h1v.7c.5-.6,1.2-.9,2-.9s1.4.3,1.9.9c.5.6.7,1.4.7,2.5h0ZM35.5,34.7c0-.7-.2-1.3-.5-1.8s-.8-.6-1.3-.6-1.2.3-1.5.9v3.1c.3.6.9.9,1.5.9s1-.2,1.3-.6c.3-.4.5-1.1.5-1.9Z"/>
  </g>
  <g>
    <path d="M21.3,73.6v.7c.5-.6,1.2-.9,2-.9s1.5.4,1.9,1.1c.2-.3.5-.6.9-.8.4-.2.8-.3,1.2-.3,1.4,0,2.2.8,2.2,2.3v4.4h-1.1v-4.3c0-.5-.1-.8-.3-1.1-.2-.2-.6-.4-1.1-.4s-.8.1-1,.4c-.3.2-.4.6-.5,1v4.4h-1.1v-4.3c0-1-.5-1.4-1.4-1.4s-1.2.3-1.5.9v4.8h-1.1v-6.6h1.1Z"/>
    <path d="M36.6,76.9c0,1-.2,1.8-.7,2.4-.5.6-1.1.9-1.9.9s-1.4-.3-1.9-.8v3.2h-1.1v-9.1h1v.7c.5-.6,1.2-.9,2-.9s1.4.3,1.9.9c.5.6.7,1.4.7,2.5h0ZM35.5,76.8c0-.7-.2-1.3-.5-1.8s-.8-.6-1.3-.6-1.2.3-1.5.9v3.1c.3.6.9.9,1.5.9s1-.2,1.3-.6c.3-.4.5-1.1.5-1.9Z"/>
  </g>
  <g>
    <path d="M27.8,119.2l1.5-2.4h1.3l-2.2,3.3,2.2,3.3h-1.3l-1.5-2.5-1.5,2.5h-1.3l2.2-3.3-2.2-3.3h1.3l1.4,2.4Z"/>
    <path d="M35.3,118.6c0-.3-.1-.6-.4-.7-.2-.2-.6-.3-1-.3s-.7.1-1,.3-.4.5-.4.7h-1.1c0-.6.2-1,.7-1.4.5-.4,1.1-.5,1.8-.5s1.4.2,1.8.5.6.8.6,1.4,0,.6-.3.8c-.2.2-.4.4-.8.6.8.3,1.2.8,1.2,1.5s-.2,1.1-.7,1.4c-.5.4-1.1.5-1.9.5s-1.4-.2-1.9-.6c-.5-.4-.7-.9-.7-1.5h1.1c0,.3.1.6.4.8.3.2.6.3,1.1.3s.8,0,1-.3.4-.5.4-.8-.1-.6-.3-.8c-.2-.2-.6-.2-1-.2h-1.1v-1h1.2c.8,0,1.2-.3,1.2-1Z"/>
  </g>
  <g>
    <path d="M182.6,39.4h-6.1v-1.2l2.9-3.1c.4-.4.7-.8.9-1.1.2-.3.3-.6.3-.9s0-.7-.3-.9c-.2-.2-.5-.3-.9-.3s-.7.1-.9.4c-.2.3-.3.6-.3,1.1h-1.8c0-.5.1-1,.4-1.5.3-.4.6-.8,1.1-1.1.5-.3,1-.4,1.6-.4.9,0,1.6.2,2.1.7.5.4.8,1.1.8,1.9s-.1.9-.3,1.3c-.2.5-.6,1-1.2,1.6l-2,2.1h3.8v1.4Z" fill="#e68600"/>
    <path d="M183.8,35l.5-4.5h5v1.5h-3.5l-.2,1.9c.4-.2.9-.3,1.3-.3.8,0,1.5.3,2,.8.5.5.7,1.3.7,2.2s-.1,1.1-.4,1.5c-.2.5-.6.8-1,1.1-.5.2-1,.4-1.6.4s-1-.1-1.5-.3c-.5-.2-.8-.5-1.1-.9-.3-.4-.4-.8-.4-1.3h1.7c0,.4.2.7.4.9.2.2.5.3.9.3s.7-.1.9-.4.3-.7.3-1.2-.1-.9-.4-1.2c-.2-.3-.6-.4-1.1-.4s-.8.1-1,.3l-.2.2-1.4-.3Z" fill="#e68600"/>
  </g>
  <g>
    <path d="M181.7,76.8h1v1.4h-1v1.9h-1.8v-1.9h-3.6v-1.1c0,0,3.6-5.8,3.6-5.8h1.8v5.5ZM178,76.8h2v-3.1.2c-.1,0-2,2.9-2,2.9Z" fill="#e68600"/>
    <path d="M188.8,76.8h1v1.4h-1v1.9h-1.8v-1.9h-3.6v-1.1c0,0,3.6-5.8,3.6-5.8h1.8v5.5ZM185.1,76.8h2v-3.1.2c-.1,0-2,2.9-2,2.9Z" fill="#e68600"/>
  </g>
  <g>
    <path d="M182.3,116.9c0,.4-.1.8-.3,1.1-.2.3-.5.6-.9.8.4.2.8.5,1,.9.3.4.4.8.4,1.3,0,.8-.3,1.4-.8,1.9-.5.5-1.3.7-2.2.7s-1.7-.2-2.2-.7-.8-1.1-.8-1.9.1-.9.4-1.3c.3-.4.6-.6,1-.9-.4-.2-.7-.5-.9-.8s-.3-.7-.3-1.1c0-.8.3-1.4.8-1.8.5-.4,1.2-.7,2.1-.7s1.5.2,2,.7c.5.4.8,1,.8,1.8ZM180.7,120.9c0-.4-.1-.7-.3-.9-.2-.2-.5-.3-.9-.3s-.7.1-.9.3-.3.5-.3.9.1.7.3.9.5.3.9.3.7-.1.9-.3c.2-.2.3-.5.3-.9ZM180.6,117c0-.3,0-.6-.3-.8-.2-.2-.4-.3-.8-.3s-.6.1-.8.3c-.2.2-.3.5-.3.8s0,.6.3.9c.2.2.4.3.8.3s.6-.1.8-.3c.2-.2.3-.5.3-.9Z" fill="#e68600"/>
    <path d="M183.8,119.1l.5-4.5h5v1.5h-3.5l-.2,1.9c.4-.2.9-.3,1.3-.3.8,0,1.5.3,2,.8.5.5.7,1.3.7,2.2s-.1,1.1-.4,1.5c-.2.5-.6.8-1,1.1-.5.2-1,.4-1.6.4s-1-.1-1.5-.3c-.5-.2-.8-.5-1.1-.9-.3-.4-.4-.8-.4-1.3h1.7c0,.4.2.7.4.9.2.2.5.3.9.3s.7-.1.9-.4.3-.7.3-1.2-.1-.9-.4-1.2c-.2-.3-.6-.4-1.1-.4s-.8.1-1,.3l-.2.2-1.4-.3Z" fill="#e68600"/>
  </g>
  <rect x="48.2" y="22.7" width="33.2" height="24" fill="#e68600"/>
  <rect x="48.2" y="22.7" width="119.6" height="24" fill="none" stroke="#000" stroke-miterlimit="10" stroke-width="1.2"/>
  <rect x="48.2" y="64.4" width="54.8" height="24" fill="#e68600"/>
  <rect x="48.2" y="64.4" width="119.6" height="24" fill="none" stroke="#000" stroke-miterlimit="10" stroke-width="1.2"/>
  <rect x="48.2" y="106.1" width="95.8" height="24" fill="#e68600"/>
  <rect x="48.2" y="106.1" width="119.6" height="24" fill="none" stroke="#000" stroke-miterlimit="10" stroke-width="1.2"/>
  <g>
    <path d="M57.7,115.4h-2.8v-.6h2.8v.6Z" fill="#fff"/>
    <path d="M58.3,114.8h.7l2.5,6.5h-.7l-2.5-6.5Z" fill="#fff"/>
    <path d="M65.2,121.4h-3.8v-.6h3.8v.6Z" fill="#fff"/>
    <path d="M67.7,118.4c0-.6,0-1.2.2-1.8.2-.6.4-1.1.7-1.6.3-.5.7-.8,1-1l.2.5c-.4.3-.7.8-1,1.4-.3.6-.4,1.3-.4,2.1v.3c0,1.1.2,2,.6,2.8.2.5.5.8.8,1.1l-.2.5c-.4-.2-.7-.5-1-1-.6-.9-1-2-1-3.3Z" fill="#fff"/>
    <path d="M71.2,114.9c.3.6.7,1.6.8,2.2l-.6.2c-.1-.6-.5-1.6-.8-2.2l.5-.2ZM77.5,115c0,0-.1.1-.2.1-.9,3-2.3,4.8-4.9,5.9,0-.1-.3-.3-.4-.5,2.6-1.1,3.9-2.8,4.7-5.8l.8.3ZM73.9,114.5c.2.7.4,1.7.4,2.4h-.6c0-.6-.2-1.6-.4-2.3h.6Z" fill="#fff"/>
    <path d="M80.4,118.4c0,.6,0,1.2-.2,1.8-.2.6-.4,1.1-.7,1.6-.3.5-.7.8-1,1l-.2-.5c.4-.3.8-.8,1-1.5s.4-1.4.4-2.3h0c0-.7,0-1.2-.2-1.7-.1-.5-.3-.9-.5-1.3-.2-.4-.5-.7-.7-.9l.2-.5c.4.2.7.5,1,1,.3.5.6,1,.7,1.5s.2,1.2.2,1.8Z" fill="#fff"/>
    <path d="M84.7,121.4h-3.8v-.6h3.8v.6Z" fill="#fff"/>
    <path d="M85.3,121.3h-.7l2.5-6.5h.6l-2.5,6.5Z" fill="#fff"/>
    <path d="M91.3,115.4h-2.8v-.6h2.8v.6Z" fill="#fff"/>
  </g>
  <polyline points="66.8 32.7 63.8 35.7 60.7 32.7" fill="none" stroke="#fff" stroke-linecap="round" stroke-miterlimit="10" stroke-width="6.6"/>
  <path d="M67.3,35.3l-3.6,3.6h0c-.5-.5-.5-1.2,0-1.7" fill="#e68600"/>
  <g>
    <polygon points="64.1 83.8 58.7 76.6 64.1 69.5 69.5 76.6 64.1 83.8" fill="none" stroke="#fff" stroke-linecap="round" stroke-miterlimit="10" stroke-width=".7"/>
    <polygon points="64.1 80.2 61.3 76.6 64.1 73 66.8 76.6 64.1 80.2" fill="none" stroke="#fff" stroke-linecap="round" stroke-miterlimit="10" stroke-width=".7"/>
    <polygon points="64.1 69.6 58.7 76.6 61.3 76.6 64.1 73 64.1 69.6" fill="#fff"/>
    <line x1="64.1" y1="69.6" x2="64.1" y2="73.1" fill="none" stroke="#fff" stroke-linecap="round" stroke-miterlimit="10" stroke-width=".7"/>
    <line x1="58.7" y1="76.6" x2="61.4" y2="76.6" fill="none" stroke="#fff" stroke-linecap="round" stroke-miterlimit="10" stroke-width=".7"/>
    <line x1="66.8" y1="76.6" x2="69.5" y2="76.6" fill="none" stroke="#fff" stroke-linecap="round" stroke-miterlimit="10" stroke-width=".7"/>
    <line x1="64.1" y1="80.2" x2="64.1" y2="83.7" fill="none" stroke="#fff" stroke-linecap="round" stroke-miterlimit="10" stroke-width=".7"/>
  </g>
  <metadata><?xpacket begin="﻿" id="W5M0MpCehiHzreSzNTczkc9d"?>
<x:xmpmeta xmlns:x="adobe:ns:meta/" x:xmptk="Adobe XMP Core 9.1-c002 79.b7c64cc, 2024/07/16-07:59:40        ">
   <rdf:RDF xmlns:rdf="http://www.w3.org/1999/02/22-rdf-syntax-ns#">
      <rdf:Description rdf:about=""
            xmlns:dc="http://purl.org/dc/elements/1.1/"
            xmlns:xmp="http://ns.adobe.com/xap/1.0/"
            xmlns:xmpGImg="http://ns.adobe.com/xap/1.0/g/img/"
            xmlns:xmpMM="http://ns.adobe.com/xap/1.0/mm/"
            xmlns:stRef="http://ns.adobe.com/xap/1.0/sType/ResourceRef#"
            xmlns:stEvt="http://ns.adobe.com/xap/1.0/sType/ResourceEvent#"
            xmlns:stMfs="http://ns.adobe.com/xap/1.0/sType/ManifestItem#"
            xmlns:illustrator="http://ns.adobe.com/illustrator/1.0/"
            xmlns:xmpTPg="http://ns.adobe.com/xap/1.0/t/pg/"
            xmlns:stDim="http://ns.adobe.com/xap/1.0/sType/Dimensions#"
            xmlns:stFnt="http://ns.adobe.com/xap/1.0/sType/Font#"
            xmlns:xmpG="http://ns.adobe.com/xap/1.0/g/"
            xmlns:pdf="http://ns.adobe.com/pdf/1.3/"
            xmlns:pdfx="http://ns.adobe.com/pdfx/1.3/"
            xmlns:photoshop="http://ns.adobe.com/photoshop/1.0/"
            xmlns:xmpRights="http://ns.adobe.com/xap/1.0/rights/">
         <dc:format>image/svg+xml</dc:format>
         <dc:title>
            <rdf:Alt>
               <rdf:li xml:lang="x-default">DH</rdf:li>
            </rdf:Alt>
         </dc:title>
         <dc:creator>
            <rdf:Seq>
               <rdf:li>Соболь Екатерина</rdf:li>
            </rdf:Seq>
         </dc:creator>
         <xmp:CreatorTool>Adobe Illustrator 29.1 (Windows)</xmp:CreatorTool>
         <xmp:CreateDate>2026-03-28T08:32:57+03:00</xmp:CreateDate>
         <xmp:ModifyDate>2026-03-28T08:32:57+03:00</xmp:ModifyDate>
         <xmp:MetadataDate>2026-03-28T08:32:57+03:00</xmp:MetadataDate>
         <xmp:Thumbnails>
            <rdf:Alt>
               <rdf:li rdf:parseType="Resource">
                  <xmpGImg:width>232</xmpGImg:width>
                  <xmpGImg:height>256</xmpGImg:height>
                  <xmpGImg:format>JPEG</xmpGImg:format>
                  <xmpGImg:image>/9j/4AAQSkZJRgABAgEASABIAAD/7QAsUGhvdG9zaG9wIDMuMAA4QklNA+0AAAAAABAASAAAAAEA&#xA;AQBIAAAAAQAB/+4ADkFkb2JlAGTAAAAAAf/bAIQABgQEBAUEBgUFBgkGBQYJCwgGBggLDAoKCwoK&#xA;DBAMDAwMDAwQDA4PEA8ODBMTFBQTExwbGxscHx8fHx8fHx8fHwEHBwcNDA0YEBAYGhURFRofHx8f&#xA;Hx8fHx8fHx8fHx8fHx8fHx8fHx8fHx8fHx8fHx8fHx8fHx8fHx8fHx8fHx8f/8AAEQgBAADoAwER&#xA;AAIRAQMRAf/EAaIAAAAHAQEBAQEAAAAAAAAAAAQFAwIGAQAHCAkKCwEAAgIDAQEBAQEAAAAAAAAA&#xA;AQACAwQFBgcICQoLEAACAQMDAgQCBgcDBAIGAnMBAgMRBAAFIRIxQVEGE2EicYEUMpGhBxWxQiPB&#xA;UtHhMxZi8CRygvElQzRTkqKyY3PCNUQnk6OzNhdUZHTD0uIIJoMJChgZhJRFRqS0VtNVKBry4/PE&#xA;1OT0ZXWFlaW1xdXl9WZ2hpamtsbW5vY3R1dnd4eXp7fH1+f3OEhYaHiImKi4yNjo+Ck5SVlpeYmZ&#xA;qbnJ2en5KjpKWmp6ipqqusra6voRAAICAQIDBQUEBQYECAMDbQEAAhEDBCESMUEFURNhIgZxgZEy&#xA;obHwFMHR4SNCFVJicvEzJDRDghaSUyWiY7LCB3PSNeJEgxdUkwgJChgZJjZFGidkdFU38qOzwygp&#xA;0+PzhJSktMTU5PRldYWVpbXF1eX1RlZmdoaWprbG1ub2R1dnd4eXp7fH1+f3OEhYaHiImKi4yNjo&#xA;+DlJWWl5iZmpucnZ6fkqOkpaanqKmqq6ytrq+v/aAAwDAQACEQMRAD8A9U4q7FXYq7FXYq7FXYq7&#xA;FXgup+Wr2P8AN/Tr7yfpl5Zi8vb6Xz1ciyv7bT5hFPCNPkIuVhtp3WQs5e23b43LEFmOs1ePLLHR&#xA;+rxI1QOw4xV+4c+X6XO008Yn3DgPz4envPL8BifnSEv+YS21pZztrUeqzy6tew29xHA9mYZhxdzy&#xA;hKl2Uhak1PU9rckdQNHlEjZ9XDQlyo999boWelbMMZxePjI/o3dfjlz2ex/lLDLG+reoKMy2hqBS&#xA;o4PTsNwNjkNCMonk8S+cehH8Ee8n4782WrMOGHD3HuP8R7gPueTedtOs5vzeV/Lul3C6mlzft5pv&#xA;rW3uI7eW2eJBbrM/wwysJ+NeI+1Qklt8wu1YZTpMolv6vTX83iFORoJYxqIGO2299/CXufkOC8iT&#xA;VhdikxvWLMFKq3wLuoPbJdiQnEZOPnx/oCO05RPBw8uFlObx1bsVdirsVdirsVdirsVdirsVdirs&#xA;VdirsVdirsVdirsVdirFZr78zYzGLfStKuuc0okaW8mteEIcekaLDd82ZK16UNPopxnJZ4gK6V+n&#xA;4tkxChw3fVkWnS38tjDJqFvHa3rLWe3hlM8aN4LKUhLfPgMua0RirsVdirsVdirsVdirsVdirsVd&#xA;irsVdirsVdirsVdirsVdirsVdirsVdirsVdirsVdirsVdirsVdirsVdirsVdirsVdirsVdirsVdi&#xA;rsVdirsVdirsVdirsVdirsVdirsVdirsVdirsVdirsVdirsVdirsVdirsVdirsVdirsVdirsVdir&#xA;sVdirsVdirsVdirsVdirsVdirsVdirsVdirsVdirsVdirsVdirsVdirsVdirsVdirsVdirsVdirs&#xA;VdirsVdirsVdirsVdirsVdirsVdirsVdirsVdirsVdirsVdirsVdirsVdirsVdirsVdirsVdirsV&#xA;dirsVdirsVdirsVdirsVdirsVdirsVdiqnDcW8wJhlSUDqUYNT7shDJGXIgspRI5ilTJsXYq7FXY&#xA;q7FXYq7FXYq7FXYq7FXYq7FXYq7FXYq7FXYq7FXYq7FXYq7FXYq7FXYq7FULqlrd3VjJBaXTWc7F&#xA;CJ0VHNFcMy0kDL8agpWm1ajfIzFghMTRYnpuh65f2EL22otpfGZJWaNWdpEEPEoR6tBV2D71HbiO&#xA;ua+OOeSMhH90eW1Hk5hnGEgT+8+bNqgU9+mbJwnYq7FXYq7FVlxEZoJIhI8JkRkEsdA6FhTktQwq&#xA;OoqMBFhIKD03T7+1muGudTmv4peHoRTJCnpca1o0SRluVRXlXptjEUKUmyjkdHrwYNxJVqGtCOoO&#xA;FDeKuxV2KuxV2KoHW9Wg0nTZb2b7KUVR4sxoMhPJGIssowMuSB8n6jNqWk/XZXZnnKSEMa8S0EbM&#xA;FHZeRNBjjnxC1nHhNK/mPWL/AEqzgnstNl1SWW4jgeCEsGVHJ5S7I4olK70Hvkc2QwjYiZeQZY4C&#xA;RomkkHmye184/oy4RjDfCExxk7xO8aClD2Ddfn47GEc/qESKJF/sZHF6SR0LMMyGl2KuxV2KuxV2&#xA;KuxV2KuxV2KuxVBrpNklfTEkak14RzSooJ8FVgo+jAAAkm0g0ue4Hm42gndreO3lkMcjGU8mupUX&#xA;43ZnUBYh8I2PfoMKGV4q7FXYq7FULqVi15bGJJ5LeYVaGaJ3Uq5UqCwVl5gcvstt9NDiry/ztdav&#xA;p91cad+l5ZTMIUW0l9VfVjbkXIIfYGjLWlPhO9djia3JwY7cjTQ4p0wTRdX1O1d7yO/FoT6gnZJJ&#xA;IikXxqZGNDUKfi3QfgKYGnynxRufwHKzY/3Ze7aFpWoFUudQubgtX/eV5JVKPG5FeSyBXVqdCpB2&#xA;p77p1qf4q7FXYq7FUj84aNf6xpa2Vm0alpQ0zSMU+BVb7JCSb8qdspzYuMU2Y8nCbY1Lb655X8v3&#xA;sVzNBFYzW8sULwzzerHKLd+DR/u0IJKKNm26jBhxyhteyckxL3sm8z6hLYtpMkTUaS+EAVnaON2l&#xA;t5kjWUqD8PqFTuDvTvTL2pJT5V8xyaodWuPqkt6HVgvrSKhRGBEf9wdqCnKhP41phiNmUjZ/Q2Sn&#xA;tQ5M1Fab9e+XNbsVdirsVdirsVdirsVdirsVdiqX69PcQaVNJblllrGqlByYc5FU0HfY9t/DfIZC&#xA;RE13e/7OrKA3FsW8sRlPNYMqFZ5LBmPx0C1uZGKCMF1r6bxM3Gg3B/bxxEmIvmswBI1yZzk2LsVd&#xA;irsVdirE/wAzrGG78ryiSf6u0ZMiMTxRuCM5SR+iLROXI9CBmLq8YlDdv08yJPKvy3s7GbzRaK1r&#xA;LB9WYTeq0jTBj66qjLEwl2aRlHOq0rUU6ZrNLjJyjb07dPLZzs8x4Z7/AMW+gc3rqnYq7FXYq7FV&#xA;G8mmitneCP1pQPgj8TleWRjEmIss8cQTRNBiQsdU1DzBbHUSlzbLKzNbERVt0WItxoPiAZ2iO55e&#xA;xU1WjTyyn6w25hjH0sg8y2U15otxDAgknoDEpVW3B+Kgf4TVajfMmV0a5tEavdJfKt1riKqz+rc2&#xA;shDJzLOYomH7seoyh2agqwf4t/lmDHJmE94+k/jzcqUMZjsd2W5sHEdirsVdirsVdirsVdirsVdi&#xA;rsVYt581aewgs0jEbJcOwcSCqgpxZW3ZQeH2qb1p0xVjX5e3TT+a5y8nqyGCaUyPT1SkrR8CxB/m&#xA;R/w6Yq9OxV2KuxV2KuxVC6jp1tqFuYLjlxIcAqxBHqRtExp9k/DIdmBHfARYpINMX8meTTpjXsl3&#xA;8RmaMKVdqlre4kkDmjbVPCq9NvA0zG00JCzL8fim7NIHkzLMpodirsVdirsVdiqEt7cyTrfzx+lc&#xA;GMxpESKxxsQxVypKs1VFdyB0XuWVReKoLTrM2K/VI1ZrZRWKQtXiBQBCCfDoQN+rfFuyqNxV2Kux&#xA;V2KuxV2KuxV2KuxV2KuxVD3Om6fdGt1bRT06eqiuNgQNmB/mP3nxxVSs9E0iynaezs4oJnFHkjUK&#xA;xBNdyMVRuKuxV2KuxV2KuxV2KuxV2KuxV2KuxV2KuxV2KuxV2KuxV2KuxV2KuxV2KpdfeY9AsLsW&#xA;d7qNtbXhjEwtpZUWUxFiofgTy48lIrTrgtkIkq+narp2pRPLYXCXMcbem7xmoD0Dca+NGBwoIIRW&#xA;KHYq7FXYq7FXYq7FXYq7FXYq7FXYq7FXYq7FXYq7FXYq7FXYq7FXYq7FXYq7FXYqpXV3BaxLLMWC&#xA;NJHEOKs55zSLEmyBjTk4qegG5oN8UgPOPzb0C6nlg1yKaEWtrGLa5iWEmcuWLJymUN+7pJXi/Gh6&#xA;H46GEgbcjFOPCRXqv7Px+B1Nfyz8uJ5N8mStqk8duZmfU9QklEcCQKYkWkrKfSBjihHqMtFrU9MY&#xA;AgbrqJxnIcI6V7z+Px0Zna3Vtd20N1azJcWtwiywTxMHjkjccldGWoZWBqCMm4xFKmKvgXU71rb8&#xA;8vNkJ/u7rW9SUjwK3crA/dXKMwsN+E7vVrWzjcA06Dc5jAuVTV5ZIIDXt0yaCnH/ADiTKZtZ8/y1&#xA;qGnsQp/yVa7VfwGZcOTgzNl9CapqdjpWmXep38ogsbCGS5u5yCwSGFC8jUUFjxVSdhkmLCV/Pr8p&#xA;n1RNKj15Zr+TgIoYra7k9RpOPFY2SFldyXA4qa12pUHFbTtPzC8uPwomoj1F5Ly0rU1oPh+1W2HE&#xA;/ENjv18Dii0z0XzHomuC8OlXa3Y0+5ayvCgYCO4SNJGjPID4lWVa06HbqCMUo6WeCEAyyLGD0LkL&#xA;7d/nirnmhR1jeRVkcEohIBIBANB33YD6cVX4q7FUPd6lp1nC813dQ20MYJeSWRUVQoJJJYgCgRvu&#xA;OKoiuKuxV2KuxV2KuxV2KuxV2KuxV2KsM89a9Hpl3ANRtbGXTlVLmxuNQC8I76KSiuGJduUfNGHC&#xA;Lko5MDsaVTkQUi+jIPLZdtGhlks0sJLhpbh7ZIvRo08rSl2jJJV5C/N+XxcieVDUZON1uiz1Y/58&#xA;8zW2gX1jc32mQXFjLFPbTX0/prxikT1JYVkfoH9BC0e5l24glMhORB5JF9E/8vanf6jBdy3luLf0&#xA;ry4toACCHjgf0y4IZifjVhUhSf5Rk4knmik0ySvzl/MW9Nv+cfmabcLD5hvnanWi3shNMhKOxZxl&#xA;RD6B0un1Uu1aAEkKCx28ANyflmDHm5xNJfrV89poGpXEsPGWwjZmTYcm9FZSNuQG706nLiNwwBoF&#xA;Hf8AOFZqvnH/ALdv/Y1mUHBe5/mmK/lj5vGwromoirUp/vJJ1rQffhV82flx5F0CO3kupLdhdv6Z&#xA;heaEM0aSBeDR8zOFqGUgh2+H7LH7WQJYkPpDSprm70q0urmH6vPPEkjwEMpQuK8WV1R1Yd1YVB2y&#xA;QQQk35OMpk88ANyZfM1yrsGLAkWVmABy3+FaKak7jw2BZBOvM8l9e6nbwafb3craNNBeXfoC3Rbh&#xA;LiO4j+rRTT7LIjKjygMhCMpDfEMUsV0L8s9PuNPgttNkvdIsbO1ezjtpY7m0mWe3uZFiuopY5IJF&#xA;jYrO/BWDSrPykO0YAS9QtfX+rRfWEWOfgvqxo5kVXp8Sq7KjOAejFQT4DChUxVgeuaPxc3oFxBaj&#xA;UbSyWztZfTnhjLw2ds8JtOHpRxtK07I5flG550X92qqeaXoWt2+gNa3GpsdXned5dQCrLJEtxcST&#xA;LFG0g4N9XSX04maPh8IPpgfBhBVO7X1/q6GevqkVYEAEV6BuJZeQGxoaV6YFVcVeOr/zlH+XrauQ&#xA;BN/hdUofMRoP3tCa/UDS++r1Hpev6XH1fgpuGxV7FirsVdirsVdirsVdirzfzb+a+saD5kvNGXy8&#xA;JY4Ejmtr2W4liS4iZFLMvC2mUUkLR8efL4a0pkTJuhiBF2y7yfrt7r2hxapd2cdiZ2cRQRT/AFn4&#xA;UPAln9OJeXNWFFqKUNd6Ag2wyQ4TTFPza8/+YfLMD2Wl6ehlv7G4ax1d5SPQuY1YFjD9XnjPpckc&#xA;eoyh68exwSNM8WMS5pr+XPne7812t9M+lxada2Ei2sbQ3PrhpVB9WMo0Nu8fprwIqtGDCmMTbHJD&#xA;hZhkmt+bX5rMR+afnGnX9Oal/wBRcmBL33Q9QSXRLbVIEB5W7PEzIzyUdQyrxTfc0LfL6RhQG9OZ&#xA;OW1pd+ZOozW35czSs4e4uIIkd2AFTOVV/shR0c5MfWiW0E6/5wmNR5y/7dv/AGN5lBxC95/NFgv5&#xA;Z+bmK8gui6iSvw70tZNviDL94IwoeT6RaTnyfZauH9S5n060cFVFVEcCcaJAGVioA2QGtNuuVnmt&#xA;s90nzZPcaZb3V1bhuaKzSQOrqQRsynbkD1B22PTJCSCs/JrUPrw86SqCkS+ZblIUJBAUWdp8SgbL&#xA;6hJkI61Y13rklDOdTm1OK3L6fbx3MoqSjycGoFJ+AEcXblQBWdAe7DFLAvJP5gW+ncfKnm7Xbe+8&#xA;3QXBjnmiMZ+sPeXbrEkEMVZAsPJYpC8aBaeG+KvSMVdirHfLMWpRaprZnV1sJ7pri19a4uLiQkkw&#xA;uFS4CNbx1gqsaBozy5o1G4hVEI6XF2NX026S5so2uIbuBGlYGaCQQSFPTJVnjMDoyNG3xAcSh5c1&#xA;U4ikWSNZFBCuAwDKVahFd1YBgfYjFV2KvibUvISS+Q2m9CWOCS8iupba2aGF475/KK6tJL6RRESB&#xA;ZuTMkbVCAqicuIxV9s4q7FXYqgzrOmjWV0Uzj9JvbNeLbUapgR1jZ+VOOzuBStcHELplwHh4unJF&#xA;qysKqQRUio33BoR9BwsW8VdirzP8yPIep3mpPq+hWTXt5doBPD60cSrJChCsfVI/vVEafCaLxrxP&#xA;IkVmO9hyY6g8IgfpjdfGrZr5R0WfRPLljplxIss9ujetInQu7l23onLdvtcVr14r9kShGhTVlyGc&#xA;rPl9gofYxH82fI+oa99SvrFZ72SI/VptPEkKQpDIrh7hTM0ZRhyoxRuRXsaZGUbNtmHOYgx/hO/x&#xA;HL7yyLyDour6ToPo6sYvr0spkaOEuypGqrFEjM7NycRRLy40Wuy7CpMI18WGXKZV3RFD5k/eSyPJ&#xA;tT83vzVt5T+Z/nGXgfT/AE5qfxU2/wB7JMBKaZx5G8seebTQBc6XfG5t7y2jltrD4GMTzOObATHg&#xA;tI2dqq27UqpzHOWHFu3jFMjZj/5i2/nqO2j/AMQ3Ja1t5xFaWoeD4VKHizx2yqo2GxahH05KE4E7&#xA;c1njyCNy5PZ/+cIjX/Gf/bs/7G8uDQXvX5p0/wCVYeb+X2f0JqNe231ST54UPFdJ1XUYPy70OPTo&#xA;0lkWwD0llaVmIjHEjjxEpdmG3MVysoRuma3qP1S0juLIRXdpFCzNGxiiNsWKglA0oLemxYIWYbMF&#xA;blWihlv/ADjpcNcaB5ouDGUWXzFdMhPq1ZTbW3xfvQvfso4joK9TMMmeeb/OvlryfpY1TzFerYWL&#xA;SCGOZ6nlKwLLGoFSWKqx+QOFXlGnefNC84efkXy9YrcXq3FzaSa+0t20dlfJFOLdLnTRJGk0Mtra&#xA;vxlWTiWrVVPVV7JottrEFkBq95Fe3zsWke2hNtAooAEijZ5nCgCp5yMSxJ2FFVVH4qxbzH+YWjaB&#xA;5l0ry/d2t7Pea0yR2slvEJIFLy+n+8YsvHiOUjbfYUnwGKsa0XQvMOjedEuL3VI7XTNKs2F3NLbW&#xA;rPqNjFG0cLSXpEUkZhPB5lC0VhuxWRAir01WV1DoQysAVYbgg9CMVbxV87D/AJxc12DzbqWrWXmM&#xA;W9jc6lBc2ttCZbdDZ8Jo7iO5ih4GWX0ZjCrrKpZWkZmBYjFX0TirsVYp5+vbqxj024ivtYs4nuPq&#xA;8g0aCwnDvNQQi4+uwzlVaQCNDHT4n+LbdRI0LZQhxEB57q9x+Ymnee9PurSV7i/mtfrFzpTyCQLG&#xA;ztdXFkrBZUBeG0EcZRPt9GoWOYUTIT35/jZ28xiniPD9I27vK/t69Hr2kXkVxFIiTXNwYmqZ7mBo&#xA;OQmUToIyYoUkVEkC1QGlOLHmGzNBt05FGij8KHYq8u/MPz1r2k+YDpiQwNaQta3dtKj3KPUuB6cx&#xA;gliJPNWJjKlGQry6nIGW9ORDFceL3j8fYzbydq2p6voUWoajHHFPM8gEMccsRQRuYyrpN8YbkjVq&#xA;B8q4Ymwwy4zCVHuB+YsfYxH83fPfmDysqraR2T2N5ZXDJ9YjuHcywKWlVmikiCrwdONCWPxeGCUq&#xA;Z4cXEL32I+3l+lNfyw8x6prum3b3FvaW1hYSLZWcVpG8QVolq68GZ09NVaMJwbryUgFcMTbHNj4a&#xA;577/AI+1mmSaXwhr3la+1f8ANPzeQTHZfp3UvUc9W/0uSoT+uY+WQBcnDjMnpeiaHYWECxwChHan&#xA;LtTvmJN2OOCV/mNoK6n5VvYY1q8SGSPseafEB4dRgxSqTPUQEoEJn/zg+HB87KwoQdMFCKH/AI+8&#xA;2YdGXv35ph2/LHzesdfUOi6iEoCTX6pJSgGFD51tdVtJNC0iJJvqhMCqIlAEkJ4RsjBHBoY240Vg&#xA;R0FKZXSojzBr0M3lKeztLyNnjt4UCijGWJpYopFCsW+1G+/XGkAPRf8AnF0H/CPmR/q5txJ5jvHA&#xA;IccgYLf4viLV8Kr8O22TCWdedPyu8i+crC5tNd0mGZrkq73kaiK6EqJ6ccgmSjlkXYcqimxBG2FU&#xA;r8l/lH5f8ra3NqVrbRmX0bdYrpD6TyTQteK000UaIrSNDeBXfkQ5HLghAqqzuEzFCZkVH5MAFYsO&#xA;IY8DUhdytCR2O1T1xVfirEtc/LLy5rXnbS/N9+rTahpUaww28gje3ZEE5UlGWvMSXAcNXYotKb1V&#xA;ZJqWnx39q0Du8L1Dw3ERAkikU1SRCwZaqezAqejAqSCq1pVvfW1hDb310Ly5iBVrkIYuagngWXlJ&#xA;8XCnI1oWqQFrQKorFXYq7FXYqhL63e4ktontLe5tRMkkxnY8ozEGkjkjj9N1Z0mSPjVlpUtWqgMC&#xA;Egkcnlei6Tq17+Ymt6tCUkthqJsrTUopoGlt7qGBY7ykbKUk5QyEJUyNEYjGwHxDMYRPHYHV2U8s&#xA;DiESf4eg/G9jfvt6bp+kXdpf3dzJq13eW9yzNFp8yWiwW/JuR9IwW8Mx6/7skf78ynWJlirsVeX+&#xA;c/yu1vVvMl5qunGwCXrI7tcNKjo0UEcalkSORZTyhXeqlQOp2pUYGyW6GYgcJJoM88saXc6XolvZ&#xA;XTrJcIZHlZWLLyllaQgMQpIHOm4rk4Chu1ykZGyb/ZyYZ+Z/5e6x5o1jTbmxWBoLdGiukuJeEbpJ&#xA;zVgyCKYvRXJAqPDvkJQJlbPFlMbF7H7wmn5deTLvy62pS3aqs98YgTHJzQrD6nEhQkYQ/vN6Dc7k&#xA;k1JMIkE2xnklKrOw5eTM8sYILW9T/RmmTX3p+t6PH93y415OF60b+bwxUsH1L85tO017dLuy9I3U&#xA;0dvATNs0szcI0H7vcsfDoKk7DCxtVb82US7itW0iYNOGMcoZni+CtQ0iRsse1COZXlXapqArb0DA&#xA;ydirsVdirsVdirsVdirsVdirsVdirsVdirsVdiqlc2lrdII7mGOeNXjlCSKHAkhcSxPRgfiSRQ6n&#xA;sQCN8VSiHRQLq6mMU1LvU1vbhHlTifRt44YmUIK8AbeNuBIPLetNjVwfe3DL/uaQflz8svJXlzWJ&#xA;da0iweLVZ4ZIJ7ya6urmSRJphcS82uJZeTPKAzOfiNOtMtaWUYq7FXg35oebtUtvM+u2NvqN7Zpa&#xA;tEtLe5ljUJ9RS45KFkQqeZo3Ae/c5r9RKQnsXbaOMJY94hk3/OOvmDVNd8l397qFzPdyLqckUMt1&#xA;NJPIY1t4CN5C3EEsTxBpvXvmZiBEdy6/UGJl6RSaedPNcmn+ctP0dVupPrdqZYhbsyRpLWRQZnV0&#xA;AUoHpUHdfEDMXVZJRPPYjv8Ax97laTCJjpt5c+XXy7iN75iqIn8tvMd1rs+vXU8dxBGLpBaQXPqB&#xA;hCIgoYI5ISsiODx2qMswSBlKpcUdv2uNk4uCPFDglvtt8OVjl5s2zKaEk86/8ozef88v+TqYoL5S&#xA;80vJd+dr23vbFrfy7PE1teajDClzKD9XkaSaIGOSVGlW39B2CEcY+teJQoD1S2WRIo43kMxVFBnY&#xA;KC7UoWPGgqeuwAxQ90wM3Yqw/wDN3zhqnk38vNW8yaXFBNf2H1f0Y7pXaE+tcxQtyCNG32ZDSjdc&#xA;VfOP/Q4H5lKhd9N0YIoJYiC7Ow/6OcCoCL/nNH8zJZyBpmjJDQ8W+r3THlT4Af8AS1HxNQHwG++S&#xA;AtBezeWfzf8AO17pFve6lBpnqXMazxi2juFVVcAqp5ytUgEEmvenapiTRW2Qflr+adz5x1u7so4Y&#xA;ZbK0thLJf26usXrllAhVmZg54sWbj02332Ql6PhV2KuxV2KuxV2KuxV2KuxV2KuxV2KuxV2KvIfP&#xA;f5H635m8yazqlv5ggtLTVhCBZyWbzGIxW6QMeYnjB58K/ZynJhEjbkYtTKAIHVlH5Sfl3deQ/L13&#xA;pNzqY1V7m+kvVnWH0AiyRxxiPjzkrx9KtSe+WgUKaJGzaJ8zeRZtX1+DWbe+FpcQQLAAYvUqqtIx&#xA;35LSvq/hmPqNMMnM8uX4/scnBq5YxQqr3/Z3famnlvy7+hlnrOZ5LgR+oacVDItCVBLEcmJNCxpk&#xA;8OEYxQ5NeXNLJRlz/HLy95PPmnOXNKSedf8AlGbz/nl/ydTFBfPnmKTR49R1k3rSFn0+1jnhpA0b&#xA;RF7p4WQSr/eI8cpYuyxqnxsQFLAoDJ9MvLG8061u9PZXsZ4kktmUFQY2UFKKQCu3YjbFD3fAzdir&#xA;zL/nJU0/JTzGf+YL/qPgxV8ZaL5QvfMVneGKaK0tbOPncXdw3GNDRmQHvQ+mSzdFAJPYGJNK+g/L&#xA;n/OM3ki30/S7k3N3c3dtPHePJyiEc4LxsY5EaJqxL6VQBRjyIJ32PEVpCa95XuINUk8ufXJofLem&#xA;RwQRRK49e8UwIzeu6BOMdG4cVoW39siZbopm/wCROr6Xca5eafpUYezs7Ic7mBQtqrl0pEjL8LtQ&#xA;8jx6fPCFeuXuvaRZX9vYXdysN3dAtbxsCOQBCn4qcerDqchkzQgQJEAnb5tkMUpAkDkkFl+bv5XX&#xA;t1FaWnmvS5rmd0jghS6iLu8rcUVRy3YttQZawZdirsVdirsVdirsVdirsVdirsVdirsVdirsVdir&#xA;sVdiqF1TToNSsZbKdmWKXjyZCA3wsGFKgjqPDFWI3n5O+Tb25S5uo5Zp4zE6SMYyyvbszwsp9Ooa&#xA;NpH4kfzHxxRTtC/KHy5oukWulW13fy29onpxPcSpJJxB2BYxjYdAOgGw2xWmcYpdirzP/nJJlX8l&#xA;vMTMocA2RKmtD/p8GxoQcVfJPlbXvq/k7zJp0rzzvLaSfU7WMM6oDBMJpf5UVeSlz398gRur27TP&#xA;z8/LTRbGzsmu5JXs4zCy28E00cQBAMazFI1kRegZahgtfDJcJW0N5iik8165PeyzSWegTqjR2UZM&#xA;VzOqxqjrcnrGlFICLuQfioRQQtWafknq+iyeatR0bS1Urp9n+9NugEEZaVaR8loOfenz7g5IK9gn&#xA;0vTLi8hvZ7SGW8twVt7l40aWNWIYhHI5KCVB2PbBLHGXMA0yEyORVFs7RAAsEagEEUVRQjcHpk2K&#xA;rirsVdirsVdirsVdirsVdirsVdirsVdirsVdirsVdirsVdirsVdirsVdirsVdirsVdirsVdirsVd&#xA;irsVdirsVdirsVdirsVdirsVdirsVdirHNW896TpV/d2d3bXrGyjhllltraS6UrO3BQiQCSViD9o&#xA;BNhv0yg6gDIIUbPltt5toxEwMrFD5o/QPMen65A81nHdxCIqJI720ubJwWFQOFzHETt4Vy9qTTFX&#xA;Yq7FXYq7FXYq7FXYq7FXYq7FXYq7FXYq7FXYq7FXYq7FXYq7FXYq7FXYq7FXYq7FXYq7FXYq7FXY&#xA;q7FXYq7FXYq7FXYq7FXYq7FXYq7FXYq7FXYq7FXYq7FXYq7FXYq7FXYq7FXYq7FXYq7FXYq7FXYq&#xA;7FWlZWHJSGXxBqNtsAIPJJFN4UOxV2KuxV2KuxV2KuxV2KuxV2KuxV2KuxV2KuxV2KuxV2KuxV2K&#xA;uxV2KuxV2KoK/Olwz295ezrA9uJPReSYxJRl+Oq8lVqKP2gaZCUASD3fj4/FkJEAjvSXzF5O0DUd&#xA;MvLe81C8sILyVLia4t72W2cMjEgJIG+BSX3A2yuGOGMk2fVvvIn5WdvgzlOUwBXLuH6uben+W/Ld&#xA;rr1pdRXhm1OC1RIIpZIpJmiSIQiVmK+u9VG7FtzlgAJsH7WBJGyc217o0Nz+ioLmBbuIVNkJFMqg&#xA;jlUpXnuDXGAjEUFNnco3JsXYq7FXYq7FXYq7FXYq7FXYq7FXYq7FXYq7FXYq7FXYq7FXYq7FXYq7&#xA;FXYq7FWN+efJiebNMGnS3f1WE/bYRJMTSSOQfDJVP9191PiKEZXPEJEX0ZxmYg0qWv6SsLe30ew0&#xA;+K7ttPhjtTO8ot1rFEmwjWOQKCGFKYJmQ5C/isRHqUDq3mDytok1rrus2lvaatciWzW5L26uFhfi&#xA;0azTtBVa70GQnlGMWRz7mUYGZoHkr+XbbyrrmoHzhYQsb+QG2N19Y9VGRBxoqxSy29KH9n9dcnAC&#xA;XrF7okSPSyfLWt2KuxV2KuxV2KuxV2KuxV2KuxV2KuxV2KuxV2KuxV2KuxV2KuxV2KuxV2KuxV2K&#xA;qE1hYzvznt4pXpTk6Kxp4VIxVVjjjjQRxqERdlVQAAPYDFV2KuxV2KuxV2KuxV2KuxV2KuxV2Kux&#xA;V2KuxV2KuxV2KuxV2KuxV2KuxV2KuxV2KuxV2KuxV2KuxV2KuxV2KuxV2KuxV2KuxV2KuxV2KuxV&#xA;2KuxV2KuxV2KuxV2KuxV2KuxV2KuxV2KuxV2KuxV2KuxV2KuxV2KuxV2KuxV2KuxV2KuxV2KuxV2&#xA;KuxV2KuxV2KuxV2KuxV2KuxV2KuxV2KuxV2KuxV2KuxV2KuxV2KuxV2KuxV2KuxV2KuxV2KuxV2K&#xA;uxV2KuxV2Kv/2Q==</xmpGImg:image>
               </rdf:li>
            </rdf:Alt>
         </xmp:Thumbnails>
         <xmpMM:RenditionClass>proof:pdf</xmpMM:RenditionClass>
         <xmpMM:OriginalDocumentID>uuid:65E6390686CF11DBA6E2D887CEACB407</xmpMM:OriginalDocumentID>
         <xmpMM:DocumentID>xmp.did:1681ee76-2a36-5b4e-be18-663b09588e82</xmpMM:DocumentID>
         <xmpMM:InstanceID>xmp.iid:1681ee76-2a36-5b4e-be18-663b09588e82</xmpMM:InstanceID>
         <xmpMM:DerivedFrom rdf:parseType="Resource">
            <stRef:instanceID>uuid:0e2ba1bc-1dfd-444b-8e9e-0487af3dac04</stRef:instanceID>
            <stRef:documentID>xmp.did:9f64033b-4b5e-c84c-81df-ef707b4281ea</stRef:documentID>
            <stRef:originalDocumentID>uuid:65E6390686CF11DBA6E2D887CEACB407</stRef:originalDocumentID>
            <stRef:renditionClass>proof:pdf</stRef:renditionClass>
         </xmpMM:DerivedFrom>
         <xmpMM:History>
            <rdf:Seq>
               <rdf:li rdf:parseType="Resource">
                  <stEvt:action>saved</stEvt:action>
                  <stEvt:instanceID>xmp.iid:9f64033b-4b5e-c84c-81df-ef707b4281ea</stEvt:instanceID>
                  <stEvt:when>2026-03-12T20:54:11+03:00</stEvt:when>
                  <stEvt:softwareAgent>Adobe Illustrator 29.1 (Windows)</stEvt:softwareAgent>
                  <stEvt:changed>/</stEvt:changed>
               </rdf:li>
               <rdf:li rdf:parseType="Resource">
                  <stEvt:action>saved</stEvt:action>
                  <stEvt:instanceID>xmp.iid:1681ee76-2a36-5b4e-be18-663b09588e82</stEvt:instanceID>
                  <stEvt:when>2026-03-28T08:32:57+03:00</stEvt:when>
                  <stEvt:softwareAgent>Adobe Illustrator 29.1 (Windows)</stEvt:softwareAgent>
                  <stEvt:changed>/</stEvt:changed>
               </rdf:li>
            </rdf:Seq>
         </xmpMM:History>
         <xmpMM:Manifest>
            <rdf:Seq>
               <rdf:li rdf:parseType="Resource">
                  <stMfs:linkForm>EmbedByReference</stMfs:linkForm>
                  <stMfs:reference rdf:parseType="Resource">
                     <stRef:filePath>D:\2026\12.03.26 DH\мокапы\11650353.jpg</stRef:filePath>
                  </stMfs:reference>
               </rdf:li>
               <rdf:li rdf:parseType="Resource">
                  <stMfs:linkForm>EmbedByReference</stMfs:linkForm>
                  <stMfs:reference rdf:parseType="Resource">
                     <stRef:filePath>D:\2026\12.03.26 DH\DH.jpg</stRef:filePath>
                     <stRef:documentID>0</stRef:documentID>
                     <stRef:instanceID>0</stRef:instanceID>
                  </stMfs:reference>
               </rdf:li>
               <rdf:li rdf:parseType="Resource">
                  <stMfs:linkForm>EmbedByReference</stMfs:linkForm>
                  <stMfs:reference rdf:parseType="Resource">
                     <stRef:filePath>C:\Users\katis\OneDrive\Pictures\references\тЕЛОчела-1.png</stRef:filePath>
                     <stRef:documentID>0</stRef:documentID>
                     <stRef:instanceID>0</stRef:instanceID>
                  </stMfs:reference>
               </rdf:li>
               <rdf:li rdf:parseType="Resource">
                  <stMfs:linkForm>EmbedByReference</stMfs:linkForm>
                  <stMfs:reference rdf:parseType="Resource">
                     <stRef:filePath>C:\Users\katis\OneDrive\Pictures\references\тЕЛОчела-1.png</stRef:filePath>
                     <stRef:documentID>0</stRef:documentID>
                     <stRef:instanceID>0</stRef:instanceID>
                  </stMfs:reference>
               </rdf:li>
            </rdf:Seq>
         </xmpMM:Manifest>
         <xmpMM:Ingredients>
            <rdf:Bag>
               <rdf:li rdf:parseType="Resource">
                  <stRef:filePath>D:\2026\12.03.26 DH\мокапы\11650353.jpg</stRef:filePath>
               </rdf:li>
            </rdf:Bag>
         </xmpMM:Ingredients>
         <illustrator:StartupProfile>Web</illustrator:StartupProfile>
         <illustrator:CreatorSubTool>AIRobin</illustrator:CreatorSubTool>
         <xmpTPg:NPages>1</xmpTPg:NPages>
         <xmpTPg:HasVisibleTransparency>True</xmpTPg:HasVisibleTransparency>
         <xmpTPg:HasVisibleOverprint>False</xmpTPg:HasVisibleOverprint>
         <xmpTPg:MaxPageSize rdf:parseType="Resource">
            <stDim:w>187.165039</stDim:w>
            <stDim:h>56.404297</stDim:h>
            <stDim:unit>Pixels</stDim:unit>
         </xmpTPg:MaxPageSize>
         <xmpTPg:Fonts>
            <rdf:Bag>
               <rdf:li rdf:parseType="Resource">
                  <stFnt:fontName>Consolas</stFnt:fontName>
                  <stFnt:fontFamily>Consolas</stFnt:fontFamily>
                  <stFnt:fontFace>Regular</stFnt:fontFace>
                  <stFnt:fontType>Open Type</stFnt:fontType>
                  <stFnt:versionString>Version 7.00</stFnt:versionString>
                  <stFnt:composite>False</stFnt:composite>
                  <stFnt:fontFileName>consola.ttf</stFnt:fontFileName>
               </rdf:li>
               <rdf:li rdf:parseType="Resource">
                  <stFnt:fontName>Consolas-Bold</stFnt:fontName>
                  <stFnt:fontFamily>Consolas</stFnt:fontFamily>
                  <stFnt:fontFace>Bold</stFnt:fontFace>
                  <stFnt:fontType>Open Type</stFnt:fontType>
                  <stFnt:versionString>Version 7.00</stFnt:versionString>
                  <stFnt:composite>False</stFnt:composite>
                  <stFnt:fontFileName>consolab.ttf</stFnt:fontFileName>
               </rdf:li>
               <rdf:li rdf:parseType="Resource">
                  <stFnt:fontName>KanitCyrillicRegular</stFnt:fontName>
                  <stFnt:fontFamily>Kanit Cyrillic</stFnt:fontFamily>
                  <stFnt:fontFace>Regular</stFnt:fontFace>
                  <stFnt:fontType>Open Type</stFnt:fontType>
                  <stFnt:versionString>Version 1.002;Fontself Maker 3.5.7</stFnt:versionString>
                  <stFnt:composite>False</stFnt:composite>
                  <stFnt:fontFileName>KanitCyrillic.otf</stFnt:fontFileName>
               </rdf:li>
               <rdf:li rdf:parseType="Resource">
                  <stFnt:fontName>SegoeUIEmoji</stFnt:fontName>
                  <stFnt:fontFamily>Segoe UI Emoji</stFnt:fontFamily>
                  <stFnt:fontFace>Regular</stFnt:fontFace>
                  <stFnt:fontType>Open Type</stFnt:fontType>
                  <stFnt:versionString>Version 1.29</stFnt:versionString>
                  <stFnt:composite>False</stFnt:composite>
                  <stFnt:fontFileName>seguiemj.ttf</stFnt:fontFileName>
               </rdf:li>
               <rdf:li rdf:parseType="Resource">
                  <stFnt:fontName>KozGoPr6N-Regular</stFnt:fontName>
                  <stFnt:fontFamily>小塚ゴシック Pr6N</stFnt:fontFamily>
                  <stFnt:fontFace>R</stFnt:fontFace>
                  <stFnt:fontType>Open Type</stFnt:fontType>
                  <stFnt:versionString>Version 6.020;PS 6.008;hotconv 1.0.70;makeotf.lib2.5.5900</stFnt:versionString>
                  <stFnt:composite>False</stFnt:composite>
                  <stFnt:fontFileName>KozGoPr6N-Regular.otf</stFnt:fontFileName>
               </rdf:li>
               <rdf:li rdf:parseType="Resource">
                  <stFnt:fontName>Roboto-Light</stFnt:fontName>
                  <stFnt:fontFamily>Roboto</stFnt:fontFamily>
                  <stFnt:fontFace>Light</stFnt:fontFace>
                  <stFnt:fontType>TrueType</stFnt:fontType>
                  <stFnt:versionString>Version 2.137; 2017</stFnt:versionString>
                  <stFnt:composite>False</stFnt:composite>
                  <stFnt:fontFileName>Roboto-Light.ttf</stFnt:fontFileName>
               </rdf:li>
               <rdf:li rdf:parseType="Resource">
                  <stFnt:fontName>Roboto-Medium</stFnt:fontName>
                  <stFnt:fontFamily>Roboto</stFnt:fontFamily>
                  <stFnt:fontFace>Medium</stFnt:fontFace>
                  <stFnt:fontType>TrueType</stFnt:fontType>
                  <stFnt:versionString>Version 2.137; 2017</stFnt:versionString>
                  <stFnt:composite>False</stFnt:composite>
                  <stFnt:fontFileName>Roboto-Medium.ttf</stFnt:fontFileName>
               </rdf:li>
               <rdf:li rdf:parseType="Resource">
                  <stFnt:fontName>Roboto-Bold</stFnt:fontName>
                  <stFnt:fontFamily>Roboto</stFnt:fontFamily>
                  <stFnt:fontFace>Bold</stFnt:fontFace>
                  <stFnt:fontType>TrueType</stFnt:fontType>
                  <stFnt:versionString>Version 2.137; 2017</stFnt:versionString>
                  <stFnt:composite>False</stFnt:composite>
                  <stFnt:fontFileName>Roboto-Bold.ttf</stFnt:fontFileName>
               </rdf:li>
               <rdf:li rdf:parseType="Resource">
                  <stFnt:fontName>Roboto-Regular</stFnt:fontName>
                  <stFnt:fontFamily>Roboto</stFnt:fontFamily>
                  <stFnt:fontFace>Regular</stFnt:fontFace>
                  <stFnt:fontType>TrueType</stFnt:fontType>
                  <stFnt:versionString>Version 2.137; 2017</stFnt:versionString>
                  <stFnt:composite>False</stFnt:composite>
                  <stFnt:fontFileName>Roboto-Regular.ttf</stFnt:fontFileName>
               </rdf:li>
            </rdf:Bag>
         </xmpTPg:Fonts>
         <xmpTPg:PlateNames>
            <rdf:Seq>
               <rdf:li>Cyan</rdf:li>
               <rdf:li>Magenta</rdf:li>
               <rdf:li>Yellow</rdf:li>
               <rdf:li>Black</rdf:li>
            </rdf:Seq>
         </xmpTPg:PlateNames>
         <xmpTPg:SwatchGroups>
            <rdf:Seq>
               <rdf:li rdf:parseType="Resource">
                  <xmpG:groupName>Группа образцов по умолчанию</xmpG:groupName>
                  <xmpG:groupType>0</xmpG:groupType>
                  <xmpG:Colorants>
                     <rdf:Seq>
                        <rdf:li rdf:parseType="Resource">
                           <xmpG:swatchName>Белый</xmpG:swatchName>
                           <xmpG:mode>RGB</xmpG:mode>
                           <xmpG:type>PROCESS</xmpG:type>
                           <xmpG:red>255</xmpG:red>
                           <xmpG:green>255</xmpG:green>
                           <xmpG:blue>255</xmpG:blue>
                        </rdf:li>
                        <rdf:li rdf:parseType="Resource">
                           <xmpG:swatchName>Черный</xmpG:swatchName>
                           <xmpG:mode>RGB</xmpG:mode>
                           <xmpG:type>PROCESS</xmpG:type>
                           <xmpG:red>0</xmpG:red>
                           <xmpG:green>0</xmpG:green>
                           <xmpG:blue>0</xmpG:blue>
                        </rdf:li>
                        <rdf:li rdf:parseType="Resource">
                           <xmpG:swatchName>R=230 G=134 B=0</xmpG:swatchName>
                           <xmpG:mode>RGB</xmpG:mode>
                           <xmpG:type>PROCESS</xmpG:type>
                           <xmpG:red>230</xmpG:red>
                           <xmpG:green>134</xmpG:green>
                           <xmpG:blue>0</xmpG:blue>
                        </rdf:li>
                     </rdf:Seq>
                  </xmpG:Colorants>
               </rdf:li>
               <rdf:li rdf:parseType="Resource">
                  <xmpG:groupName>Оттенки серого</xmpG:groupName>
                  <xmpG:groupType>1</xmpG:groupType>
                  <xmpG:Colorants>
                     <rdf:Seq>
                        <rdf:li rdf:parseType="Resource">
                           <xmpG:swatchName>R=0 G=0 B=0</xmpG:swatchName>
                           <xmpG:mode>RGB</xmpG:mode>
                           <xmpG:type>PROCESS</xmpG:type>
                           <xmpG:red>0</xmpG:red>
                           <xmpG:green>0</xmpG:green>
                           <xmpG:blue>0</xmpG:blue>
                        </rdf:li>
                        <rdf:li rdf:parseType="Resource">
                           <xmpG:swatchName>R=26 G=26 B=26</xmpG:swatchName>
                           <xmpG:mode>RGB</xmpG:mode>
                           <xmpG:type>PROCESS</xmpG:type>
                           <xmpG:red>26</xmpG:red>
                           <xmpG:green>26</xmpG:green>
                           <xmpG:blue>26</xmpG:blue>
                        </rdf:li>
                        <rdf:li rdf:parseType="Resource">
                           <xmpG:swatchName>R=51 G=51 B=51</xmpG:swatchName>
                           <xmpG:mode>RGB</xmpG:mode>
                           <xmpG:type>PROCESS</xmpG:type>
                           <xmpG:red>51</xmpG:red>
                           <xmpG:green>51</xmpG:green>
                           <xmpG:blue>51</xmpG:blue>
                        </rdf:li>
                        <rdf:li rdf:parseType="Resource">
                           <xmpG:swatchName>R=77 G=77 B=77</xmpG:swatchName>
                           <xmpG:mode>RGB</xmpG:mode>
                           <xmpG:type>PROCESS</xmpG:type>
                           <xmpG:red>77</xmpG:red>
                           <xmpG:green>77</xmpG:green>
                           <xmpG:blue>77</xmpG:blue>
                        </rdf:li>
                        <rdf:li rdf:parseType="Resource">
                           <xmpG:swatchName>R=102 G=102 B=102</xmpG:swatchName>
                           <xmpG:mode>RGB</xmpG:mode>
                           <xmpG:type>PROCESS</xmpG:type>
                           <xmpG:red>102</xmpG:red>
                           <xmpG:green>102</xmpG:green>
                           <xmpG:blue>102</xmpG:blue>
                        </rdf:li>
                        <rdf:li rdf:parseType="Resource">
                           <xmpG:swatchName>R=128 G=128 B=128</xmpG:swatchName>
                           <xmpG:mode>RGB</xmpG:mode>
                           <xmpG:type>PROCESS</xmpG:type>
                           <xmpG:red>128</xmpG:red>
                           <xmpG:green>128</xmpG:green>
                           <xmpG:blue>128</xmpG:blue>
                        </rdf:li>
                        <rdf:li rdf:parseType="Resource">
                           <xmpG:swatchName>R=153 G=153 B=153</xmpG:swatchName>
                           <xmpG:mode>RGB</xmpG:mode>
                           <xmpG:type>PROCESS</xmpG:type>
                           <xmpG:red>153</xmpG:red>
                           <xmpG:green>153</xmpG:green>
                           <xmpG:blue>153</xmpG:blue>
                        </rdf:li>
                        <rdf:li rdf:parseType="Resource">
                           <xmpG:swatchName>R=179 G=179 B=179</xmpG:swatchName>
                           <xmpG:mode>RGB</xmpG:mode>
                           <xmpG:type>PROCESS</xmpG:type>
                           <xmpG:red>179</xmpG:red>
                           <xmpG:green>179</xmpG:green>
                           <xmpG:blue>179</xmpG:blue>
                        </rdf:li>
                        <rdf:li rdf:parseType="Resource">
                           <xmpG:swatchName>R=204 G=204 B=204</xmpG:swatchName>
                           <xmpG:mode>RGB</xmpG:mode>
                           <xmpG:type>PROCESS</xmpG:type>
                           <xmpG:red>204</xmpG:red>
                           <xmpG:green>204</xmpG:green>
                           <xmpG:blue>204</xmpG:blue>
                        </rdf:li>
                        <rdf:li rdf:parseType="Resource">
                           <xmpG:swatchName>R=230 G=230 B=230</xmpG:swatchName>
                           <xmpG:mode>RGB</xmpG:mode>
                           <xmpG:type>PROCESS</xmpG:type>
                           <xmpG:red>230</xmpG:red>
                           <xmpG:green>230</xmpG:green>
                           <xmpG:blue>230</xmpG:blue>
                        </rdf:li>
                        <rdf:li rdf:parseType="Resource">
                           <xmpG:swatchName>R=242 G=242 B=242</xmpG:swatchName>
                           <xmpG:mode>RGB</xmpG:mode>
                           <xmpG:type>PROCESS</xmpG:type>
                           <xmpG:red>242</xmpG:red>
                           <xmpG:green>242</xmpG:green>
                           <xmpG:blue>242</xmpG:blue>
                        </rdf:li>
                     </rdf:Seq>
                  </xmpG:Colorants>
               </rdf:li>
            </rdf:Seq>
         </xmpTPg:SwatchGroups>
         <pdf:Producer>Adobe PDF library 17.00</pdf:Producer>
         <pdfx:CreatorVersion>21.0.0</pdfx:CreatorVersion>
         <photoshop:AuthorsPosition>Графический дизайнер</photoshop:AuthorsPosition>
         <xmpRights:Marked>True</xmpRights:Marked>
      </rdf:Description>
   </rdf:RDF>
</x:xmpmeta>





















<?xpacket end="w"?>
  </metadata>
</svg>
