<?xml version="1.0" encoding="UTF-8"?>
<svg id="logo" xmlns="http://www.w3.org/2000/svg" viewBox="0 0 480 320">
  <g>
    <rect x="39.06" y="204.1" width="52.28" height="130.41" transform="translate(334.51 204.1) rotate(90)" fill="#fff"/>
    <rect x="47.17" y="168.44" width="36.06" height="130.39" transform="translate(298.84 168.44) rotate(90)"/>
    <rect x="48.58" y="238.18" width="33.24" height="130.39" transform="translate(368.58 238.18) rotate(90)"/>
    <g>
      <path d="M18.4,245.35h-2.95v-14.3h2.95v14.3Z" fill="#fff"/>
      <path d="M29.53,239.5h-5.66v5.85h-2.95v-14.3h9.31v2.39h-6.37v3.69h5.66v2.38Z" fill="#fff"/>
      <path d="M41.49,237.49l2.98-6.44h3.22l-4.7,9.12v5.19h-3v-5.19l-4.7-9.12h3.23l2.96,6.44Z" fill="#fff"/>
      <path d="M60.26,238.52c0,1.41-.25,2.64-.75,3.7-.5,1.06-1.21,1.88-2.14,2.46s-1.99.86-3.19.86-2.24-.29-3.17-.85c-.93-.57-1.65-1.38-2.16-2.44s-.77-2.27-.78-3.65v-.71c0-1.41.25-2.65.76-3.72.51-1.07,1.22-1.89,2.15-2.47.93-.57,1.99-.86,3.18-.86s2.25.29,3.18.86c.93.57,1.64,1.39,2.15,2.47s.76,2.31.76,3.71v.64ZM57.27,237.87c0-1.5-.27-2.64-.81-3.42s-1.3-1.17-2.3-1.17-1.75.38-2.29,1.15c-.54.77-.81,1.9-.82,3.38v.7c0,1.46.27,2.59.81,3.4s1.31,1.21,2.32,1.21,1.75-.39,2.28-1.16.8-1.91.81-3.39v-.7Z" fill="#fff"/>
      <path d="M73.03,231.04v9.42c0,1.57-.49,2.8-1.47,3.71s-2.32,1.37-4.01,1.37-3-.44-3.98-1.33-1.48-2.1-1.5-3.64v-9.53h2.95v9.44c0,.94.22,1.62.67,2.05.45.43,1.07.64,1.86.64,1.66,0,2.5-.87,2.52-2.61v-9.52h2.96Z" fill="#fff"/>
      <path d="M88.13,242.4h-5.17l-.98,2.95h-3.13l5.33-14.3h2.73l5.35,14.3h-3.13l-.99-2.95ZM83.76,240.01h3.58l-1.8-5.35-1.78,5.35Z" fill="#fff"/>
      <path d="M98.69,240.11h-2.35v5.24h-2.95v-14.3h5.32c1.69,0,2.99.38,3.91,1.13.92.75,1.38,1.82,1.38,3.19,0,.98-.21,1.79-.63,2.44-.42.65-1.06,1.17-1.92,1.56l3.09,5.85v.14h-3.16l-2.68-5.24ZM96.34,237.72h2.38c.74,0,1.31-.19,1.72-.57.41-.38.61-.9.61-1.56s-.19-1.21-.57-1.59-.97-.58-1.76-.58h-2.37v4.29Z" fill="#fff"/>
      <path d="M114.64,239.15h-5.66v3.83h6.64v2.37h-9.59v-14.3h9.57v2.39h-6.62v3.41h5.66v2.31Z" fill="#fff"/>
    </g>
    <g>
      <path d="M19.15,272.37h-1.82v7.55h-2.28v-20.63h4.11c1.31,0,2.32.54,3.03,1.63.71,1.09,1.06,2.62,1.06,4.6,0,1.41-.16,2.58-.49,3.52-.33.94-.82,1.69-1.49,2.25l2.4,8.43v.2h-2.45l-2.08-7.55ZM17.33,268.93h1.84c.57,0,1.02-.27,1.33-.81.31-.54.47-1.29.47-2.25s-.15-1.74-.44-2.29c-.3-.56-.75-.84-1.37-.84h-1.83v6.19Z" fill="#e68600"/>
      <path d="M31.5,270.98h-4.38v5.53h5.14v3.41h-7.42v-20.63h7.41v3.44h-5.13v4.92h4.38v3.33Z" fill="#e68600"/>
      <path d="M39.7,275.67h-4l-.76,4.25h-2.43l4.12-20.63h2.11l4.15,20.63h-2.43l-.77-4.25ZM36.31,272.23h2.77l-1.39-7.72-1.38,7.72Z" fill="#e68600"/>
      <path d="M43.77,279.92v-20.63h3.41c.97,0,1.84.41,2.61,1.23.77.82,1.37,1.98,1.8,3.49.43,1.51.65,3.22.65,5.13v.95c0,1.92-.21,3.62-.64,5.11s-1.02,2.65-1.79,3.47c-.77.82-1.64,1.24-2.61,1.25h-3.43ZM46.05,262.73v13.77h1.1c.89,0,1.57-.54,2.05-1.63s.71-2.64.72-4.66v-1.09c0-2.1-.23-3.69-.7-4.77-.47-1.08-1.15-1.62-2.05-1.62h-1.13Z" fill="#e68600"/>
      <path d="M56.16,279.92h-2.28v-20.63h2.28v20.63Z" fill="#e68600"/>
      <path d="M67.13,279.92h-2.28l-4.44-13.57v13.57h-2.28v-20.63h2.28l4.45,13.6v-13.6h2.27v20.63Z" fill="#e68600"/>
      <path d="M77.73,277.31c-.41.92-.99,1.63-1.74,2.13s-1.58.76-2.49.76c-.96,0-1.8-.39-2.52-1.17-.72-.78-1.28-1.91-1.67-3.39-.39-1.48-.59-3.23-.6-5.23v-1.4c0-2.06.19-3.84.56-5.35.37-1.51.91-2.66,1.61-3.46.7-.8,1.52-1.2,2.47-1.2,1.31,0,2.34.58,3.08,1.75.74,1.17,1.18,2.86,1.32,5.09h-2.22c-.1-1.18-.33-2.04-.67-2.59s-.83-.82-1.43-.82c-.78,0-1.37.54-1.77,1.63s-.61,2.7-.62,4.84v1.32c0,2.16.22,3.8.66,4.9.44,1.1,1.09,1.66,1.94,1.66s1.47-.34,1.83-1.02v-3.56h-2.08v-3.13h4.36v8.23Z" fill="#e68600"/>
      <path d="M91.02,262.73h-3.39v17.18h-2.28v-17.18h-3.35v-3.44h9.02v3.44Z" fill="#e68600"/>
      <path d="M101.18,279.92h-2.28v-8.84h-4.45v8.84h-2.28v-20.63h2.28v8.36h4.45v-8.36h2.28v20.63Z" fill="#e68600"/>
      <path d="M105.45,279.92h-2.28v-20.63h2.28v20.63Z" fill="#e68600"/>
      <path d="M113.15,274.51c0-.8-.15-1.42-.46-1.85s-.85-.88-1.64-1.36c-.79-.48-1.42-.95-1.88-1.41-1.26-1.27-1.89-2.97-1.89-5.11,0-1.11.17-2.11.51-2.98.34-.87.82-1.56,1.45-2.05s1.34-.74,2.13-.74,1.5.27,2.11.8c.62.53,1.1,1.29,1.44,2.26.34.97.51,2.08.51,3.32h-2.28c0-.94-.16-1.68-.48-2.2-.32-.52-.77-.79-1.35-.79s-.99.22-1.3.66c-.31.44-.46,1.02-.46,1.74,0,.67.18,1.23.54,1.69.36.45.9.88,1.6,1.28,1.3.73,2.24,1.63,2.84,2.71.59,1.08.89,2.42.89,4.02,0,1.79-.36,3.19-1.09,4.2-.73,1.01-1.7,1.52-2.93,1.52-.85,0-1.63-.29-2.33-.87s-1.23-1.38-1.6-2.39c-.37-1.01-.55-2.18-.55-3.51h2.29c0,2.28.73,3.41,2.19,3.41.54,0,.97-.21,1.27-.62s.46-.98.46-1.72Z" fill="#e68600"/>
    </g>
    <g>
      <path d="M19.03,298.32l2.17-4.69h2.35l-3.42,6.64v3.78h-2.18v-3.78l-3.42-6.64h2.35l2.15,4.69Z" fill="#fff"/>
      <path d="M32.69,299.07c0,1.03-.18,1.92-.54,2.7s-.88,1.37-1.56,1.79-1.45.63-2.32.63-1.63-.21-2.31-.62-1.2-1.01-1.57-1.78c-.37-.77-.56-1.66-.56-2.66v-.52c0-1.02.18-1.93.55-2.71s.89-1.38,1.57-1.8c.67-.42,1.45-.62,2.31-.62s1.64.21,2.31.62c.67.42,1.2,1.02,1.57,1.8s.55,1.68.55,2.7v.46ZM30.52,298.6c0-1.09-.2-1.92-.59-2.49-.39-.57-.95-.85-1.67-.85s-1.28.28-1.67.84-.59,1.38-.59,2.46v.51c0,1.06.2,1.89.59,2.48.39.59.95.88,1.69.88s1.27-.28,1.66-.85c.39-.57.58-1.39.59-2.47v-.51Z" fill="#fff"/>
      <path d="M41.99,293.63v6.86c0,1.14-.36,2.04-1.07,2.7-.71.66-1.69.99-2.92.99s-2.18-.32-2.9-.96c-.72-.64-1.08-1.53-1.09-2.65v-6.94h2.15v6.87c0,.68.16,1.18.49,1.49.33.31.78.47,1.36.47,1.21,0,1.82-.63,1.84-1.9v-6.93h2.15Z" fill="#fff"/>
      <path d="M55.28,300.57c-.08,1.12-.49,2-1.24,2.65-.75.64-1.73.96-2.95.96-1.34,0-2.39-.45-3.15-1.35-.77-.9-1.15-2.13-1.15-3.7v-.64c0-1,.18-1.88.53-2.65.35-.76.86-1.35,1.51-1.76.66-.41,1.42-.61,2.29-.61,1.2,0,2.17.32,2.9.96.73.64,1.16,1.55,1.27,2.71h-2.15c-.05-.67-.24-1.16-.56-1.46s-.81-.46-1.47-.46c-.72,0-1.25.26-1.61.77s-.54,1.31-.55,2.39v.79c0,1.13.17,1.95.51,2.47.34.52.88.78,1.61.78.66,0,1.16-.15,1.48-.45.33-.3.51-.77.56-1.41h2.15Z" fill="#fff"/>
      <path d="M62.42,301.9h-3.76l-.72,2.15h-2.28l3.88-10.42h1.99l3.9,10.42h-2.28l-.72-2.15ZM59.24,300.16h2.6l-1.31-3.9-1.29,3.9Z" fill="#fff"/>
      <path d="M74.72,304.04h-2.15l-4.18-6.85v6.85h-2.15v-10.42h2.15l4.18,6.87v-6.87h2.14v10.42Z" fill="#fff"/>
      <path d="M83.81,300.23h-1.71v3.81h-2.15v-10.42h3.87c1.23,0,2.18.27,2.85.82.67.55,1,1.32,1,2.33,0,.71-.15,1.3-.46,1.78s-.77.85-1.4,1.13l2.25,4.26v.1h-2.3l-1.95-3.81ZM82.1,298.49h1.73c.54,0,.96-.14,1.25-.41.3-.27.44-.65.44-1.13s-.14-.88-.42-1.16-.71-.42-1.28-.42h-1.72v3.13Z" fill="#fff"/>
      <path d="M95.42,299.53h-4.12v2.79h4.84v1.72h-6.98v-10.42h6.97v1.74h-4.82v2.48h4.12v1.68Z" fill="#fff"/>
      <path d="M103.13,301.9h-3.76l-.72,2.15h-2.28l3.88-10.42h1.99l3.9,10.42h-2.28l-.72-2.15ZM99.94,300.16h2.6l-1.31-3.9-1.29,3.9Z" fill="#fff"/>
      <path d="M106.96,304.04v-10.42h3.2c.92,0,1.73.21,2.46.62.72.41,1.29,1,1.69,1.76.41.76.61,1.62.61,2.59v.48c0,.97-.2,1.83-.6,2.58-.4.75-.96,1.34-1.68,1.75-.73.42-1.54.62-2.45.63h-3.23ZM109.1,295.36v6.95h1.04c.84,0,1.48-.27,1.92-.82.44-.55.67-1.33.68-2.35v-.55c0-1.06-.22-1.86-.66-2.41-.44-.55-1.08-.82-1.92-.82h-1.06Z" fill="#fff"/>
    </g>
  </g>
  <g>
    <path d="M230.54,186.94c-2.27,0-4.5-.45-6.61-1.33-.96-.41-1.87-.89-2.71-1.44h-119.03c-3.21,0-6.32-.87-9-2.51-2.76-1.69-4.98-4.16-6.42-7.13-1.2-2.5-1.82-5.23-1.84-8.14v-24.74c0-10.81,8.79-19.6,19.6-19.6h159.56c10.34,0,15.1,3.4,17.73,5.71,4.7,4.12,7.29,10.11,7.29,16.86,0,3.43-.78,6.71-2.31,9.77-1.29,2.57-3.19,5.05-5.82,7.59l-.21.2c.6,1.75.91,3.6.91,5.52,0,4.6-1.8,8.87-5.07,12.02-3.13,3.02-7.36,4.69-11.89,4.69-2,0-3.92-.31-5.71-.92-1.54.45-3.15.68-4.79.68h-14.19c-.65.43-1.34.82-2.06,1.16-2.27,1.07-4.77,1.61-7.41,1.61Z" fill="#fff"/>
    <path d="M276.2,134.15c-2.74-2.41-6.45-3.63-11.01-3.63-.38,0-.74.02-1.11.04h0s-159.56-.01-159.56-.01c-6.13,0-11.09,4.97-11.09,11.09v24.7c0,1.63.34,3.13.99,4.48.74,1.52,1.81,2.72,3.2,3.58,1.36.83,2.9,1.26,4.56,1.26h122.16c.73.89,1.69,1.6,2.87,2.1,1.07.45,2.19.67,3.32.67,1.38,0,2.66-.27,3.79-.8,1-.47,1.87-1.14,2.55-1.97h17.32c1.27,0,2.47-.26,3.58-.77.51-.24.98-.54,1.41-.86,1.5,1.23,3.39,1.89,5.51,1.89,2.36,0,4.43-.8,5.99-2.31,1.61-1.55,2.47-3.59,2.47-5.9,0-1.43-.33-2.76-.96-3.94v-3.26l.09-1.37c.05-.37.2-.82.75-1.35l2.01-1.91c1.93-1.87,3.28-3.61,4.14-5.31.93-1.86,1.41-3.86,1.41-5.95,0-5.47-2.39-8.71-4.39-10.47Z" fill="#fff"/>
    <g>
      <g>
        <path d="M134.89,154.33h-4.17l-.94,2.6h-1.35l3.8-9.95h1.15l3.81,9.95h-1.35l-.95-2.6ZM131.12,153.26h3.38l-1.7-4.66-1.69,4.66Z"/>
        <path d="M139.38,149.54l.03.82c.54-.64,1.27-.96,2.19-.96,1.03,0,1.74.4,2.11,1.19.25-.36.57-.64.96-.86s.86-.33,1.4-.33c1.62,0,2.45.86,2.47,2.58v4.96h-1.26v-4.88c0-.53-.12-.92-.36-1.19-.24-.26-.65-.39-1.22-.39-.47,0-.86.14-1.17.42-.31.28-.49.66-.54,1.13v4.91h-1.27v-4.85c0-1.08-.53-1.61-1.58-1.61-.83,0-1.4.35-1.7,1.06v5.4h-1.26v-7.4h1.2Z"/>
        <path d="M155.26,156.93h-1.31v-9.95h1.31v9.95Z"/>
        <path d="M162.36,147.75v1.79h1.38v.98h-1.38v4.59c0,.3.06.52.18.67s.33.22.63.22c.15,0,.35-.03.6-.08v1.02c-.33.09-.66.14-.97.14-.56,0-.99-.17-1.28-.51s-.43-.83-.43-1.46v-4.59h-1.35v-.98h1.35v-1.79h1.26Z"/>
        <path d="M168.15,157.07c-1,0-1.82-.33-2.45-.99-.63-.66-.94-1.54-.94-2.64v-.23c0-.73.14-1.39.42-1.97.28-.58.67-1.03,1.18-1.35.5-.33,1.05-.49,1.64-.49.96,0,1.71.32,2.24.95s.8,1.54.8,2.72v.53h-5.01c.02.73.23,1.32.64,1.77.41.45.93.67,1.56.67.45,0,.82-.09,1.13-.27s.58-.42.81-.72l.77.6c-.62.95-1.55,1.43-2.79,1.43ZM167.99,150.44c-.51,0-.94.19-1.29.56-.35.37-.56.89-.64,1.56h3.71v-.1c-.04-.64-.21-1.14-.52-1.49-.31-.35-.73-.53-1.26-.53Z"/>
        <path d="M176.66,154.97c0-.34-.13-.61-.39-.8-.26-.19-.71-.35-1.35-.49s-1.15-.3-1.52-.49-.65-.42-.83-.68-.27-.58-.27-.94c0-.61.26-1.12.77-1.54s1.17-.63,1.97-.63c.84,0,1.52.22,2.04.65s.78.99.78,1.66h-1.27c0-.35-.15-.64-.44-.9s-.66-.38-1.11-.38-.82.1-1.08.3-.39.46-.39.79c0,.31.12.54.36.69s.68.3,1.31.44,1.14.31,1.53.51.68.43.87.71c.19.28.28.61.28,1.01,0,.66-.26,1.19-.79,1.59-.53.4-1.21.6-2.06.6-.59,0-1.12-.1-1.57-.31s-.81-.5-1.07-.88c-.26-.38-.39-.78-.39-1.22h1.26c.02.42.19.76.51,1.01.32.25.73.37,1.25.37.48,0,.86-.1,1.15-.29.29-.19.43-.45.43-.78Z"/>
        <path d="M181.15,147.75v1.79h1.38v.98h-1.38v4.59c0,.3.06.52.18.67s.33.22.63.22c.15,0,.35-.03.6-.08v1.02c-.33.09-.66.14-.97.14-.56,0-.99-.17-1.28-.51s-.43-.83-.43-1.46v-4.59h-1.35v-.98h1.35v-1.79h1.26Z"/>
        <path d="M183.87,147.57c0-.21.06-.38.19-.52s.31-.21.56-.21.43.07.56.21.19.31.19.52-.06.38-.19.51-.31.21-.56.21-.43-.07-.56-.21-.19-.31-.19-.51ZM185.24,156.93h-1.26v-7.4h1.26v7.4Z"/>
        <path d="M188.32,149.54l.04.93c.56-.71,1.3-1.07,2.21-1.07,1.56,0,2.35.88,2.37,2.65v4.89h-1.26v-4.89c0-.53-.13-.93-.37-1.18s-.61-.38-1.12-.38c-.41,0-.77.11-1.08.33s-.55.51-.72.86v5.27h-1.26v-7.4h1.2Z"/>
        <path d="M194.41,153.17c0-1.15.27-2.07.8-2.75.53-.68,1.24-1.02,2.12-1.02s1.61.32,2.11.96l.06-.82h1.16v7.22c0,.96-.28,1.71-.85,2.26s-1.33.83-2.29.83c-.53,0-1.06-.11-1.57-.34s-.9-.54-1.17-.94l.66-.76c.54.67,1.21,1,1.99,1,.62,0,1.09-.17,1.44-.52s.52-.83.52-1.46v-.64c-.51.58-1.2.88-2.07.88s-1.57-.35-2.1-1.05-.8-1.65-.8-2.85ZM195.68,153.32c0,.83.17,1.49.51,1.97.34.48.82.71,1.44.71.8,0,1.38-.36,1.76-1.09v-3.38c-.39-.71-.97-1.06-1.74-1.06-.62,0-1.1.24-1.44.72s-.52,1.19-.52,2.13Z"/>
        <path d="M207.46,147.75v1.79h1.38v.98h-1.38v4.59c0,.3.06.52.18.67s.33.22.63.22c.15,0,.35-.03.6-.08v1.02c-.33.09-.66.14-.97.14-.56,0-.99-.17-1.28-.51s-.43-.83-.43-1.46v-4.59h-1.35v-.98h1.35v-1.79h1.26Z"/>
        <path d="M211.45,150.43c.56-.69,1.29-1.03,2.19-1.03,1.56,0,2.35.88,2.37,2.65v4.89h-1.26v-4.89c0-.53-.13-.93-.37-1.18s-.61-.38-1.12-.38c-.41,0-.77.11-1.08.33s-.55.51-.72.86v5.27h-1.26v-10.5h1.26v4Z"/>
        <path d="M220.82,157.07c-1,0-1.82-.33-2.45-.99-.63-.66-.94-1.54-.94-2.64v-.23c0-.73.14-1.39.42-1.97.28-.58.67-1.03,1.18-1.35.5-.33,1.05-.49,1.64-.49.96,0,1.71.32,2.24.95s.8,1.54.8,2.72v.53h-5.01c.02.73.23,1.32.64,1.77.41.45.93.67,1.56.67.45,0,.82-.09,1.13-.27s.58-.42.81-.72l.77.6c-.62.95-1.55,1.43-2.79,1.43ZM220.66,150.44c-.51,0-.94.19-1.29.56-.35.37-.56.89-.64,1.56h3.71v-.1c-.04-.64-.21-1.14-.52-1.49-.31-.35-.73-.53-1.26-.53Z"/>
        <path d="M231.32,156.04c.45,0,.85-.14,1.18-.41s.52-.62.56-1.03h1.2c-.02.42-.17.83-.44,1.21s-.63.69-1.08.92-.92.34-1.43.34c-1.01,0-1.81-.34-2.4-1.01-.59-.67-.89-1.59-.89-2.76v-.21c0-.72.13-1.36.4-1.92s.64-1,1.14-1.31,1.08-.46,1.75-.46c.83,0,1.52.25,2.07.75s.84,1.14.88,1.93h-1.2c-.04-.48-.22-.87-.54-1.18-.33-.31-.73-.46-1.21-.46-.64,0-1.14.23-1.49.69-.35.46-.53,1.13-.53,2.01v.24c0,.85.18,1.51.53,1.97s.85.69,1.5.69Z"/>
        <path d="M235.21,153.17c0-.72.14-1.38.43-1.96s.68-1.03,1.19-1.34,1.09-.47,1.74-.47c1.01,0,1.82.35,2.44,1.05s.93,1.62.93,2.78v.09c0,.72-.14,1.37-.41,1.94-.28.57-.67,1.02-1.18,1.34s-1.1.48-1.77.48c-1,0-1.81-.35-2.44-1.05s-.93-1.62-.93-2.77v-.09ZM236.48,153.32c0,.82.19,1.48.57,1.98s.89.75,1.53.75,1.15-.25,1.53-.75c.38-.5.57-1.21.57-2.12,0-.81-.19-1.47-.58-1.97-.39-.5-.9-.76-1.53-.76s-1.13.25-1.51.75-.57,1.21-.57,2.13Z"/>
        <path d="M243.08,153.17c0-1.13.27-2.05.81-2.74.54-.69,1.24-1.04,2.11-1.04s1.55.3,2.06.89v-3.86h1.26v10.5h-1.16l-.06-.79c-.51.62-1.21.93-2.11.93s-1.56-.35-2.1-1.05-.81-1.62-.81-2.75v-.1ZM244.34,153.32c0,.84.17,1.5.52,1.97s.82.71,1.44.71c.8,0,1.39-.36,1.76-1.08v-3.4c-.38-.7-.96-1.05-1.74-1.05-.62,0-1.1.24-1.45.72s-.52,1.19-.52,2.13Z"/>
        <path d="M254.21,157.07c-1,0-1.82-.33-2.45-.99-.63-.66-.94-1.54-.94-2.64v-.23c0-.73.14-1.39.42-1.97.28-.58.67-1.03,1.18-1.35.5-.33,1.05-.49,1.64-.49.96,0,1.71.32,2.24.95s.8,1.54.8,2.72v.53h-5.01c.02.73.23,1.32.64,1.77.41.45.93.67,1.56.67.45,0,.82-.09,1.13-.27s.58-.42.81-.72l.77.6c-.62.95-1.55,1.43-2.79,1.43ZM254.05,150.44c-.51,0-.94.19-1.29.56-.35.37-.56.89-.64,1.56h3.71v-.1c-.04-.64-.21-1.14-.52-1.49-.31-.35-.73-.53-1.26-.53Z"/>
      </g>
      <g>
        <path d="M106.41,166.27c0,.98-.17,1.84-.52,2.58s-.84,1.31-1.49,1.71-1.38.6-2.22.6-1.56-.2-2.21-.59-1.15-.96-1.5-1.7c-.36-.74-.54-1.58-.54-2.54v-.49c0-.98.18-1.84.53-2.59.35-.75.85-1.32,1.5-1.72.65-.4,1.38-.6,2.21-.6s1.57.2,2.21.6c.65.4,1.14.97,1.5,1.72.35.74.53,1.6.53,2.58v.44ZM104.33,165.82c0-1.04-.19-1.84-.56-2.38s-.91-.81-1.6-.81-1.22.27-1.59.8c-.37.54-.56,1.32-.57,2.36v.49c0,1.02.19,1.8.56,2.37s.91.84,1.61.84,1.22-.27,1.59-.81c.37-.54.56-1.33.56-2.36v-.49Z" fill="#e68600"/>
        <path d="M111.79,165.48c-.27-.04-.51-.05-.71-.05-.75,0-1.24.25-1.47.76v4.84h-1.98v-7.4h1.87l.05.88c.4-.68.95-1.02,1.65-1.02.22,0,.42.03.62.09l-.03,1.9Z" fill="#e68600"/>
        <path d="M115.93,161.71c0-.3.1-.54.3-.73s.47-.29.81-.29.61.1.81.29.3.44.3.73-.1.55-.3.74-.47.29-.8.29-.6-.1-.8-.29-.3-.44-.3-.74ZM118.03,171.02h-1.98v-7.4h1.98v7.4Z" fill="#e68600"/>
        <path d="M121.88,161.8v1.82h1.26v1.45h-1.26v3.69c0,.27.05.47.16.59s.31.18.6.18c.22,0,.41-.02.58-.05v1.5c-.39.12-.79.18-1.2.18-1.39,0-2.09-.7-2.12-2.1v-3.99h-1.08v-1.45h1.08v-1.82h1.98Z" fill="#e68600"/>
        <path d="M124.84,164.12l-.93-.54c.39-.62.59-1.25.61-1.91v-1.16h1.57v1.06c0,.41-.11.85-.34,1.33s-.53.88-.91,1.21Z" fill="#e68600"/>
        <path d="M129.76,168.98c0-.24-.12-.43-.36-.57-.24-.14-.62-.26-1.15-.37-1.76-.37-2.64-1.12-2.64-2.24,0-.66.27-1.2.82-1.64.54-.44,1.26-.66,2.14-.66.94,0,1.69.22,2.25.66s.84,1.02.84,1.72h-1.98c0-.28-.09-.52-.27-.7-.18-.19-.47-.28-.85-.28-.33,0-.59.08-.77.23s-.27.34-.27.57c0,.22.1.4.31.53.21.13.56.25,1.05.35.49.1.91.21,1.24.33,1.04.38,1.57,1.05,1.57,1.99,0,.67-.29,1.22-.87,1.64-.58.42-1.33.62-2.24.62-.62,0-1.17-.11-1.65-.33-.48-.22-.86-.52-1.13-.91-.27-.39-.41-.8-.41-1.25h1.87c.02.35.15.62.39.81s.56.28.97.28c.38,0,.66-.07.86-.22.19-.14.29-.33.29-.56Z" fill="#e68600"/>
        <path d="M138.53,161.8v1.82h1.26v1.45h-1.26v3.69c0,.27.05.47.16.59s.31.18.6.18c.22,0,.41-.02.58-.05v1.5c-.39.12-.79.18-1.2.18-1.39,0-2.09-.7-2.12-2.1v-3.99h-1.08v-1.45h1.08v-1.82h1.98Z" fill="#e68600"/>
        <path d="M142.68,164.43c.52-.63,1.18-.94,1.98-.94,1.6,0,2.42.93,2.44,2.8v4.74h-1.98v-4.68c0-.42-.09-.74-.27-.94-.18-.2-.49-.3-.91-.3-.58,0-1,.22-1.26.67v5.26h-1.98v-10.5h1.98v3.91Z" fill="#e68600"/>
        <path d="M151.85,171.16c-1.08,0-1.97-.33-2.65-1s-1.02-1.55-1.02-2.66v-.19c0-.74.14-1.41.43-1.99.29-.58.69-1.04,1.22-1.35.53-.32,1.13-.47,1.8-.47,1.01,0,1.81.32,2.39.96s.87,1.54.87,2.71v.81h-4.71c.06.48.26.87.58,1.16s.73.44,1.22.44c.76,0,1.36-.28,1.78-.83l.97,1.09c-.3.42-.7.75-1.2.98-.51.23-1.07.35-1.68.35ZM151.62,165.08c-.39,0-.71.13-.95.4s-.4.65-.47,1.14h2.75v-.16c0-.44-.13-.78-.36-1.02s-.55-.36-.97-.36Z" fill="#e68600"/>
        <path d="M162.29,169.56c.36,0,.66-.1.89-.3s.35-.47.36-.8h1.85c0,.5-.14.96-.41,1.38-.27.42-.64.74-1.1.97-.47.23-.98.35-1.55.35-1.06,0-1.89-.34-2.5-1.01-.61-.67-.92-1.6-.92-2.79v-.13c0-1.14.3-2.05.91-2.73s1.44-1.02,2.5-1.02c.93,0,1.67.26,2.23.79.56.53.84,1.23.85,2.1h-1.85c0-.38-.13-.7-.36-.94-.23-.24-.53-.36-.9-.36-.46,0-.81.17-1.04.5-.23.34-.35.88-.35,1.63v.21c0,.76.12,1.31.35,1.64s.59.5,1.06.5Z" fill="#e68600"/>
        <path d="M166.07,167.25c0-.73.14-1.39.42-1.96s.69-1.02,1.22-1.33,1.15-.47,1.85-.47c1,0,1.81.31,2.44.92s.98,1.44,1.06,2.49v.51c.01,1.13-.3,2.04-.94,2.73-.63.69-1.48,1.03-2.55,1.03s-1.92-.34-2.55-1.03-.95-1.61-.95-2.79v-.09ZM168.05,167.39c0,.7.13,1.24.4,1.61s.64.56,1.13.56.85-.18,1.12-.55c.27-.37.4-.96.4-1.76,0-.69-.13-1.22-.4-1.6s-.65-.57-1.13-.57-.86.19-1.12.56c-.26.38-.4.96-.4,1.75Z" fill="#e68600"/>
        <path d="M173.85,167.27c0-1.15.26-2.07.78-2.75s1.22-1.03,2.12-1.03c.72,0,1.31.27,1.78.81v-3.77h1.98v10.5h-1.78l-.1-.79c-.49.62-1.13.92-1.9.92-.87,0-1.57-.34-2.1-1.03-.53-.69-.79-1.64-.79-2.86ZM175.82,167.41c0,.69.12,1.23.36,1.59.24.37.59.55,1.05.55.61,0,1.04-.26,1.29-.77v-2.92c-.25-.52-.67-.77-1.28-.77-.95,0-1.43.77-1.43,2.32Z" fill="#e68600"/>
        <path d="M185.31,171.16c-1.08,0-1.97-.33-2.65-1s-1.02-1.55-1.02-2.66v-.19c0-.74.14-1.41.43-1.99.29-.58.69-1.04,1.22-1.35.53-.32,1.13-.47,1.8-.47,1.01,0,1.81.32,2.39.96s.87,1.54.87,2.71v.81h-4.71c.06.48.26.87.58,1.16s.73.44,1.22.44c.76,0,1.36-.28,1.78-.83l.97,1.09c-.3.42-.7.75-1.2.98-.51.23-1.07.35-1.68.35ZM185.08,165.08c-.39,0-.71.13-.95.4s-.4.65-.47,1.14h2.75v-.16c0-.44-.13-.78-.36-1.02s-.55-.36-.97-.36Z" fill="#e68600"/>
        <path d="M195.04,161.8v1.82h1.26v1.45h-1.26v3.69c0,.27.05.47.16.59s.31.18.6.18c.22,0,.41-.02.58-.05v1.5c-.39.12-.79.18-1.2.18-1.39,0-2.09-.7-2.12-2.1v-3.99h-1.08v-1.45h1.08v-1.82h1.98Z" fill="#e68600"/>
        <path d="M200.67,171.16c-1.08,0-1.97-.33-2.65-1s-1.02-1.55-1.02-2.66v-.19c0-.74.14-1.41.43-1.99.29-.58.69-1.04,1.22-1.35.53-.32,1.13-.47,1.8-.47,1.01,0,1.81.32,2.39.96s.87,1.54.87,2.71v.81h-4.71c.06.48.26.87.58,1.16s.73.44,1.22.44c.76,0,1.36-.28,1.78-.83l.97,1.09c-.3.42-.7.75-1.2.98-.51.23-1.07.35-1.68.35ZM200.45,165.08c-.39,0-.71.13-.95.4s-.4.65-.47,1.14h2.75v-.16c0-.44-.13-.78-.36-1.02s-.55-.36-.97-.36Z" fill="#e68600"/>
        <path d="M208.7,168.98c0-.24-.12-.43-.36-.57-.24-.14-.62-.26-1.15-.37-1.76-.37-2.64-1.12-2.64-2.24,0-.66.27-1.2.82-1.64.54-.44,1.26-.66,2.14-.66.94,0,1.69.22,2.25.66s.84,1.02.84,1.72h-1.98c0-.28-.09-.52-.27-.7-.18-.19-.47-.28-.85-.28-.33,0-.59.08-.77.23s-.27.34-.27.57c0,.22.1.4.31.53.21.13.56.25,1.05.35.49.1.91.21,1.24.33,1.04.38,1.57,1.05,1.57,1.99,0,.67-.29,1.22-.87,1.64-.58.42-1.33.62-2.24.62-.62,0-1.17-.11-1.65-.33-.48-.22-.86-.52-1.13-.91-.27-.39-.41-.8-.41-1.25h1.87c.02.35.15.62.39.81s.56.28.97.28c.38,0,.66-.07.86-.22.19-.14.29-.33.29-.56Z" fill="#e68600"/>
        <path d="M214.12,161.8v1.82h1.26v1.45h-1.26v3.69c0,.27.05.47.16.59s.31.18.6.18c.22,0,.41-.02.58-.05v1.5c-.39.12-.79.18-1.2.18-1.39,0-2.09-.7-2.12-2.1v-3.99h-1.08v-1.45h1.08v-1.82h1.98Z" fill="#e68600"/>
        <path d="M216.33,161.71c0-.3.1-.54.3-.73s.47-.29.81-.29.61.1.81.29.3.44.3.73-.1.55-.3.74-.47.29-.8.29-.6-.1-.8-.29-.3-.44-.3-.74ZM218.43,171.02h-1.98v-7.4h1.98v7.4Z" fill="#e68600"/>
        <path d="M221.73,163.62l.06.85c.53-.66,1.24-.99,2.13-.99.78,0,1.37.23,1.75.69s.58,1.15.59,2.06v4.78h-1.98v-4.73c0-.42-.09-.72-.27-.91-.18-.19-.49-.28-.91-.28-.56,0-.97.24-1.25.71v5.22h-1.98v-7.4h1.86Z" fill="#e68600"/>
        <path d="M227.33,167.27c0-1.13.27-2.05.81-2.74s1.27-1.04,2.18-1.04c.81,0,1.44.28,1.89.83l.08-.7h1.79v7.15c0,.65-.15,1.21-.44,1.69s-.71.84-1.24,1.09-1.16.38-1.87.38c-.54,0-1.07-.11-1.59-.32-.52-.22-.9-.5-1.17-.84l.88-1.2c.49.55,1.09.83,1.79.83.52,0,.93-.14,1.22-.42.29-.28.44-.68.44-1.19v-.4c-.46.51-1.06.77-1.8.77-.89,0-1.61-.35-2.16-1.04-.55-.69-.82-1.62-.82-2.76v-.08ZM229.3,167.41c0,.67.13,1.2.4,1.58.27.38.64.57,1.11.57.6,0,1.03-.23,1.29-.68v-3.12c-.26-.45-.69-.68-1.28-.68-.47,0-.85.19-1.12.58s-.41.97-.41,1.74Z" fill="#e68600"/>
        <path d="M240.67,163.62l.06.83c.52-.64,1.23-.96,2.13-.96.95,0,1.61.38,1.96,1.13.52-.75,1.26-1.13,2.22-1.13.8,0,1.4.23,1.79.7.39.47.59,1.17.59,2.11v4.72h-1.98v-4.72c0-.42-.08-.73-.25-.92-.16-.19-.45-.29-.87-.29-.59,0-1,.28-1.23.85v5.08s-1.97,0-1.97,0v-4.71c0-.43-.08-.74-.25-.93s-.46-.29-.86-.29c-.56,0-.97.23-1.22.7v5.23h-1.98v-7.4h1.85Z" fill="#e68600"/>
        <path d="M254.2,171.16c-1.08,0-1.97-.33-2.65-1s-1.02-1.55-1.02-2.66v-.19c0-.74.14-1.41.43-1.99.29-.58.69-1.04,1.22-1.35.53-.32,1.13-.47,1.8-.47,1.01,0,1.81.32,2.39.96s.87,1.54.87,2.71v.81h-4.71c.06.48.26.87.58,1.16s.73.44,1.22.44c.76,0,1.36-.28,1.78-.83l.97,1.09c-.3.42-.7.75-1.2.98-.51.23-1.07.35-1.68.35ZM253.97,165.08c-.39,0-.71.13-.95.4s-.4.65-.47,1.14h2.75v-.16c0-.44-.13-.78-.36-1.02s-.55-.36-.97-.36Z" fill="#e68600"/>
      </g>
      <path d="M261.45,160.21c0-2.28.28-4.1.83-5.46.55-1.35,1.57-2.69,3.04-4,1.47-1.31,2.46-2.38,2.95-3.21.49-.83.73-1.69.73-2.61,0-2.76-1.27-4.14-3.81-4.14-1.21,0-2.17.37-2.9,1.12-.73.74-1.1,1.77-1.14,3.08h-7.09c.03-3.12,1.04-5.55,3.02-7.32,1.98-1.76,4.68-2.64,8.1-2.64s6.14.84,8.04,2.51c1.91,1.67,2.86,4.03,2.86,7.08,0,1.39-.31,2.7-.93,3.93-.62,1.23-1.7,2.6-3.25,4.1l-1.98,1.88c-1.24,1.19-1.95,2.59-2.13,4.18l-.1,1.49h-6.26ZM260.74,167.7c0-1.09.37-1.99,1.11-2.69.74-.71,1.69-1.06,2.85-1.06s2.11.35,2.85,1.06c.74.71,1.11,1.6,1.11,2.69s-.36,1.96-1.09,2.66c-.73.7-1.68,1.05-2.87,1.05s-2.15-.35-2.87-1.05c-.73-.7-1.09-1.58-1.09-2.66Z" fill="#e68600"/>
    </g>
  </g>
  <g>
    <rect x="100.2" y="-56.6" width="102.05" height="215.43" transform="translate(202.34 -100.1) rotate(90)" fill="#fff"/>
    <rect x="52.01" y="8.6" width="198.43" height="85.04" fill="#fff"/>
    <rect x="147.63" y="47.45" width="111.31" height="27.4"/>
    <g>
      <path d="M84.19,40.28h-3.57l-.8,2.23h-1.16l3.26-8.53h.98l3.26,8.53h-1.15l-.81-2.23ZM80.95,39.36h2.9l-1.45-3.99-1.45,3.99Z"/>
      <path d="M92.32,36.17v6.34h-1.09v-5.44h-2.16l-.13,2.37c-.07,1.09-.25,1.87-.55,2.34s-.76.71-1.4.73h-.43v-.96l.31-.02c.35-.04.6-.24.76-.61s.25-1.05.29-2.04l.12-2.71h4.28Z"/>
      <path d="M99.13,36.17v6.34h-1.09v-5.44h-2.16l-.13,2.37c-.07,1.09-.25,1.87-.55,2.34s-.76.71-1.4.73h-.43v-.96l.31-.02c.35-.04.6-.24.76-.61s.25-1.05.29-2.04l.12-2.71h4.28Z"/>
      <path d="M100.47,39.28c0-.62.12-1.18.37-1.68s.58-.88,1.02-1.15.93-.4,1.49-.4c.86,0,1.56.3,2.09.9s.8,1.39.8,2.38v.08c0,.62-.12,1.17-.35,1.66s-.57.87-1.01,1.15-.94.41-1.51.41c-.86,0-1.56-.3-2.09-.9s-.8-1.39-.8-2.37v-.08ZM101.56,39.41c0,.7.16,1.27.49,1.69s.76.64,1.31.64.99-.22,1.31-.65.49-1.04.49-1.81c0-.7-.17-1.26-.5-1.69s-.77-.65-1.32-.65-.97.21-1.29.64-.49,1.04-.49,1.83Z"/>
      <path d="M107.44,44.21l-.62-.42c.37-.51.56-1.04.57-1.58v-.98h1.06v.85c0,.39-.1.79-.29,1.18s-.44.71-.73.95Z"/>
      <path d="M117.75,42.51h-1.08v-5.44h-2.92v5.44h-1.09v-6.34h5.09v6.34Z"/>
      <path d="M124.73,39.41c0,.96-.22,1.74-.66,2.33s-1.04.88-1.79.88-1.38-.24-1.82-.73v3.05h-1.08v-8.78h.99l.05.7c.44-.55,1.05-.82,1.84-.82s1.36.29,1.81.86.67,1.37.67,2.4v.1ZM123.64,39.29c0-.71-.15-1.28-.46-1.69s-.72-.62-1.25-.62c-.66,0-1.15.29-1.48.87v3.03c.32.58.82.87,1.49.87.52,0,.93-.21,1.24-.62s.46-1.02.46-1.84Z"/>
      <path d="M125.7,39.28c0-.62.12-1.18.37-1.68s.58-.88,1.02-1.15.93-.4,1.49-.4c.86,0,1.56.3,2.09.9s.8,1.39.8,2.38v.08c0,.62-.12,1.17-.35,1.66s-.57.87-1.01,1.15-.94.41-1.51.41c-.86,0-1.56-.3-2.09-.9s-.8-1.39-.8-2.37v-.08ZM126.79,39.41c0,.7.16,1.27.49,1.69s.76.64,1.31.64.99-.22,1.31-.65.49-1.04.49-1.81c0-.7-.17-1.26-.5-1.69s-.77-.65-1.32-.65-.97.21-1.29.64-.49,1.04-.49,1.83Z"/>
      <path d="M136.8,37.07h-2.92v5.44h-1.09v-6.34h4.01v.9Z"/>
      <path d="M142.98,39.41c0,.96-.22,1.74-.66,2.33s-1.04.88-1.79.88-1.38-.24-1.82-.73v3.05h-1.08v-8.78h.99l.05.7c.44-.55,1.05-.82,1.84-.82s1.36.29,1.81.86.67,1.37.67,2.4v.1ZM141.89,39.29c0-.71-.15-1.28-.46-1.69s-.72-.62-1.25-.62c-.66,0-1.15.29-1.48.87v3.03c.32.58.82.87,1.49.87.52,0,.93-.21,1.24-.62s.46-1.02.46-1.84Z"/>
      <path d="M148.15,42.51c-.06-.12-.11-.35-.15-.67-.5.52-1.11.79-1.8.79-.62,0-1.14-.18-1.54-.53s-.6-.8-.6-1.34c0-.66.25-1.17.75-1.54s1.21-.55,2.12-.55h1.05v-.5c0-.38-.11-.68-.34-.91s-.56-.34-1-.34c-.39,0-.71.1-.97.29s-.39.43-.39.71h-1.09c0-.32.11-.62.34-.92s.53-.53.91-.7.81-.26,1.27-.26c.73,0,1.3.18,1.72.55s.63.87.64,1.51v2.92c0,.58.07,1.04.22,1.39v.09h-1.14ZM146.35,41.68c.34,0,.66-.09.97-.26s.53-.4.66-.69v-1.3h-.85c-1.33,0-1.99.39-1.99,1.17,0,.34.11.61.34.8s.52.29.87.29Z"/>
      <path d="M154.29,41.07l2.16-4.9h1.35v6.34h-1.08v-4.61l-2.05,4.61h-.75l-2.09-4.71v4.71h-1.08v-6.34h1.41l2.14,4.9Z"/>
      <path d="M163.07,41.07l2.16-4.9h1.35v6.34h-1.08v-4.61l-2.05,4.61h-.75l-2.09-4.71v4.71h-1.08v-6.34h1.41l2.14,4.9Z"/>
      <path d="M172.3,36.17h1.08v6.34h-1.08v-4.62l-2.92,4.62h-1.08v-6.34h1.08v4.63l2.92-4.63Z"/>
      <path d="M180.36,39.41c0,.96-.22,1.74-.66,2.33s-1.04.88-1.79.88-1.38-.24-1.82-.73v3.05h-1.08v-8.78h.99l.05.7c.44-.55,1.05-.82,1.84-.82s1.36.29,1.81.86.67,1.37.67,2.4v.1ZM179.28,39.29c0-.71-.15-1.28-.46-1.69s-.72-.62-1.25-.62c-.66,0-1.15.29-1.48.87v3.03c.32.58.82.87,1.49.87.52,0,.93-.21,1.24-.62s.46-1.02.46-1.84Z"/>
      <path d="M181.33,39.28c0-.62.12-1.18.37-1.68s.58-.88,1.02-1.15.93-.4,1.49-.4c.86,0,1.56.3,2.09.9s.8,1.39.8,2.38v.08c0,.62-.12,1.17-.35,1.66s-.57.87-1.01,1.15-.94.41-1.51.41c-.86,0-1.56-.3-2.09-.9s-.8-1.39-.8-2.37v-.08ZM182.42,39.41c0,.7.16,1.27.49,1.69s.76.64,1.31.64.99-.22,1.31-.65.49-1.04.49-1.81c0-.7-.17-1.26-.5-1.69s-.77-.65-1.32-.65-.97.21-1.29.64-.49,1.04-.49,1.83Z"/>
      <path d="M188.44,42.51v-6.34h2.47c.84,0,1.49.15,1.94.44s.68.73.68,1.3c0,.29-.09.56-.26.79s-.44.42-.78.54c.38.09.69.27.92.53s.35.57.35.94c0,.58-.21,1.03-.64,1.34s-1.03.46-1.81.46h-2.87ZM189.53,38.86h1.4c1.02,0,1.52-.3,1.52-.89s-.48-.9-1.44-.92h-1.48v1.81ZM189.53,39.73v1.91h1.79c.45,0,.79-.08,1.02-.25s.34-.4.34-.71c0-.63-.46-.95-1.39-.95h-1.75Z"/>
      <path d="M198.99,42.51c-.06-.12-.11-.35-.15-.67-.5.52-1.11.79-1.8.79-.62,0-1.14-.18-1.54-.53s-.6-.8-.6-1.34c0-.66.25-1.17.75-1.54s1.21-.55,2.12-.55h1.05v-.5c0-.38-.11-.68-.34-.91s-.56-.34-1-.34c-.39,0-.71.1-.97.29s-.39.43-.39.71h-1.09c0-.32.11-.62.34-.92s.53-.53.91-.7.81-.26,1.27-.26c.73,0,1.3.18,1.72.55s.63.87.64,1.51v2.92c0,.58.07,1.04.22,1.39v.09h-1.14ZM197.19,41.68c.34,0,.66-.09.97-.26s.53-.4.66-.69v-1.3h-.85c-1.33,0-1.99.39-1.99,1.17,0,.34.11.61.34.8s.52.29.87.29Z"/>
      <path d="M206.66,42.51h-1.08v-2.71h-2.91v2.71h-1.09v-6.34h1.09v2.75h2.91v-2.75h1.08v6.34Z"/>
      <path d="M212.39,36.17h1.08v6.34h-1.08v-4.62l-2.92,4.62h-1.08v-6.34h1.08v4.63l2.92-4.63Z"/>
      <path d="M217.72,42.63c-.86,0-1.56-.28-2.1-.85s-.81-1.32-.81-2.26v-.2c0-.63.12-1.19.36-1.68s.58-.88,1.01-1.16.9-.42,1.4-.42c.82,0,1.46.27,1.92.81s.69,1.32.69,2.33v.45h-4.29c.02.62.2,1.13.55,1.51s.79.58,1.33.58c.38,0,.71-.08.97-.23s.5-.36.7-.62l.66.52c-.53.82-1.33,1.22-2.39,1.22ZM217.59,36.94c-.44,0-.8.16-1.1.48s-.48.76-.55,1.34h3.18v-.08c-.03-.55-.18-.98-.45-1.28s-.62-.45-1.08-.45Z"/>
      <path d="M222.6,40.1c0-.46.06-.83.16-1.1.1-.27.3-.57.6-.9l.77-.79c.33-.37.49-.77.49-1.19s-.11-.73-.32-.96c-.21-.23-.53-.35-.94-.35s-.72.11-.96.32-.36.49-.36.85h-1.08c0-.63.23-1.14.68-1.53s1.02-.58,1.73-.58,1.31.2,1.73.59.62.94.62,1.63-.32,1.36-.95,2.02l-.64.63c-.29.32-.43.77-.43,1.36h-1.08ZM222.55,41.96c0-.18.05-.33.16-.45s.27-.18.48-.18.37.06.48.18.16.27.16.45-.05.32-.16.44-.27.17-.48.17-.37-.06-.48-.17-.16-.26-.16-.44Z"/>
    </g>
    <g>
      <path d="M90.18,70.24h-1.87v-3.49h-10.21v3.5h-1.88v-5.03s1.15,0,1.15,0c.61-.69,1.1-1.62,1.46-2.78s.59-2.44.68-3.82l.31-6.08h8.51v12.69h1.86l-.02,5.02ZM79.53,65.22h6.93v-11.15h-4.81l-.21,4.18c-.08,1.64-.3,3.03-.65,4.18-.35,1.15-.77,2.08-1.26,2.79Z" fill="#e68600"/>
      <path d="M100.24,63.03h-5.96l-1.34,3.72h-1.93l5.43-14.22h1.64l5.44,14.22h-1.92l-1.36-3.72ZM94.85,61.5h4.83l-2.42-6.65-2.41,6.65Z" fill="#e68600"/>
      <path d="M108.71,61.45h-4.77v-1.47h4.77v1.47Z" fill="#e68600"/>
      <path d="M123.34,70.24h-1.87v-3.49h-10.21v3.5h-1.88v-5.03s1.15,0,1.15,0c.61-.69,1.1-1.62,1.46-2.78s.59-2.44.68-3.82l.31-6.08h8.51v12.69h1.86l-.02,5.02ZM112.69,65.22h6.93v-11.15h-4.81l-.21,4.18c-.08,1.64-.3,3.03-.65,4.18s-.77,2.08-1.26,2.79Z" fill="#e68600"/>
      <path d="M133.4,63.03h-5.96l-1.34,3.72h-1.93l5.43-14.22h1.64l5.44,14.22h-1.92l-1.36-3.72ZM128.01,61.5h4.83l-2.42-6.65-2.41,6.65Z" fill="#e68600"/>
      <path d="M138.05,69.58l-1.03-.7c.61-.85.93-1.73.96-2.64v-1.63h1.77v1.42c0,.66-.16,1.32-.48,1.97s-.73,1.18-1.22,1.58Z" fill="#e68600"/>
      <path d="M156.17,58.35h-2.9v-1.41h4.62v8.39h2.92v1.42h-7.86v-1.42h3.22v-6.98ZM156.76,52.83c.19,0,.36.03.53.1.16.07.3.16.42.29.12.12.21.27.28.42s.1.33.1.52-.03.35-.1.52-.16.31-.28.43c-.12.12-.26.22-.42.29-.16.07-.34.1-.53.1s-.36-.03-.53-.1c-.16-.07-.3-.16-.42-.29-.12-.12-.21-.27-.28-.43s-.1-.33-.1-.52.03-.36.1-.52.16-.3.28-.42c.12-.12.26-.22.42-.29.16-.07.34-.1.53-.1Z" fill="#e68600"/>
      <path d="M172.33,54.53c-.89-.19-1.66-.28-2.3-.28-1.53,0-2.29.8-2.29,2.4v1.72h4.3v1.42h-4.3v6.96h-1.73v-6.96h-3.15v-1.42h3.15v-1.62c0-2.61,1.36-3.92,4.08-3.92.68,0,1.43.08,2.25.23v1.46Z" fill="#e68600"/>
      <path d="M193.5,61.33c0,.24,0,.44,0,.61,0,.16-.02.32-.03.46h-6.88c0,1,.28,1.77.84,2.31.56.54,1.37.81,2.42.81.29,0,.57-.01.86-.03.29-.02.56-.05.83-.09.27-.04.52-.08.77-.13s.47-.1.68-.16v1.4c-.46.13-.98.24-1.57.32-.58.08-1.19.12-1.81.12-.84,0-1.56-.11-2.17-.34s-1.1-.56-1.49-.99c-.39-.43-.67-.96-.86-1.59s-.28-1.34-.28-2.13c0-.69.1-1.34.3-1.96.2-.62.49-1.16.87-1.62s.85-.83,1.4-1.11c.55-.27,1.18-.41,1.88-.41s1.29.11,1.82.32.97.52,1.33.91.63.87.82,1.44.28,1.19.28,1.89ZM191.73,61.09c.02-.44-.02-.83-.13-1.2-.1-.36-.27-.67-.48-.93-.22-.26-.49-.46-.82-.61-.33-.15-.7-.22-1.13-.22-.37,0-.71.07-1.02.21-.31.14-.57.34-.79.61-.22.26-.4.57-.54.94s-.22.76-.25,1.2h5.16Z" fill="#e68600"/>
      <path d="M199.35,54.35h-2.9v-1.4h4.62v12.38h2.92v1.42h-7.86v-1.42h3.22v-10.99Z" fill="#e68600"/>
      <path d="M214.57,64.07c0,.34-.06.65-.18.93s-.28.52-.48.73c-.2.21-.44.39-.7.54-.27.15-.55.27-.85.37s-.61.17-.93.21c-.32.05-.63.07-.94.07-.66,0-1.27-.03-1.83-.09s-1.1-.15-1.64-.28v-1.56c.57.16,1.14.29,1.71.37s1.13.13,1.69.13c.81,0,1.42-.11,1.81-.33s.59-.54.59-.95c0-.18-.03-.33-.09-.47-.06-.14-.17-.27-.34-.4-.16-.13-.42-.26-.76-.4s-.81-.29-1.4-.47c-.44-.13-.85-.28-1.23-.44-.37-.17-.7-.36-.97-.59s-.49-.5-.64-.8-.23-.67-.23-1.08c0-.27.06-.57.19-.9s.34-.63.65-.91c.31-.28.72-.51,1.24-.7.52-.19,1.17-.28,1.95-.28.38,0,.81.02,1.28.06s.96.12,1.46.22v1.51c-.53-.13-1.04-.23-1.52-.29s-.89-.09-1.25-.09c-.42,0-.78.03-1.07.1-.29.07-.52.15-.7.27-.18.11-.31.25-.39.4s-.12.32-.12.49.03.33.1.48.2.28.38.42.44.27.78.4.76.28,1.3.43c.58.17,1.07.35,1.46.53.4.19.72.39.97.62.25.23.42.49.53.77s.16.61.16.98Z" fill="#e68600"/>
      <path d="M225.89,61.33c0,.24,0,.44,0,.61s-.02.32-.03.46h-6.88c0,1,.28,1.77.84,2.31s1.37.81,2.42.81c.29,0,.57-.01.86-.03s.56-.05.83-.09.52-.08.77-.13.47-.1.68-.16v1.4c-.46.13-.98.24-1.57.32s-1.19.12-1.81.12c-.84,0-1.56-.11-2.17-.34s-1.1-.56-1.49-.99-.67-.96-.86-1.59-.28-1.34-.28-2.13c0-.69.1-1.34.3-1.96s.49-1.16.87-1.62.85-.83,1.4-1.11,1.18-.41,1.88-.41,1.29.11,1.82.32.97.52,1.33.91.63.87.82,1.44.28,1.19.28,1.89ZM224.12,61.09c.02-.44-.02-.83-.13-1.2s-.27-.67-.48-.93-.49-.46-.82-.61-.7-.22-1.13-.22c-.37,0-.71.07-1.02.21s-.57.34-.79.61-.4.57-.54.94-.22.76-.25,1.2h5.16Z" fill="#e68600"/>
    </g>
  </g>
  <g>
    <path d="M365.98,76.26c-2.41,0-4.77-.24-7.04-.72h-41.45s0-8.31,0-8.31h-19v-28.33L321.91.69h37.03v.21c2.54-.6,5.2-.9,7.95-.9,4.5,0,8.8.84,12.77,2.5,2.72,1.14,5.22,2.65,7.46,4.53l3.89-6.35h37.02v25.81h6.19v40.73h-6.19v8.31h-41.45v-6.4c-1.94,1.6-4.07,2.95-6.38,4.04-4.32,2.04-9.1,3.08-14.23,3.08Z" fill="#fff"/>
    <path d="M419.53,35V9.19h-23.76l-7.87,12.83c-.91-2.05-2.01-3.87-3.3-5.46-2.25-2.79-5.02-4.88-8.23-6.22-2.93-1.22-6.12-1.84-9.49-1.84-3.83,0-7.38.75-10.55,2.24-2.2,1.03-4.17,2.39-5.9,4.05v-5.6h-23.76l-19.68,32.1v17.43h19v8.31h24.44v-5.03c1.79,1.66,3.82,2.97,6.05,3.91,2.93,1.22,6.12,1.84,9.49,1.84,3.86,0,7.42-.76,10.58-2.26,3.23-1.54,6-3.78,8.23-6.66.03-.04.05-.08.08-.12h10.22v8.31h24.44v-8.31h6.19v-23.72h-6.19Z" fill="#fff"/>
    <g>
      <g>
        <path d="M344.57,51.83v8.31h-7.44v-8.31h-19v-6.53l15.94-26h10.5v25.81h6.19v6.72h-6.19ZM337.22,26.67l-11.62,18.44h11.62v-18.44Z"/>
        <path d="M384.99,39.55c0,3.35-.36,6.35-1.09,9-.73,2.65-1.8,4.88-3.2,6.7-1.41,1.82-3.12,3.21-5.14,4.17-2.02.96-4.33,1.44-6.94,1.44-2.25,0-4.32-.4-6.22-1.19-1.9-.79-3.53-2.04-4.91-3.73-1.38-1.7-2.45-3.87-3.22-6.52-.77-2.65-1.16-5.81-1.16-9.5,0-3.35.37-6.35,1.11-9,.74-2.65,1.81-4.88,3.2-6.7,1.4-1.82,3.11-3.21,5.16-4.17,2.04-.96,4.35-1.44,6.94-1.44,2.25,0,4.32.4,6.22,1.19,1.9.79,3.53,2.03,4.89,3.72,1.36,1.69,2.43,3.85,3.2,6.5.77,2.65,1.16,5.82,1.16,9.53ZM360.8,39.67v1.17c0,.37.02.73.06,1.11l15.31-11.06c-.73-2.06-1.69-3.59-2.89-4.58-1.2-.99-2.61-1.48-4.23-1.48-1.17,0-2.25.3-3.25.89s-1.87,1.51-2.61,2.73c-.74,1.23-1.32,2.77-1.75,4.62-.43,1.85-.64,4.05-.64,6.59ZM377.3,39.8c0-.35-.01-.71-.03-1.08-.02-.36-.03-.71-.03-1.05l-15.22,11c.67,2.02,1.6,3.52,2.81,4.5,1.21.98,2.61,1.47,4.22,1.47,1.17,0,2.25-.3,3.27-.91,1.01-.6,1.89-1.52,2.62-2.73.74-1.22,1.32-2.76,1.73-4.62.42-1.86.62-4.06.62-6.58Z"/>
        <path d="M413.66,51.83v8.31h-7.44v-8.31h-19v-6.53l15.94-26h10.5v25.81h6.19v6.72h-6.19ZM406.32,26.67l-11.62,18.44h11.62v-18.44Z"/>
      </g>
      <g>
        <path d="M341.63,48.89v8.31h-7.44v-8.31h-19v-6.53l15.94-26h10.5v25.81h6.19v6.72h-6.19ZM334.28,23.73l-11.62,18.44h11.62v-18.44Z" fill="#e68600"/>
        <path d="M382.05,36.61c0,3.35-.36,6.35-1.09,9-.73,2.65-1.8,4.88-3.2,6.7-1.41,1.82-3.12,3.21-5.14,4.17-2.02.96-4.33,1.44-6.94,1.44-2.25,0-4.32-.4-6.22-1.19-1.9-.79-3.53-2.04-4.91-3.73-1.38-1.7-2.45-3.87-3.22-6.52-.77-2.65-1.16-5.81-1.16-9.5,0-3.35.37-6.35,1.11-9,.74-2.65,1.81-4.88,3.2-6.7,1.4-1.82,3.11-3.21,5.16-4.17,2.04-.96,4.35-1.44,6.94-1.44,2.25,0,4.32.4,6.22,1.19,1.9.79,3.53,2.03,4.89,3.72,1.36,1.69,2.43,3.85,3.2,6.5.77,2.65,1.16,5.82,1.16,9.53ZM357.86,36.73v1.17c0,.37.02.73.06,1.11l15.31-11.06c-.73-2.06-1.69-3.59-2.89-4.58-1.2-.99-2.61-1.48-4.23-1.48-1.17,0-2.25.3-3.25.89s-1.87,1.51-2.61,2.73c-.74,1.23-1.32,2.77-1.75,4.62-.43,1.85-.64,4.05-.64,6.59ZM374.36,36.86c0-.35-.01-.71-.03-1.08-.02-.36-.03-.71-.03-1.05l-15.22,11c.67,2.02,1.6,3.52,2.81,4.5,1.21.98,2.61,1.47,4.22,1.47,1.17,0,2.25-.3,3.27-.91,1.01-.6,1.89-1.52,2.62-2.73.74-1.22,1.32-2.76,1.73-4.62.42-1.86.62-4.06.62-6.58Z" fill="#e68600"/>
        <path d="M410.72,48.89v8.31h-7.44v-8.31h-19v-6.53l15.94-26h10.5v25.81h6.19v6.72h-6.19ZM403.38,23.73l-11.62,18.44h11.62v-18.44Z" fill="#e68600"/>
      </g>
    </g>
  </g>
  <g>
    <rect x="179.99" y="224.73" width="203.86" height="95.27"/>
    <rect x="243.34" y="179.49" width="77.16" height="185.74" transform="translate(554.28 -9.56) rotate(90)" fill="#fff" stroke="#000" stroke-miterlimit="10" stroke-width="1.11"/>
    <g>
      <path d="M251.8,260.53v-13.39h4.59c1.51,0,2.67.3,3.46.91.79.61,1.19,1.51,1.19,2.71,0,.61-.17,1.17-.5,1.66-.33.49-.82.87-1.45,1.14.72.2,1.28.57,1.68,1.11.4.54.59,1.19.59,1.95,0,1.26-.4,2.22-1.21,2.9-.81.67-1.96,1.01-3.46,1.01h-4.88ZM254.13,252.78h2.28c.72,0,1.29-.16,1.7-.49s.61-.79.61-1.39c0-.66-.19-1.14-.57-1.43-.38-.29-.96-.44-1.76-.44h-2.26v3.76ZM254.13,254.49v4.18h2.58c.73,0,1.3-.18,1.71-.54.41-.36.62-.86.62-1.51,0-1.39-.71-2.1-2.13-2.13h-2.78Z"/>
      <path d="M274.13,260.53h-2.32v-5.94h-5.99v5.94h-2.33v-13.39h2.33v5.57h5.99v-5.57h2.32v13.39Z"/>
      <path d="M284.89,247.14h2.33v13.39h-2.33v-9.54l-5.88,9.54h-2.33v-13.39h2.33v9.55l5.88-9.55Z"/>
      <path d="M292.83,247.14l3.86,10.26,3.85-10.26h3.01v13.39h-2.32v-4.41l.23-5.9-3.95,10.32h-1.66l-3.95-10.31.23,5.89v4.41h-2.32v-13.39h3.02Z"/>
      <path d="M313.78,257.42h-5.19l-1.09,3.12h-2.42l5.06-13.39h2.09l5.07,13.39h-2.43l-1.09-3.12ZM309.24,255.54h3.88l-1.94-5.55-1.94,5.55Z"/>
      <path d="M329.26,260.53h-2.32v-5.94h-5.99v5.94h-2.33v-13.39h2.33v5.57h5.99v-5.57h2.32v13.39Z"/>
      <path d="M340.02,247.14h2.33v13.39h-2.33v-9.54l-5.88,9.54h-2.33v-13.39h2.33v9.55l5.88-9.55Z"/>
      <path d="M352.77,254.56h-5.5v4.12h6.43v1.86h-8.75v-13.39h8.69v1.88h-6.36v3.7h5.5v1.84Z"/>
    </g>
    <g>
      <polygon points="254.47 265.28 372.58 265.28 372.58 305.39 269.76 305.39 254.47 265.28" fill="none"/>
      <path d="M263.98,273.83h-.94v-6.34h-3.51v6.34h-.94v-7.11h5.39v7.11Z"/>
      <path d="M265.21,271.14c0-.52.1-.98.31-1.4s.49-.73.85-.96.78-.34,1.24-.34c.72,0,1.3.25,1.75.75s.67,1.16.67,1.99v.06c0,.51-.1.98-.3,1.38-.2.41-.48.73-.84.96s-.79.34-1.26.34c-.72,0-1.3-.25-1.74-.75s-.67-1.16-.67-1.98v-.06ZM266.11,271.25c0,.59.14,1.06.41,1.41s.64.53,1.09.53.82-.18,1.09-.54c.27-.36.41-.86.41-1.51,0-.58-.14-1.05-.41-1.41-.28-.36-.64-.54-1.1-.54s-.81.18-1.08.53-.41.86-.41,1.52Z"/>
      <path d="M275.16,271.54h-.63v2.29h-.9v-2.29h-.63l-1.48,2.29h-1.14l1.89-2.73-1.71-2.55h1.09l1.36,2.19h.62v-2.19h.9v2.19h.62l1.37-2.19h1.09l-1.71,2.55,1.89,2.73h-1.14l-1.48-2.29Z"/>
      <path d="M281.76,273.83c-.05-.1-.09-.29-.13-.56-.42.44-.92.65-1.5.65-.52,0-.95-.15-1.28-.44-.33-.29-.5-.67-.5-1.12,0-.55.21-.98.63-1.28.42-.3,1.01-.46,1.77-.46h.88v-.42c0-.32-.09-.57-.28-.75-.19-.19-.47-.28-.83-.28-.32,0-.59.08-.81.24s-.33.36-.33.59h-.91c0-.26.09-.52.28-.76.19-.25.44-.44.76-.58s.67-.21,1.06-.21c.61,0,1.09.15,1.43.46.34.3.52.72.54,1.26v2.43c0,.49.06.87.19,1.16v.08h-.95ZM280.27,273.14c.28,0,.55-.07.81-.22s.44-.34.55-.57v-1.08h-.71c-1.11,0-1.66.32-1.66.97,0,.28.09.5.28.66s.43.24.73.24Z"/>
      <path d="M288.17,268.55v5.28h-.91v-4.54h-1.8l-.11,1.98c-.06.91-.21,1.56-.46,1.95s-.64.59-1.17.61h-.36v-.8l.26-.02c.29-.03.5-.2.63-.51s.21-.87.24-1.7l.1-2.26h3.57Z"/>
      <path d="M291.25,272.51l1.23-3.96h.97l-2.12,6.1c-.33.88-.85,1.32-1.57,1.32h-.17s-.34-.08-.34-.08v-.73l.24.02c.31,0,.54-.06.72-.19s.31-.35.42-.68l.2-.54-1.88-5.22h.99l1.32,3.96Z"/>
      <path d="M297.57,268.55h.9v5.28h-.9v-3.85l-2.44,3.85h-.9v-5.28h.9v3.86l2.44-3.86ZM297.82,266.62c0,.4-.13.71-.4.95s-.62.36-1.06.36-.79-.12-1.06-.36c-.27-.24-.41-.56-.41-.95h.74c0,.23.06.41.19.53.12.13.3.19.54.19s.41-.06.53-.19.19-.31.19-.54h.73Z"/>
      <path d="M301.95,273.19c.32,0,.6-.1.84-.29s.37-.44.4-.73h.85c-.02.3-.12.59-.31.86s-.45.49-.77.65-.66.24-1.02.24c-.72,0-1.29-.24-1.72-.72-.42-.48-.64-1.14-.64-1.97v-.15c0-.51.09-.97.28-1.37s.46-.71.81-.93.77-.33,1.25-.33c.59,0,1.08.18,1.48.53s.6.82.63,1.38h-.85c-.03-.34-.16-.62-.39-.84-.23-.22-.52-.33-.86-.33-.46,0-.81.17-1.07.5-.25.33-.38.81-.38,1.43v.17c0,.61.13,1.08.38,1.41s.61.49,1.07.49Z"/>
      <path d="M308.89,269.28h-1.77v4.55h-.9v-4.55h-1.74v-.73h4.41v.73Z"/>
      <path d="M312.85,273.83c-.05-.1-.09-.29-.13-.56-.42.44-.92.65-1.5.65-.52,0-.95-.15-1.28-.44-.33-.29-.5-.67-.5-1.12,0-.55.21-.98.63-1.28.42-.3,1.01-.46,1.77-.46h.88v-.42c0-.32-.09-.57-.28-.75-.19-.19-.47-.28-.83-.28-.32,0-.59.08-.81.24s-.33.36-.33.59h-.91c0-.26.09-.52.28-.76.19-.25.44-.44.76-.58s.67-.21,1.06-.21c.61,0,1.09.15,1.43.46.34.3.52.72.54,1.26v2.43c0,.49.06.87.19,1.16v.08h-.95ZM311.35,273.14c.28,0,.55-.07.81-.22s.44-.34.55-.57v-1.08h-.71c-1.11,0-1.66.32-1.66.97,0,.28.09.5.28.66s.43.24.73.24Z"/>
      <path d="M314.9,275.25l-.51-.35c.31-.43.47-.87.48-1.32v-.82h.88v.71c0,.33-.08.66-.24.99s-.36.59-.61.79Z"/>
      <path d="M267.3,285.83h-.9v-2.26h-2.43v2.26h-.91v-5.28h.91v2.29h2.43v-2.29h.9v5.28Z"/>
      <path d="M270.84,285.93c-.72,0-1.3-.24-1.75-.71-.45-.47-.67-1.1-.67-1.89v-.17c0-.52.1-.99.3-1.4.2-.41.48-.73.84-.97.36-.23.75-.35,1.17-.35.69,0,1.22.23,1.6.68s.57,1.1.57,1.94v.38h-3.58c.01.52.17.94.46,1.26.29.32.66.48,1.11.48.32,0,.59-.07.81-.2s.42-.3.58-.52l.55.43c-.44.68-1.11,1.02-1.99,1.02ZM270.73,281.19c-.36,0-.67.13-.92.4-.25.26-.4.64-.46,1.12h2.65v-.07c-.03-.46-.15-.81-.37-1.07-.22-.25-.52-.38-.9-.38Z"/>
      <path d="M280.55,285.83h-.9v-4.54h-2.43v4.54h-.91v-5.28h4.24v5.28Z"/>
      <path d="M286.36,283.25c0,.8-.18,1.45-.55,1.94s-.87.74-1.49.74-1.15-.2-1.51-.61v2.54h-.9v-7.31h.83l.04.59c.37-.46.88-.68,1.53-.68s1.14.24,1.51.72.55,1.14.55,2v.08ZM285.46,283.15c0-.6-.13-1.07-.38-1.41s-.6-.52-1.04-.52c-.55,0-.96.24-1.23.73v2.52c.27.48.68.72,1.24.72.43,0,.78-.17,1.03-.51.26-.34.38-.85.38-1.53Z"/>
      <path d="M290.83,280.55h.9v5.28h-.9v-3.85l-2.44,3.85h-.9v-5.28h.9v3.86l2.44-3.86Z"/>
      <path d="M295.4,280.85c.66,0,1.2.22,1.59.67.4.45.6,1.03.6,1.76v.08c0,.5-.1.94-.29,1.33-.19.39-.47.7-.83.91-.36.22-.77.32-1.24.32-.71,0-1.28-.24-1.71-.71-.43-.47-.65-1.11-.65-1.91v-.44c0-1.11.21-1.99.62-2.65s1.02-1.05,1.82-1.2c.46-.08.76-.18.92-.3s.24-.28.24-.48h.74c0,.41-.09.72-.28.95s-.48.39-.88.48l-.67.15c-.54.13-.94.34-1.21.64-.27.3-.44.7-.52,1.2.48-.55,1.06-.83,1.75-.83ZM295.22,281.59c-.44,0-.79.15-1.05.45-.26.3-.39.71-.39,1.24v.08c0,.57.13,1.01.39,1.34.26.33.62.5,1.06.5s.8-.17,1.06-.5.39-.82.39-1.46c0-.5-.13-.9-.39-1.2-.26-.3-.62-.45-1.07-.45Z"/>
      <path d="M302.84,280.55v5.28h-.91v-4.54h-1.8l-.11,1.98c-.06.91-.21,1.56-.46,1.95s-.64.59-1.17.61h-.36v-.8l.26-.02c.29-.03.5-.2.63-.51s.21-.87.24-1.7l.1-2.26h3.57Z"/>
      <path d="M307.61,280.55h.9v5.28h-.9v-3.85l-2.44,3.85h-.9v-5.28h.9v3.86l2.44-3.86Z"/>
      <path d="M314.07,283.54h-.63v2.29h-.9v-2.29h-.63l-1.48,2.29h-1.14l1.89-2.73-1.71-2.55h1.09l1.36,2.19h.62v-2.19h.9v2.19h.62l1.37-2.19h1.09l-1.71,2.55,1.89,2.73h-1.14l-1.48-2.29Z"/>
      <path d="M320.68,285.83c-.05-.1-.09-.29-.13-.56-.42.44-.92.65-1.5.65-.52,0-.95-.15-1.28-.44-.33-.29-.5-.67-.5-1.12,0-.55.21-.98.63-1.28.42-.3,1.01-.46,1.77-.46h.88v-.42c0-.32-.09-.57-.28-.75-.19-.19-.47-.28-.83-.28-.32,0-.59.08-.81.24s-.33.36-.33.59h-.91c0-.26.09-.52.28-.76.19-.25.44-.44.76-.58s.67-.21,1.06-.21c.61,0,1.09.15,1.43.46.34.3.52.72.54,1.26v2.43c0,.49.06.87.19,1.16v.08h-.95ZM319.18,285.14c.28,0,.55-.07.81-.22s.44-.34.55-.57v-1.08h-.71c-1.11,0-1.66.32-1.66.97,0,.28.09.5.28.66s.43.24.73.24Z"/>
      <path d="M326.17,280.55h.9v5.28h-.9v-3.85l-2.44,3.85h-.9v-5.28h.9v3.86l2.44-3.86ZM326.42,278.62c0,.4-.13.71-.4.95s-.62.36-1.06.36-.79-.12-1.06-.36c-.27-.24-.41-.56-.41-.95h.74c0,.23.06.41.19.53.12.13.3.19.54.19s.41-.06.53-.19.19-.31.19-.54h.73Z"/>
      <path d="M332.35,281.28h-1.77v4.55h-.9v-4.55h-1.74v-.73h4.41v.73Z"/>
      <path d="M334.93,285.93c-.72,0-1.3-.24-1.75-.71-.45-.47-.67-1.1-.67-1.89v-.17c0-.52.1-.99.3-1.4.2-.41.48-.73.84-.97.36-.23.75-.35,1.17-.35.69,0,1.22.23,1.6.68s.57,1.1.57,1.94v.38h-3.58c.01.52.17.94.46,1.26.29.32.66.48,1.11.48.32,0,.59-.07.81-.2s.42-.3.58-.52l.55.43c-.44.68-1.11,1.02-1.99,1.02ZM334.82,281.19c-.36,0-.67.13-.92.4-.25.26-.4.64-.46,1.12h2.65v-.07c-.03-.46-.15-.81-.37-1.07-.22-.25-.52-.38-.9-.38Z"/>
      <path d="M340.06,285.19c.32,0,.6-.1.84-.29s.37-.44.4-.73h.85c-.02.3-.12.59-.31.86s-.45.49-.77.65-.66.24-1.02.24c-.72,0-1.29-.24-1.72-.72-.42-.48-.64-1.14-.64-1.97v-.15c0-.51.09-.97.28-1.37s.46-.71.81-.93.77-.33,1.25-.33c.59,0,1.08.18,1.48.53s.6.82.63,1.38h-.85c-.03-.34-.16-.62-.39-.84-.23-.22-.52-.33-.86-.33-.46,0-.81.17-1.07.5-.25.33-.38.81-.38,1.43v.17c0,.61.13,1.08.38,1.41s.61.49,1.07.49Z"/>
      <path d="M344.06,282.37h1.37c.6,0,1.07.16,1.42.47s.52.72.52,1.25-.18.95-.54,1.27-.84.48-1.45.48h-2.24v-5.28h.9v1.82ZM344.06,283.11v1.99h1.34c.34,0,.6-.09.79-.26.19-.17.28-.41.28-.72s-.09-.53-.27-.72c-.18-.19-.43-.28-.76-.29h-1.38Z"/>
      <path d="M269.68,297.19c.32,0,.6-.1.84-.29s.37-.44.4-.73h.85c-.02.3-.12.59-.31.86s-.45.49-.77.65-.66.24-1.02.24c-.72,0-1.29-.24-1.72-.72-.42-.48-.64-1.14-.64-1.97v-.15c0-.51.09-.97.28-1.37s.46-.71.81-.93.77-.33,1.25-.33c.59,0,1.08.18,1.48.53s.6.82.63,1.38h-.85c-.03-.34-.16-.62-.39-.84-.23-.22-.52-.33-.86-.33-.46,0-.81.17-1.07.5-.25.33-.38.81-.38,1.43v.17c0,.61.13,1.08.38,1.41s.61.49,1.07.49Z"/>
      <path d="M279,293.28h-1.77v4.55h-.9v-4.55h-1.74v-.73h4.41v.73Z"/>
      <path d="M281.56,296.51l1.23-3.96h.97l-2.12,6.1c-.33.88-.85,1.32-1.57,1.32h-.17s-.34-.08-.34-.08v-.73l.24.02c.31,0,.54-.06.72-.19s.31-.35.42-.68l.2-.54-1.88-5.22h.99l1.32,3.96Z"/>
      <path d="M288.78,297.83h-.9v-4.54h-2.43v4.54h-.91v-5.28h4.24v5.28Z"/>
      <path d="M291.12,294.37h1.37c.6,0,1.07.16,1.42.47s.52.72.52,1.25-.18.95-.54,1.27-.84.48-1.45.48h-2.24v-5.28h.9v1.82ZM291.12,295.11v1.99h1.34c.34,0,.6-.09.79-.26.19-.17.28-.41.28-.72s-.09-.53-.27-.72c-.18-.19-.43-.28-.76-.29h-1.38ZM296.32,297.83h-.91v-5.28h.91v5.28Z"/>
      <path d="M300.84,296.63l1.8-4.09h1.13v5.28h-.9v-3.84l-1.71,3.84h-.62l-1.74-3.93v3.93h-.9v-5.28h1.17l1.79,4.09Z"/>
      <path d="M308.53,292.55h.9v5.28h-.9v-3.85l-2.44,3.85h-.9v-5.28h.9v3.86l2.44-3.86Z"/>
      <path d="M313.24,297.83v-5.28h2.06c.7,0,1.24.12,1.62.37.38.25.56.61.56,1.08,0,.24-.07.46-.22.66-.15.2-.36.35-.65.45.32.08.58.22.77.44s.29.48.29.78c0,.49-.18.86-.53,1.11s-.86.39-1.51.39h-2.39ZM314.14,294.79h1.17c.85,0,1.27-.25,1.27-.74s-.4-.75-1.2-.77h-1.24v1.51ZM314.14,295.51v1.59h1.49c.38,0,.66-.07.85-.21s.28-.34.28-.59c0-.53-.39-.79-1.16-.79h-1.46Z"/>
      <path d="M318.53,295.14c0-.52.1-.98.31-1.4s.49-.73.85-.96.78-.34,1.24-.34c.72,0,1.3.25,1.75.75s.67,1.16.67,1.99v.06c0,.51-.1.98-.3,1.38-.2.41-.48.73-.84.96s-.79.34-1.26.34c-.72,0-1.3-.25-1.74-.75s-.67-1.16-.67-1.98v-.06ZM319.44,295.25c0,.59.14,1.06.41,1.41s.64.53,1.09.53.82-.18,1.09-.54c.27-.36.41-.86.41-1.51,0-.58-.14-1.05-.41-1.41-.28-.36-.64-.54-1.1-.54s-.81.18-1.08.53-.41.86-.41,1.52Z"/>
      <path d="M328.7,297.83h-.9v-4.54h-2.43v4.54h-.91v-5.28h4.24v5.28Z"/>
      <path d="M334.51,295.25c0,.8-.18,1.45-.55,1.94s-.87.74-1.49.74-1.15-.2-1.51-.61v2.54h-.9v-7.31h.83l.04.59c.37-.46.88-.68,1.53-.68s1.14.24,1.51.72.55,1.14.55,2v.08ZM333.61,295.15c0-.6-.13-1.07-.38-1.41s-.6-.52-1.04-.52c-.55,0-.96.24-1.23.73v2.52c.27.48.68.72,1.24.72.43,0,.78-.17,1.03-.51.26-.34.38-.85.38-1.53Z"/>
      <path d="M335.32,295.14c0-.52.1-.98.31-1.4s.49-.73.85-.96.78-.34,1.24-.34c.72,0,1.3.25,1.75.75s.67,1.16.67,1.99v.06c0,.51-.1.98-.3,1.38-.2.41-.48.73-.84.96s-.79.34-1.26.34c-.72,0-1.3-.25-1.74-.75s-.67-1.16-.67-1.98v-.06ZM336.23,295.25c0,.59.14,1.06.41,1.41s.64.53,1.09.53.82-.18,1.09-.54c.27-.36.41-.86.41-1.51,0-.58-.14-1.05-.41-1.41-.28-.36-.64-.54-1.1-.54s-.81.18-1.08.53-.41.86-.41,1.52Z"/>
      <path d="M343.28,297.19c.32,0,.6-.1.84-.29s.37-.44.4-.73h.85c-.02.3-.12.59-.31.86s-.45.49-.77.65-.66.24-1.02.24c-.72,0-1.29-.24-1.72-.72-.42-.48-.64-1.14-.64-1.97v-.15c0-.51.09-.97.28-1.37s.46-.71.81-.93.77-.33,1.25-.33c.59,0,1.08.18,1.48.53s.6.82.63,1.38h-.85c-.03-.34-.16-.62-.39-.84-.23-.22-.52-.33-.86-.33-.46,0-.81.17-1.07.5-.25.33-.38.81-.38,1.43v.17c0,.61.13,1.08.38,1.41s.61.49,1.07.49Z"/>
      <path d="M349.56,297.83c-.05-.1-.09-.29-.13-.56-.42.44-.92.65-1.5.65-.52,0-.95-.15-1.28-.44-.33-.29-.5-.67-.5-1.12,0-.55.21-.98.63-1.28.42-.3,1.01-.46,1.77-.46h.88v-.42c0-.32-.09-.57-.28-.75-.19-.19-.47-.28-.83-.28-.32,0-.59.08-.81.24s-.33.36-.33.59h-.91c0-.26.09-.52.28-.76.19-.25.44-.44.76-.58s.67-.21,1.06-.21c.61,0,1.09.15,1.43.46.34.3.52.72.54,1.26v2.43c0,.49.06.87.19,1.16v.08h-.95ZM348.06,297.14c.28,0,.55-.07.81-.22s.44-.34.55-.57v-1.08h-.71c-1.11,0-1.66.32-1.66.97,0,.28.09.5.28.66s.43.24.73.24Z"/>
      <path d="M354.68,296.63l1.8-4.09h1.13v5.28h-.9v-3.84l-1.71,3.84h-.62l-1.74-3.93v3.93h-.9v-5.28h1.17l1.79,4.09Z"/>
      <path d="M362.37,292.55h.9v5.28h-.9v-3.85l-2.44,3.85h-.9v-5.28h.9v3.86l2.44-3.86Z"/>
    </g>
    <path d="M225.66,249.61l-23.34,40.43c-2.02,3.49.5,7.86,4.54,7.86h46.68c4.03,0,6.56-4.37,4.54-7.86l-23.34-40.43c-2.02-3.49-7.06-3.49-9.08,0Z" fill="#e68600"/>
    <path d="M230.43,286.34c1.1,0,1.98.32,2.65.97.67.65,1,1.47,1,2.48s-.33,1.81-1,2.46c-.67.65-1.55.97-2.65.97s-1.96-.32-2.63-.97c-.67-.65-1-1.47-1-2.46s.33-1.82,1-2.47c.67-.65,1.54-.98,2.63-.98ZM233.13,282.78h-5.41l-.77-22.75h6.95l-.77,22.75Z" fill="#fff"/>
  </g>
</svg>
