<svg width="1508" height="205" viewBox="0 0 1508 205" fill="none" xmlns="http://www.w3.org/2000/svg">
<path d="M1353.43 145.625H1321.1V171.406H1353.43V145.625ZM1382.23 121.602C1382.23 112.031 1375.5 103.047 1362.9 103.047V101.547C1369.58 101.547 1374.82 103.939 1378.38 107.704C1381.93 111.451 1383.73 116.47 1383.73 121.602C1383.73 131.789 1376.14 141.07 1362.9 141.07H1319.6V101.547H1362.9V103.047H1321.1V139.57H1362.9C1375.3 139.57 1382.23 130.977 1382.23 121.602ZM1354.93 172.906H1319.6V144.125H1354.93V172.906Z" fill="#FFF8E7"/>
<path d="M1311.33 146.309H1246.98V171.406H1311.33V146.309ZM1311.33 127.266V103.047H1246.98V140.449H1296.68V127.266H1311.33ZM1312.83 172.906H1245.48V144.809H1312.83V172.906ZM1312.83 128.766H1298.18V141.949H1245.48V101.547H1312.83V128.766Z" fill="#FFF8E7"/>
<path d="M1206.54 140.254H1173.83V171.406H1206.54V140.254ZM1240.14 103.047H1173.83V134.395H1240.14V103.047ZM1208.04 172.906H1172.33V138.754H1208.04V172.906ZM1241.64 135.895H1172.33V101.547H1241.64V135.895Z" fill="#FFF8E7"/>
<path d="M1133.39 140.254H1100.68V171.406H1133.39V140.254ZM1166.99 103.047H1100.68V134.395H1166.99V103.047ZM1134.89 172.906H1099.18V138.754H1134.89V172.906ZM1168.49 135.895H1099.18V101.547H1168.49V135.895Z" fill="#FFF8E7"/>
<path d="M1087.19 101.547L1023.88 173.731V101.547H1087.19ZM1092.51 172.906H1029.1L1092.51 100.727V172.906ZM1032.41 171.406H1091.01V104.707L1032.41 171.406ZM1025.38 169.746L1083.88 103.047H1025.38V169.746Z" fill="#FFF8E7"/>
<path d="M991.199 145.625H958.875V171.406H991.199V145.625ZM1020.01 121.602C1020.01 112.031 1013.27 103.047 1000.67 103.047V101.547C1007.35 101.547 1012.59 103.939 1016.15 107.704C1019.7 111.451 1021.51 116.47 1021.51 121.602C1021.51 131.789 1013.92 141.07 1000.67 141.07H957.375V101.547H1000.67V103.047H958.875V139.57H1000.67C1013.07 139.57 1020.01 130.977 1020.01 121.602ZM992.699 172.906H957.375V144.125H992.699V172.906Z" fill="#FFF8E7"/>
<path d="M934.75 140.352H902.035V171.406H934.75V140.352ZM952.523 103.047H884.262V134.492H952.523V103.047ZM936.25 172.906H900.535V138.852H936.25V172.906ZM954.023 135.992H882.762V101.547H954.023V135.992Z" fill="#FFF8E7"/>
<path d="M836.588 101.547L773.281 173.731V101.547H836.588ZM841.906 172.906H778.498L841.906 100.727V172.906ZM781.812 171.406H840.406V104.707L781.812 171.406ZM841.134 76.1562L808.668 100.93L776.202 76.1562H841.134ZM780.641 77.6562L808.668 99.043L836.695 77.6562H780.641ZM774.781 169.746L833.277 103.047H774.781V169.746Z" fill="#FFF8E7"/>
<path d="M761.291 101.547L697.984 173.731V101.547H761.291ZM766.609 172.906H703.201L766.609 100.727V172.906ZM706.516 171.406H765.109V104.707L706.516 171.406ZM699.484 169.746L757.98 103.047H699.484V169.746Z" fill="#FFF8E7"/>
<path d="M669.5 176.875L696.844 200.801V176.875H669.5ZM610.613 103.047H577.898V140.059C577.898 156.953 590.105 171.309 610.613 171.602V103.047ZM649.285 103.047H616.57V171.406H649.285V103.047ZM687.957 103.047H655.242V171.406H687.957V103.047ZM698.344 204.106L665.508 175.375H698.344V204.106ZM612.113 173.123L610.592 173.102C589.254 172.797 576.398 157.763 576.398 140.059V101.547H612.113V173.123ZM650.785 172.906H615.07V101.547H650.785V172.906ZM689.457 172.906H653.742V101.547H689.457V172.906Z" fill="#FFF8E7"/>
<path d="M572.816 137.031C572.816 116.914 556.898 101.68 537.367 101.68C520.18 101.68 505.824 113.496 502.699 130H502.309V103.047H469.789V134.492H502.309V140.352H469.789V171.406H502.309V144.551H502.699C506.02 160.859 520.277 172.09 537.367 172.09C556.898 172.09 572.816 156.855 572.816 137.031ZM503.809 121.52C509.587 108.718 522.469 100.18 537.367 100.18C557.705 100.18 574.316 116.064 574.316 137.031C574.316 157.714 557.697 173.59 537.367 173.59C522.504 173.59 509.645 165.401 503.809 152.743V172.906H468.289V138.852H500.809V135.992H468.289V101.547H503.809V121.52Z" fill="#FFF8E7"/>
<path d="M454.377 144.711L469.35 172.906H389.652L390.501 171.309H392.046L391.268 169.863L404.625 144.711H454.377ZM405.526 146.211L392.147 171.406H466.854L453.476 146.211H405.526ZM452.846 141.852H406.15L429.553 98L452.846 141.852ZM408.651 140.352H450.351L429.55 101.191L408.651 140.352Z" fill="#FFF8E7"/>
<path d="M339.594 175.375L306.758 204.106V175.375H339.594ZM373.297 176.875L400.641 200.801V176.875H373.297ZM392.969 169.859L392.148 171.406H393.803L394.559 172.809H314.831L354.643 98.709L392.969 169.859ZM317.34 171.309H392.047L354.645 101.875L317.34 171.309ZM308.258 200.801L335.602 176.875H308.258V200.801ZM402.141 204.106L369.305 175.375H402.141V204.106Z" fill="#FFF8E7"/>
<path d="M319.777 137.324C319.777 117.207 303.859 101.973 284.328 101.973C264.797 101.973 248.977 117.207 248.977 137.324C248.977 157.441 264.797 172.383 284.328 172.383C303.859 172.383 319.777 157.148 319.777 137.324ZM321.277 137.324C321.277 158.007 304.658 173.883 284.328 173.883C264.001 173.883 247.477 158.302 247.477 137.324C247.477 116.362 263.985 100.473 284.328 100.473C304.666 100.473 321.277 116.357 321.277 137.324Z" fill="#FFF8E7"/>
<path d="M218.699 145.625H186.375V171.406H218.699V145.625ZM247.508 121.602C247.508 112.031 240.77 103.047 228.172 103.047V101.547C234.85 101.547 240.089 103.939 243.653 107.704C247.201 111.451 249.008 116.47 249.008 121.602C249.008 131.789 241.418 141.07 228.172 141.07H184.875V101.547H228.172V103.047H186.375V139.57H228.172C240.574 139.57 247.508 130.977 247.508 121.602ZM220.199 172.906H184.875V144.125H220.199V172.906Z" fill="#FFF8E7"/>
<path d="M138.91 103.047H106.195V171.406H138.91V103.047ZM177.582 134.395C177.582 117.5 165.375 103.145 144.867 102.852V171.406H177.582V134.395ZM179.082 172.906H143.367V101.33L144.889 101.352C166.227 101.656 179.082 116.69 179.082 134.395V172.906ZM140.41 172.906H104.695V101.547H140.41V172.906Z" fill="#FFF8E7"/>
<path d="M63.2187 155.781C63.2187 146.602 57.0664 140.254 47.6914 140.254V138.754C52.7271 138.754 57.0099 140.466 60.0361 143.52C63.0603 146.571 64.7187 150.85 64.7187 155.781C64.7187 160.712 63.0611 165.012 60.041 168.087C57.0173 171.165 52.7338 172.906 47.6914 172.906H0V138.754H47.6914V140.254H1.5V171.406H47.6914C57.0664 171.406 63.2187 164.961 63.2187 155.781ZM59.3125 118.574C59.3125 109.59 53.1602 103.047 43.7852 103.047V101.547C48.8339 101.547 53.1151 103.317 56.1348 106.391C59.1502 109.461 60.8125 113.734 60.8125 118.574C60.8125 123.549 59.1583 127.896 56.1416 131.008C53.1199 134.125 48.8345 135.895 43.7852 135.895H0V101.547H43.7852V103.047H1.5V134.395H43.7852C53.1602 134.395 59.3125 127.852 59.3125 118.574Z" fill="#FFF8E7"/>
<path d="M1506.46 55.4375C1506.46 46.4531 1499.82 38.0547 1487.81 38.0547V36.5547C1500.68 36.5547 1507.96 45.6519 1507.96 55.4375C1507.96 60.4631 1506.24 65.3379 1502.81 68.9678C1499.36 72.6152 1494.29 74.9062 1487.81 74.9062H1444.71V36.5547H1487.81V38.0547H1446.21V73.4062H1487.81C1500.02 73.4062 1506.46 64.8125 1506.46 55.4375ZM1478.93 5.04687H1446.21V32H1478.93V5.04687ZM1480.43 33.5H1444.71V3.54688H1480.43V33.5Z" fill="#FFF8E7"/>
<path d="M1422.09 42.3516H1389.37V73.4062H1422.09V42.3516ZM1439.86 5.04687H1371.6V36.4922H1439.86V5.04687ZM1423.59 74.9062H1387.87V40.8516H1423.59V74.9062ZM1441.36 37.9922H1370.1V3.54688H1441.36V37.9922Z" fill="#FFF8E7"/>
<path d="M1372.51 3.54688L1348.23 38.5322L1374.11 74.9062H1345.71C1332.82 74.9062 1323.2 70.6818 1316.81 64.0195C1310.44 57.374 1307.4 48.4363 1307.4 39.2266C1307.4 30.1112 1310.44 21.1738 1316.84 14.5059C1323.25 7.82063 1332.92 3.54688 1345.91 3.54688V5.04687C1320.62 5.04687 1308.9 21.6484 1308.9 39.2266C1308.9 57 1320.62 73.4062 1345.71 73.4062H1371.2L1346.4 38.543L1369.64 5.04687H1345.91V3.54688H1372.51Z" fill="#FFF8E7"/>
<path d="M1306.94 39.3242C1306.94 19.207 1291.02 3.97266 1271.49 3.97266C1251.96 3.97266 1236.14 19.207 1236.14 39.3242C1236.14 59.4414 1251.96 74.3828 1271.49 74.3828C1291.02 74.3828 1306.94 59.1484 1306.94 39.3242ZM1308.44 39.3242C1308.44 60.0066 1291.82 75.8828 1271.49 75.8828C1251.17 75.8828 1234.64 60.3024 1234.64 39.3242C1234.64 18.3624 1251.15 2.47266 1271.49 2.47266C1291.83 2.47266 1308.44 18.357 1308.44 39.3242Z" fill="#FFF8E7"/>
<path d="M1230.37 42.3516H1164.55V73.4062H1230.37V42.3516ZM1230.37 5.04687H1164.55V36.4922H1230.37V5.04687ZM1231.87 74.9062H1163.05V40.8516H1231.87V74.9062ZM1231.87 37.9922H1163.05V3.54688H1231.87V37.9922Z" fill="#FFF8E7"/>
<path d="M1154.88 5.04687H1122.17V73.4062H1154.88V5.04687ZM1116.21 5.04687H1083.5V19.1094C1083.5 40.5937 1095.7 51.7266 1116.21 52.0195V5.04687ZM1117.71 53.541L1116.19 53.5195C1105.68 53.3694 1097.08 50.4354 1091.11 44.582C1085.13 38.7203 1082 30.1345 1082 19.1094V3.54688H1117.71V53.541ZM1156.38 74.9062H1120.67V3.54688H1156.38V74.9062Z" fill="#FFF8E7"/>
<path d="M1072.45 3.54687L1009.14 75.7314V3.54687H1072.45ZM1077.77 74.9062H1014.36L1077.77 2.72656V74.9062ZM1017.67 73.4062H1076.27V6.70703L1017.67 73.4062ZM1010.64 71.7461L1069.14 5.04687H1010.64V71.7461Z" fill="#FFF8E7"/>
<path d="M1010.21 74.9062H930.5L970.303 0.300781L1010.21 74.9062ZM933 73.4062H1007.71L970.305 3.48437L933 73.4062Z" fill="#FFF8E7"/>
<path d="M896.371 39.0312C896.371 18.9141 880.453 3.67969 860.922 3.67969C843.734 3.67969 829.379 15.4961 826.254 32H825.863V5.04687H793.344V36.4922H825.863V42.3516H793.344V73.4062H825.863V46.5508H826.254C829.574 62.8594 843.832 74.0898 860.922 74.0898C880.453 74.0898 896.371 58.8555 896.371 39.0312ZM827.363 23.5195C833.141 10.7177 846.023 2.17969 860.922 2.17969C881.26 2.17969 897.871 18.064 897.871 39.0312C897.871 59.7136 881.252 75.5898 860.922 75.5898C846.058 75.5898 833.2 67.4013 827.363 54.7432V74.9062H791.844V40.8516H824.363V37.9922H791.844V3.54687H827.363V23.5195Z" fill="#FFF8E7"/>
<path d="M787.48 39.3242C787.48 19.207 771.562 3.97266 752.031 3.97266C732.5 3.97266 716.68 19.207 716.68 39.3242C716.68 59.4414 732.5 74.3828 752.031 74.3828C771.562 74.3828 787.48 59.1484 787.48 39.3242ZM788.98 39.3242C788.98 60.0066 772.361 75.8828 752.031 75.8828C731.705 75.8828 715.18 60.3024 715.18 39.3242C715.18 18.3624 731.688 2.47266 752.031 2.47266C772.369 2.47266 788.98 18.357 788.98 39.3242Z" fill="#FFF8E7"/>
<path d="M715.211 57.7812C715.211 48.6016 709.059 42.2539 699.684 42.2539V40.7539C704.719 40.7539 709.002 42.466 712.028 45.5195C715.052 48.571 716.711 52.85 716.711 57.7812C716.711 62.7115 715.053 67.0122 712.033 70.0869C709.01 73.1651 704.726 74.9062 699.684 74.9062H651.992V40.7539H699.684V42.2539H653.492V73.4062H699.684C709.059 73.4062 715.211 66.9609 715.211 57.7812ZM711.305 20.5742C711.305 11.5898 705.152 5.04687 695.777 5.04687V3.54688C700.826 3.54688 705.107 5.31658 708.127 8.39062C711.142 11.4606 712.805 15.7342 712.805 20.5742C712.805 25.5486 711.15 29.896 708.134 33.0078C705.112 36.1248 700.827 37.8945 695.777 37.8945H651.992V3.54688H695.777V5.04687H653.492V36.3945H695.777C705.152 36.3945 711.305 29.8516 711.305 20.5742Z" fill="#FFF8E7"/>
<path d="M650.983 3.54688L626.708 38.5322L652.588 74.9062H624.191C611.3 74.9062 601.681 70.6818 595.289 64.0195C588.913 57.374 585.875 48.4363 585.875 39.2266C585.875 30.1112 588.915 21.1738 595.313 14.5059C601.729 7.82063 611.395 3.54688 624.387 3.54688V5.04687C599.094 5.04687 587.375 21.6484 587.375 39.2266C587.375 57 599.094 73.4062 624.191 73.4062H649.68L624.875 38.543L648.117 5.04687H624.387V3.54688H650.983Z" fill="#FFF8E7"/>
<path d="M540.189 3.54687L476.883 75.7314V3.54687H540.189ZM545.508 74.9062H482.1L545.508 2.72656V74.9062ZM485.414 73.4062H544.008V6.70703L485.414 73.4062ZM478.383 71.7461L536.879 5.04687H478.383V71.7461Z" fill="#FFF8E7"/>
<path d="M454.258 42.3516H421.543V73.4062H454.258V42.3516ZM472.031 5.04687H403.77V36.4922H472.031V5.04687ZM455.758 74.9062H420.043V40.8516H455.758V74.9062ZM473.531 37.9922H402.27V3.54688H473.531V37.9922Z" fill="#FFF8E7"/>
<path d="M399.588 46.7109L414.561 74.9062H334.863L349.836 46.7109H399.588ZM350.737 48.2109L337.358 73.4062H412.065L398.687 48.2109H350.737ZM398.057 43.8516H351.361L374.764 0L398.057 43.8516ZM353.862 42.3516H395.562L374.761 3.19141L353.862 42.3516Z" fill="#FFF8E7"/>
<path d="M321.73 47.625H289.406V73.4062H321.73V47.625ZM350.539 23.6016C350.539 14.0312 343.801 5.04687 331.203 5.04687V3.54688C337.881 3.54688 343.12 5.93928 346.685 9.7041C350.232 13.4512 352.039 18.4703 352.039 23.6016C352.039 33.7893 344.45 43.0703 331.203 43.0703H287.906V3.54688H331.203V5.04687H289.406V41.5703H331.203C343.605 41.5703 350.539 32.9766 350.539 23.6016ZM323.23 74.9062H287.906V46.125H323.23V74.9062Z" fill="#FFF8E7"/>
<path d="M284.031 57.7812C284.031 48.6016 277.879 42.2539 268.504 42.2539V40.7539C273.54 40.7539 277.822 42.466 280.849 45.5195C283.873 48.571 285.531 52.85 285.531 57.7812C285.531 62.7115 283.874 67.0122 280.854 70.0869C277.83 73.1651 273.546 74.9062 268.504 74.9062H220.812V40.7539H268.504V42.2539H222.312V73.4062H268.504C277.879 73.4062 284.031 66.9609 284.031 57.7812ZM280.125 20.5742C280.125 11.5898 273.973 5.04687 264.598 5.04687V3.54688C269.646 3.54688 273.928 5.31658 276.947 8.39062C279.963 11.4606 281.625 15.7342 281.625 20.5742C281.625 25.5486 279.971 29.896 276.954 33.0078C273.932 36.1248 269.647 37.8945 264.598 37.8945H220.812V3.54688H264.598V5.04687H222.312V36.3945H264.598C273.973 36.3945 280.125 29.8516 280.125 20.5742Z" fill="#FFF8E7"/>
<path d="M212.543 48.3086H148.187V73.4062H212.543V48.3086ZM212.543 29.2656V5.04687H148.187V42.4492H197.895V29.2656H212.543ZM214.043 74.9062H146.688V46.8086H214.043V74.9062ZM214.043 30.7656H199.395V43.9492H146.688V3.54688H214.043V30.7656Z" fill="#FFF8E7"/>
<path d="M114.004 47.625H81.6797V73.4062H114.004V47.625ZM142.812 23.6016C142.812 14.0312 136.074 5.04687 123.477 5.04687V3.54688C130.154 3.54688 135.393 5.93928 138.958 9.7041C142.506 13.4512 144.312 18.4703 144.312 23.6016C144.312 33.7893 136.723 43.0703 123.477 43.0703H80.1797V3.54688H123.477V5.04687H81.6797V41.5703H123.477C135.879 41.5703 142.812 32.9766 142.812 23.6016ZM115.504 74.9062H80.1797V46.125H115.504V74.9062Z" fill="#FFF8E7"/>
<path d="M34.2148 5.04687H1.5V73.4062H34.2148V5.04687ZM72.8867 36.3945C72.8867 19.5 60.6797 5.14453 40.1719 4.85156V73.4062H72.8867V36.3945ZM74.3867 74.9062H38.6719V3.33008L40.1934 3.35156C61.5312 3.65642 74.3867 18.6901 74.3867 36.3945V74.9062ZM35.7148 74.9062H0V3.54687H35.7148V74.9062Z" fill="#FFF8E7"/>
</svg>
