<svg width="468" height="25" viewBox="0 0 468 25" fill="none" xmlns="http://www.w3.org/2000/svg">
<path d="M107.369 0.631359C107.098 0.360477 106.759 0.166672 106.389 0.0699028C106.018 -0.0268664 105.628 -0.0231023 105.26 0.0808073L105.236 0.0883491L84.5551 6.35666C84.135 6.47843 83.762 6.72509 83.4854 7.06387C83.2089 7.40265 83.042 7.81753 83.0069 8.25339C82.9719 8.68925 83.0702 9.12546 83.289 9.5041C83.5078 9.88273 83.8366 10.1859 84.2318 10.3732L93.3184 14.6828L97.6289 23.7674C97.8009 24.1365 98.075 24.4486 98.4187 24.667C98.7624 24.8854 99.1614 25.0009 99.5686 25C99.63 25 99.6925 25 99.7551 24.9925C100.191 24.9577 100.605 24.7903 100.943 24.5126C101.28 24.235 101.524 23.8606 101.642 23.4399L107.912 2.76353C107.915 2.75585 107.917 2.74792 107.919 2.73983C108.023 2.37117 108.027 1.98147 107.93 1.61087C107.833 1.24027 107.639 0.902158 107.369 0.631359ZM99.4867 21.6471L95.853 13.9771L100.729 9.10188C100.972 8.859 101.109 8.52958 101.109 8.18609C101.109 7.8426 100.972 7.51318 100.729 7.2703C100.486 7.02742 100.157 6.89097 99.8132 6.89097C99.4697 6.89097 99.1402 7.02742 98.8973 7.2703L94.021 12.1455L86.3483 8.51146L105.198 2.80124L99.4867 21.6471Z" fill="#101010"/>
<path d="M14.1443 25C13.8142 25 13.4783 24.9411 13.1365 24.8232C12.7947 24.7053 12.4941 24.5167 12.2348 24.2574L9.79491 22.0297C7.29609 19.743 5.0389 17.4741 3.02334 15.2228C1.00778 12.9715 0 10.4903 0 7.77935C0 5.56341 0.742574 3.71287 2.22772 2.22772C3.71287 0.742574 5.56341 0 7.77935 0C9.02876 0 10.2074 0.265205 11.3154 0.795615C12.4234 1.32603 13.3663 2.05092 14.1443 2.9703C14.9222 2.05092 15.8652 1.32603 16.9731 0.795615C18.0811 0.265205 19.2598 0 20.5092 0C22.7251 0 24.5757 0.742574 26.0608 2.22772C27.546 3.71287 28.2885 5.56341 28.2885 7.77935C28.2885 10.4903 27.2867 12.9774 25.2829 15.2405C23.2791 17.5035 21.0042 19.7784 18.4583 22.0651L16.0537 24.2574C15.7944 24.5167 15.4939 24.7053 15.1521 24.8232C14.8102 24.9411 14.4743 25 14.1443 25ZM12.8006 5.79915C12.1169 4.83263 11.3861 4.09595 10.6082 3.58911C9.83027 3.08227 8.88732 2.82885 7.77935 2.82885C6.36492 2.82885 5.18623 3.30033 4.24328 4.24328C3.30033 5.18623 2.82885 6.36492 2.82885 7.77935C2.82885 9.00519 3.26497 10.3076 4.1372 11.6867C5.00943 13.0658 6.05257 14.4036 7.26662 15.7001C8.48067 16.9967 9.73008 18.2107 11.0149 19.3423C12.2996 20.4738 13.3428 21.405 14.1443 22.1358C14.9458 21.405 15.9889 20.4738 17.2737 19.3423C18.5585 18.2107 19.8079 16.9967 21.0219 15.7001C22.236 14.4036 23.2791 13.0658 24.1513 11.6867C25.0236 10.3076 25.4597 9.00519 25.4597 7.77935C25.4597 6.36492 24.9882 5.18623 24.0453 4.24328C23.1023 3.30033 21.9236 2.82885 20.5092 2.82885C19.4012 2.82885 18.4583 3.08227 17.6803 3.58911C16.9024 4.09595 16.1716 4.83263 15.488 5.79915C15.323 6.03489 15.1226 6.21169 14.8868 6.32956C14.6511 6.44743 14.4036 6.50636 14.1443 6.50636C13.885 6.50636 13.6374 6.44743 13.4017 6.32956C13.166 6.21169 12.9656 6.03489 12.8006 5.79915Z" fill="#101010"/>
<path d="M44.8109 17.3019C44.4336 16.4828 44.153 15.6448 43.969 14.7878C43.7851 13.9308 43.6932 13.0538 43.6932 12.157C43.6932 10.4761 44.0119 8.8964 44.6493 7.41799C45.2867 5.93961 46.1534 4.65237 47.2495 3.55629C48.3456 2.46023 49.632 1.5935 51.1089 0.956102C52.5858 0.318701 54.1638 0 55.843 0C57.5239 0 59.1036 0.318701 60.582 0.956102C62.0604 1.5935 63.3476 2.46023 64.4437 3.55629C65.5398 4.65237 66.4065 5.93968 67.0439 7.4182C67.6813 8.89671 68 10.4765 68 12.1575C68 13.8386 67.6813 15.417 67.0439 16.8928C66.4065 18.3685 65.5398 19.6544 64.4437 20.7505C63.3476 21.8466 62.0604 22.7133 60.582 23.3507C59.1036 23.9881 57.5239 24.3068 55.843 24.3068C54.9462 24.3068 54.0692 24.2149 53.2122 24.031C52.3552 23.8471 51.5172 23.5664 50.6981 23.1891L44.7649 24.9311C44.2464 25.089 43.7946 24.9755 43.4096 24.5904C43.0245 24.2054 42.911 23.7536 43.0689 23.2351L44.8109 17.3019ZM46.387 21.613L50.043 20.5239C50.321 20.4397 50.6135 20.4111 50.9204 20.438C51.2274 20.465 51.5092 20.5375 51.766 20.6553C52.3981 20.9696 53.0582 21.205 53.7463 21.3614C54.4344 21.5179 55.1323 21.5962 55.8401 21.5962C58.4745 21.5962 60.708 20.6811 62.5406 18.8509C64.3731 17.0208 65.2894 14.7895 65.2894 12.157C65.2894 9.52449 64.3731 7.29198 62.5406 5.45944C60.708 3.62689 58.4755 2.71061 55.843 2.71061C53.2105 2.71061 50.9792 3.62689 49.1491 5.45944C47.3189 7.29198 46.4038 9.52563 46.4038 12.1604C46.4038 12.8682 46.4821 13.5637 46.6386 14.2469C46.795 14.9301 47.0298 15.587 47.3427 16.2177C47.4865 16.4854 47.5657 16.7691 47.5804 17.0689C47.5951 17.3687 47.5603 17.6648 47.4761 17.957L46.387 21.613Z" fill="#101010"/>
<path d="M458.337 22.0869L452.735 24.7373C451.846 25.1545 451.001 25.0748 450.201 24.498C449.4 23.9213 449 23.1053 449 22.0501V2.94492C449 2.13507 449.261 1.44178 449.784 0.86507C450.306 0.288357 450.934 0 451.668 0H465.007C465.741 0 466.369 0.288357 466.891 0.86507C467.414 1.44178 467.675 2.13507 467.675 2.94492V22.0501C467.675 23.1053 467.275 23.9213 466.474 24.498C465.674 25.0748 464.829 25.1545 463.94 24.7373L458.337 22.0869ZM458.337 18.8475L465.007 22.0133V2.94492H451.668V22.0133L458.337 18.8475Z" fill="#101010"/>
<rect x="209" y="9" width="8" height="8" rx="4" fill="#0C4FAD"/>
<rect x="223" y="9" width="8" height="8" rx="4" fill="#D5D5D5"/>
<rect x="237" y="9" width="8" height="8" rx="4" fill="#D5D5D5"/>
<rect x="251" y="9" width="8" height="8" rx="4" fill="#D5D5D5"/>
</svg>
