<?xml version="1.0" encoding="UTF-8"?>
<svg xmlns="http://www.w3.org/2000/svg" viewBox="0 0 240 240">
  <g id="a" data-name="Слой 1">
    <g>
      <line y1="210" x2="240" y2="210" fill="none" stroke="#708090" stroke-miterlimit="10"/>
      <line y1="180" x2="240" y2="180" fill="none" stroke="#708090" stroke-miterlimit="10"/>
      <line y1="150" x2="240" y2="150" fill="none" stroke="#708090" stroke-miterlimit="10" stroke-width="3"/>
      <line y1="120" x2="240" y2="120" fill="none" stroke="#708090" stroke-miterlimit="10" stroke-width="3"/>
      <line y1="90" x2="240" y2="90" fill="none" stroke="#708090" stroke-miterlimit="10"/>
      <line y1="60" x2="240" y2="60" fill="none" stroke="#708090" stroke-miterlimit="10"/>
      <line y1="30" x2="240" y2="30" fill="none" stroke="#708090" stroke-miterlimit="10"/>
      <line x1="210" y1="0" x2="210" y2="240" fill="none" stroke="#708090" stroke-miterlimit="10"/>
      <line x1="180" y1="0" x2="180" y2="240" fill="none" stroke="#708090" stroke-miterlimit="10"/>
      <line x1="150" y1="0" x2="150" y2="240" fill="none" stroke="#708090" stroke-miterlimit="10" stroke-width="3"/>
      <line x1="120" y1="0" x2="120" y2="240" fill="none" stroke="#708090" stroke-miterlimit="10" stroke-width="3"/>
      <line x1="90" y1="0" x2="90" y2="240" fill="none" stroke="#708090" stroke-miterlimit="10" stroke-width="3"/>
      <line x1="60" y1="0" x2="60" y2="240" fill="none" stroke="#708090" stroke-miterlimit="10"/>
      <line x1="30" y1="0" x2="30" y2="240" fill="none" stroke="#708090" stroke-miterlimit="10"/>
    </g>
  </g>
  <g id="c" data-name="Слой 2">
    <polygon points="60 90 90 120 120 90 120 30 90 60 90 90 60 90" fill="#fff"/>
    <polygon points="180 150 150 120 120 150 120 210 150 180 150 150 180 150" fill="#fff"/>
  </g>
</svg>
