<?xml version="1.0" encoding="UTF-8"?>
<svg id="a" data-name="Слой 1" xmlns="http://www.w3.org/2000/svg" viewBox="0 0 240 240">
  <g>
    <line y1="225" x2="240" y2="225" fill="none" stroke="#708090" stroke-miterlimit="10"/>
    <line y1="210" x2="240" y2="210" fill="none" stroke="#708090" stroke-miterlimit="10"/>
    <line y1="195" x2="240" y2="195" fill="none" stroke="#708090" stroke-miterlimit="10"/>
    <line y1="180" x2="240" y2="180" fill="none" stroke="#708090" stroke-miterlimit="10"/>
    <line y1="165" x2="240" y2="165" fill="none" stroke="#708090" stroke-miterlimit="10" stroke-width="3"/>
    <line y1="150" x2="240" y2="150" fill="none" stroke="#708090" stroke-miterlimit="10"/>
    <line y1="135" x2="240" y2="135" fill="none" stroke="#708090" stroke-miterlimit="10"/>
    <line y1="120" x2="240" y2="120" fill="none" stroke="#708090" stroke-miterlimit="10" stroke-width="3"/>
    <line y1="105" x2="240" y2="105" fill="none" stroke="#708090" stroke-miterlimit="10"/>
    <line y1="90" x2="240" y2="90" fill="none" stroke="#708090" stroke-miterlimit="10"/>
    <line y1="75" x2="240" y2="75" fill="none" stroke="#708090" stroke-miterlimit="10" stroke-width="3"/>
    <line y1="60" x2="240" y2="60" fill="none" stroke="#708090" stroke-miterlimit="10"/>
    <line y1="45" x2="240" y2="45" fill="none" stroke="#708090" stroke-miterlimit="10"/>
    <line y1="30" x2="240" y2="30" fill="none" stroke="#708090" stroke-miterlimit="10"/>
    <line y1="15" x2="240" y2="15" fill="none" stroke="#708090" stroke-miterlimit="10"/>
    <line x1="225" x2="225" y2="240" fill="none" stroke="#708090" stroke-miterlimit="10"/>
    <line x1="210" x2="210" y2="240" fill="none" stroke="#708090" stroke-miterlimit="10"/>
    <line x1="195" x2="195" y2="240" fill="none" stroke="#708090" stroke-miterlimit="10"/>
    <line x1="180" x2="180" y2="240" fill="none" stroke="#708090" stroke-miterlimit="10"/>
    <line x1="165" x2="165" y2="240" fill="none" stroke="#708090" stroke-miterlimit="10"/>
    <line x1="150" x2="150" y2="240" fill="none" stroke="#708090" stroke-miterlimit="10" stroke-width="3"/>
    <line x1="135" x2="135" y2="240" fill="none" stroke="#708090" stroke-miterlimit="10"/>
    <line x1="120" x2="120" y2="240" fill="none" stroke="#708090" stroke-miterlimit="10" stroke-width="3"/>
    <line x1="105" x2="105" y2="240" fill="none" stroke="#708090" stroke-miterlimit="10"/>
    <polyline points="90 0 90 120 90 240" fill="none" stroke="#708090" stroke-miterlimit="10" stroke-width="3"/>
    <line x1="75" x2="75" y2="240" fill="none" stroke="#708090" stroke-miterlimit="10"/>
    <line x1="60" x2="60" y2="240" fill="none" stroke="#708090" stroke-miterlimit="10"/>
    <line x1="45" x2="45" y2="240" fill="none" stroke="#708090" stroke-miterlimit="10"/>
    <line x1="30" x2="30" y2="240" fill="none" stroke="#708090" stroke-miterlimit="10"/>
    <line x1="15" x2="15" y2="240" fill="none" stroke="#708090" stroke-miterlimit="10"/>
  </g>
  <polygon points="45 75 90 120 120 90 120 15 90 45 90 75 45 75" fill="#fff"/>
  <polygon points="150 120 120 150 120 225 150 195 150 165 195 165 150 120" fill="#fff"/>
</svg>
