<?xml version="1.0" encoding="UTF-8"?>
<svg id="a" data-name="Слой 1" xmlns="http://www.w3.org/2000/svg" viewBox="0 0 256 240">
  <g>
    <line y1="224" x2="256" y2="224" fill="none" stroke="#708090" stroke-miterlimit="10"/>
    <line y1="208" x2="256" y2="208" fill="none" stroke="#708090" stroke-miterlimit="10"/>
    <line y1="192" x2="256" y2="192" fill="none" stroke="#708090" stroke-miterlimit="10"/>
    <line y1="176" x2="256" y2="176" fill="none" stroke="#708090" stroke-miterlimit="10"/>
    <line y1="160" x2="256" y2="160" fill="none" stroke="#708090" stroke-miterlimit="10" stroke-width="3"/>
    <line y1="144" x2="256" y2="144" fill="none" stroke="#708090" stroke-miterlimit="10"/>
    <line y1="128" x2="256" y2="128" fill="none" stroke="#708090" stroke-miterlimit="10"/>
    <line y1="112" x2="256" y2="112" fill="none" stroke="#708090" stroke-miterlimit="10"/>
    <line y1="96" x2="256" y2="96" fill="none" stroke="#708090" stroke-miterlimit="10"/>
    <line y1="80" x2="256" y2="80" fill="none" stroke="#708090" stroke-miterlimit="10" stroke-width="3"/>
    <line y1="64" x2="256" y2="64" fill="none" stroke="#708090" stroke-miterlimit="10"/>
    <line y1="48" x2="256" y2="48" fill="none" stroke="#708090" stroke-miterlimit="10"/>
    <line y1="32" x2="256" y2="32" fill="none" stroke="#708090" stroke-miterlimit="10"/>
    <line y1="16" x2="256" y2="16" fill="none" stroke="#708090" stroke-miterlimit="10"/>
    <line x1="240" x2="240" y2="240" fill="none" stroke="#708090" stroke-miterlimit="10"/>
    <line x1="224" x2="224" y2="240" fill="none" stroke="#708090" stroke-miterlimit="10"/>
    <line x1="208" x2="208" y2="240" fill="none" stroke="#708090" stroke-miterlimit="10"/>
    <line x1="192" x2="192" y2="240" fill="none" stroke="#708090" stroke-miterlimit="10"/>
    <line x1="176" x2="176" y2="240" fill="none" stroke="#708090" stroke-miterlimit="10"/>
    <line x1="160" x2="160" y2="240" fill="none" stroke="#708090" stroke-miterlimit="10" stroke-width="3"/>
    <line x1="144" x2="144" y2="240" fill="none" stroke="#708090" stroke-miterlimit="10"/>
    <line x1="128" x2="128" y2="240" fill="none" stroke="#708090" stroke-miterlimit="10" stroke-width="3"/>
    <line x1="112" x2="112" y2="240" fill="none" stroke="#708090" stroke-miterlimit="10"/>
    <polyline points="96 0 96 128 96 240" fill="none" stroke="#708090" stroke-miterlimit="10" stroke-width="3"/>
    <line x1="80" x2="80" y2="240" fill="none" stroke="#708090" stroke-miterlimit="10"/>
    <line x1="64" x2="64" y2="240" fill="none" stroke="#708090" stroke-miterlimit="10"/>
    <line x1="48" x2="48" y2="240" fill="none" stroke="#708090" stroke-miterlimit="10"/>
    <line x1="32" x2="32" y2="240" fill="none" stroke="#708090" stroke-miterlimit="10"/>
    <line x1="16" x2="16" y2="240" fill="none" stroke="#708090" stroke-miterlimit="10"/>
  </g>
  <polygon points="48 80 96 128 128 96 128 16 96 48 96 80 48 80" fill="#fff"/>
  <polygon points="160 112 128 144 128 224 160 192 160 160 208 160 160 112" fill="#fff"/>
</svg>
