<?xml version="1.0" encoding="UTF-8"?>
<svg id="a" data-name="Слой 1" xmlns="http://www.w3.org/2000/svg" viewBox="0 0 240 240">
  <g>
    <line y1="200.92" x2="240" y2="200.92" fill="none" stroke="#708090" stroke-miterlimit="10"/>
    <line y1="173.95" x2="240" y2="173.95" fill="none" stroke="#708090" stroke-miterlimit="10" stroke-width="3"/>
    <line y1="146.97" x2="240" y2="146.97" fill="none" stroke="#708090" stroke-miterlimit="10"/>
    <line y1="120" x2="240" y2="120" fill="none" stroke="#708090" stroke-miterlimit="10" stroke-width="3"/>
    <line y1="93.03" x2="240" y2="93.03" fill="none" stroke="#708090" stroke-miterlimit="10"/>
    <line y1="66.05" x2="240" y2="66.05" fill="none" stroke="#708090" stroke-miterlimit="10" stroke-width="3"/>
    <line y1="39.08" x2="240" y2="39.08" fill="none" stroke="#708090" stroke-miterlimit="10"/>
    <line x1="200.92" x2="200.92" y2="240" fill="none" stroke="#708090" stroke-miterlimit="10"/>
    <line x1="173.95" x2="173.95" y2="240" fill="none" stroke="#708090" stroke-miterlimit="10"/>
    <line x1="146.97" x2="146.97" y2="240" fill="none" stroke="#708090" stroke-miterlimit="10" stroke-width="3"/>
    <line x1="120" x2="120" y2="240" fill="none" stroke="#708090" stroke-miterlimit="10"/>
    <line x1="93.03" x2="93.03" y2="240" fill="none" stroke="#708090" stroke-miterlimit="10" stroke-width="3"/>
    <line x1="66.05" x2="66.05" y2="240" fill="none" stroke="#708090" stroke-miterlimit="10"/>
    <line x1="39.08" x2="39.08" y2="240" fill="none" stroke="#708090" stroke-miterlimit="10"/>
  </g>
  <polygon points="120 93.13 93.03 120.11 39.08 66.16 93.03 66.16 93.03 39.08 120 11.99 120 93.13" fill="#fff"/>
  <polygon points="120 146.87 146.97 119.89 200.92 173.84 146.97 173.84 146.97 200.92 120 228.01 120 146.87" fill="#fff"/>
</svg>
