<svg width="378" height="39" viewBox="0 0 378 39" fill="none" xmlns="http://www.w3.org/2000/svg">
<path d="M320.297 6.58203L310.883 32.5H307.035L317.875 4.0625H320.355L320.297 6.58203ZM328.188 32.5L318.754 6.58203L318.695 4.0625H321.176L332.055 32.5H328.188ZM327.699 21.9727V25.0586H311.723V21.9727H327.699Z" fill="#708090"/>
<path d="M297.973 4.0625V32.5H294.262V4.0625H297.973ZM307.113 4.0625V7.14844H285.141V4.0625H307.113Z" fill="#708090"/>
<path d="M274.438 6.58203L265.023 32.5H261.176L272.016 4.0625H274.496L274.438 6.58203ZM282.328 32.5L272.895 6.58203L272.836 4.0625H275.316L286.195 32.5H282.328ZM281.84 21.9727V25.0586H265.863V21.9727H281.84Z" fill="#708090"/>
<path d="M245.785 32.5H239.848L239.887 29.4336H245.785C247.816 29.4336 249.509 29.0104 250.863 28.1641C252.217 27.3047 253.233 26.1068 253.91 24.5703C254.6 23.0208 254.945 21.2109 254.945 19.1406V17.4023C254.945 15.7747 254.75 14.3294 254.359 13.0664C253.969 11.7904 253.396 10.7161 252.641 9.84375C251.885 8.95833 250.961 8.28776 249.867 7.83203C248.786 7.3763 247.543 7.14844 246.137 7.14844H239.73V4.0625H246.137C247.999 4.0625 249.698 4.375 251.234 5C252.771 5.61198 254.092 6.50391 255.199 7.67578C256.319 8.83464 257.178 10.2409 257.777 11.8945C258.376 13.5352 258.676 15.3841 258.676 17.4414V19.1406C258.676 21.1979 258.376 23.0534 257.777 24.707C257.178 26.3477 256.312 27.7474 255.18 28.9062C254.06 30.0651 252.706 30.957 251.117 31.582C249.542 32.194 247.764 32.5 245.785 32.5ZM241.859 4.0625V32.5H238.09V4.0625H241.859Z" fill="#708090"/>
<path d="M194.438 4.0625H198.09L207.406 27.2461L216.703 4.0625H220.375L208.812 32.5H205.961L194.438 4.0625ZM193.246 4.0625H196.469L196.996 21.4062V32.5H193.246V4.0625ZM218.324 4.0625H221.547V32.5H217.797V21.4062L218.324 4.0625Z" fill="#708090"/>
<path d="M183.578 4.0625H187.328V23.3008C187.328 25.4362 186.853 27.2135 185.902 28.6328C184.952 30.0521 183.689 31.1198 182.113 31.8359C180.551 32.5391 178.852 32.8906 177.016 32.8906C175.089 32.8906 173.344 32.5391 171.781 31.8359C170.232 31.1198 169.001 30.0521 168.09 28.6328C167.191 27.2135 166.742 25.4362 166.742 23.3008V4.0625H170.473V23.3008C170.473 24.7852 170.746 26.0091 171.293 26.9727C171.84 27.9362 172.602 28.6523 173.578 29.1211C174.568 29.5898 175.714 29.8242 177.016 29.8242C178.331 29.8242 179.477 29.5898 180.453 29.1211C181.443 28.6523 182.211 27.9362 182.758 26.9727C183.305 26.0091 183.578 24.7852 183.578 23.3008V4.0625Z" fill="#708090"/>
<path d="M153.949 4.0625V32.5H150.238V4.0625H153.949ZM163.09 4.0625V7.14844H141.117V4.0625H163.09Z" fill="#708090"/>
<path d="M130.414 6.58203L121 32.5H117.152L127.992 4.0625H130.473L130.414 6.58203ZM138.305 32.5L128.871 6.58203L128.812 4.0625H131.293L142.172 32.5H138.305ZM137.816 21.9727V25.0586H121.84V21.9727H137.816Z" fill="#708090"/>
<path d="M95.2383 4.0625H104.652C106.788 4.0625 108.591 4.38802 110.062 5.03906C111.547 5.6901 112.673 6.65365 113.441 7.92969C114.223 9.19271 114.613 10.7487 114.613 12.5977C114.613 13.8997 114.346 15.0911 113.812 16.1719C113.292 17.2396 112.536 18.151 111.547 18.9062C110.57 19.6484 109.398 20.2018 108.031 20.5664L106.977 20.9766H98.1289L98.0898 17.9102H104.77C106.124 17.9102 107.25 17.6758 108.148 17.207C109.047 16.7253 109.724 16.0807 110.18 15.2734C110.635 14.4661 110.863 13.5742 110.863 12.5977C110.863 11.5039 110.648 10.5469 110.219 9.72656C109.789 8.90625 109.112 8.27474 108.188 7.83203C107.276 7.3763 106.098 7.14844 104.652 7.14844H99.0078V32.5H95.2383V4.0625ZM111.859 32.5L104.945 19.6094L108.871 19.5898L115.883 32.2656V32.5H111.859Z" fill="#708090"/>
<path d="M81.8789 4.0625V32.5H78.168V4.0625H81.8789ZM91.0195 4.0625V7.14844H69.0469V4.0625H91.0195Z" fill="#708090"/>
<path d="M62.7773 25.3125C62.7773 24.6484 62.6732 24.0625 62.4648 23.5547C62.2695 23.0339 61.918 22.5651 61.4102 22.1484C60.9154 21.7318 60.2253 21.3346 59.3398 20.957C58.4674 20.5794 57.3607 20.1953 56.0195 19.8047C54.6133 19.388 53.3438 18.9258 52.2109 18.418C51.0781 17.8971 50.1081 17.3047 49.3008 16.6406C48.4935 15.9766 47.875 15.2148 47.4453 14.3555C47.0156 13.4961 46.8008 12.513 46.8008 11.4062C46.8008 10.2995 47.0286 9.27734 47.4844 8.33984C47.9401 7.40234 48.5911 6.58854 49.4375 5.89844C50.2969 5.19531 51.319 4.64844 52.5039 4.25781C53.6888 3.86719 55.0104 3.67188 56.4688 3.67188C58.6042 3.67188 60.4141 4.08203 61.8984 4.90234C63.3958 5.70964 64.5352 6.77083 65.3164 8.08594C66.0977 9.38802 66.4883 10.7812 66.4883 12.2656H62.7383C62.7383 11.1979 62.5104 10.2539 62.0547 9.43359C61.599 8.60026 60.9089 7.94922 59.9844 7.48047C59.0599 6.9987 57.888 6.75781 56.4688 6.75781C55.1276 6.75781 54.0208 6.95964 53.1484 7.36328C52.276 7.76693 51.625 8.3138 51.1953 9.00391C50.7786 9.69401 50.5703 10.4818 50.5703 11.3672C50.5703 11.9661 50.694 12.513 50.9414 13.0078C51.2018 13.4896 51.599 13.9388 52.1328 14.3555C52.6797 14.7721 53.3698 15.1562 54.2031 15.5078C55.0495 15.8594 56.0586 16.1979 57.2305 16.5234C58.8451 16.9792 60.2383 17.487 61.4102 18.0469C62.582 18.6068 63.5456 19.2383 64.3008 19.9414C65.069 20.6315 65.6354 21.4193 66 22.3047C66.3776 23.1771 66.5664 24.1667 66.5664 25.2734C66.5664 26.4323 66.332 27.4805 65.8633 28.418C65.3945 29.3555 64.724 30.1562 63.8516 30.8203C62.9792 31.4844 61.931 31.9987 60.707 32.3633C59.4961 32.7148 58.1419 32.8906 56.6445 32.8906C55.3294 32.8906 54.0339 32.7083 52.7578 32.3438C51.4948 31.9792 50.3424 31.4323 49.3008 30.7031C48.2721 29.974 47.4453 29.0755 46.8203 28.0078C46.2083 26.9271 45.9023 25.6771 45.9023 24.2578H49.6523C49.6523 25.2344 49.8411 26.0742 50.2188 26.7773C50.5964 27.4674 51.1107 28.0404 51.7617 28.4961C52.4258 28.9518 53.1745 29.2904 54.0078 29.5117C54.8542 29.7201 55.7331 29.8242 56.6445 29.8242C57.9596 29.8242 59.0729 29.6419 59.9844 29.2773C60.8958 28.9128 61.5859 28.3919 62.0547 27.7148C62.5365 27.0378 62.7773 26.237 62.7773 25.3125Z" fill="#708090"/>
<path d="M7.34375 0V2.96875H3.61328V35.625H7.34375V38.5938H0V0H7.34375Z" fill="#708090"/>
<path d="M370.324 2.96875V0H377.707V38.5938H370.324V35.625H374.074V2.96875H370.324Z" fill="#708090"/>
</svg>
