<svg width="383" height="180" viewBox="0 0 383 180" fill="none" xmlns="http://www.w3.org/2000/svg">
<path d="M322.145 165V15H345.145V165H335.145V96H332.145V165H322.145ZM335.145 27H332.145V84H335.145V27Z" fill="#708090"/>
<path d="M299.098 27V15H319.098V27H314.098V165H304.098V27H299.098Z" fill="#708090"/>
<path d="M273.121 165V15H296.121V165H286.121V96H283.121V165H273.121ZM286.121 27H283.121V84H286.121V27Z" fill="#708090"/>
<path d="M247.145 165V15H267.145C267.245 15 268.245 16 270.145 18V162C270.145 162.1 269.145 163.1 267.145 165H247.145ZM260.145 27H257.145V153H260.145V27Z" fill="#708090"/>
<path d="M185.035 165V15H221.035V165H211.035V27H208.035V165H198.035V27H195.035V165H185.035Z" fill="#708090"/>
<path d="M159.059 165V15H169.059V153H172.059V15H182.059V165H159.059Z" fill="#708090"/>
<path d="M136.012 27V15H156.012V27H151.012V165H141.012V27H136.012Z" fill="#708090"/>
<path d="M110.035 165V15H133.035V165H123.035V96H120.035V165H110.035ZM123.035 27H120.035V84H123.035V27Z" fill="#708090"/>
<path d="M84.0586 165V15H107.059V87L104.159 90L107.059 93V165H97.0586V96H94.0586V165H84.0586ZM97.0586 27H94.0586V84H97.0586V27Z" fill="#708090"/>
<path d="M61.0117 27V15H81.0117V27H76.0117V165H66.0117V27H61.0117Z" fill="#708090"/>
<path d="M37.9648 96V15H57.9648V27H47.9648V84H57.9648V165H37.9648V153H47.9648V96H37.9648Z" fill="#708090"/>
<path d="M0 180V0H20V12H10V168H20V180H0Z" fill="#708090"/>
<path d="M363 12V0H383V180H363V168H373V12H363Z" fill="#708090"/>
</svg>
