<?xml version="1.0" encoding="UTF-8"?>
<svg id="a" data-name="Слой 1" xmlns="http://www.w3.org/2000/svg" viewBox="0 0 60 60">
  <polygon points="32.26 0 30 29.43 27.74 0 32.26 0"/>
  <polygon points="32.26 60 30 30.57 27.74 60 32.26 60"/>
  <polygon points="25.99 .18 29.88 29.45 21.57 1.13 25.99 .18"/>
  <polygon points="38.43 58.87 30.12 30.55 34.01 59.82 38.43 58.87"/>
  <polygon points="19.89 1.67 29.77 29.48 15.76 3.51 19.89 1.67"/>
  <polygon points="44.24 56.49 30.23 30.52 40.11 58.33 44.24 56.49"/>
  <polygon points="14.24 4.4 29.67 29.54 10.58 7.06 14.24 4.4"/>
  <polygon points="49.42 52.94 30.33 30.46 45.76 55.6 49.42 52.94"/>
  <polygon points="9.27 8.24 29.58 29.62 6.25 11.61 9.27 8.24"/>
  <polygon points="53.75 48.39 30.42 30.38 50.73 51.76 53.75 48.39"/>
  <polygon points="5.21 13.04 29.51 29.72 2.95 16.96 5.21 13.04"/>
  <polygon points="57.05 43.04 30.49 30.28 54.79 46.96 57.05 43.04"/>
  <polygon points="2.23 18.58 29.46 29.83 .84 22.88 2.23 18.58"/>
  <polygon points="59.16 37.12 30.54 30.17 57.77 41.42 59.16 37.12"/>
  <polygon points=".47 24.61 29.44 29.94 0 29.12 .47 24.61"/>
  <polygon points="60 30.88 30.56 30.06 59.53 35.39 60 30.88"/>
  <polygon points="0 30.88 29.44 30.06 .47 35.39 0 30.88"/>
  <polygon points="59.53 24.61 30.56 29.94 60 29.12 59.53 24.61"/>
  <polygon points=".84 37.12 29.46 30.17 2.23 41.42 .84 37.12"/>
  <polygon points="57.77 18.58 30.54 29.83 59.16 22.88 57.77 18.58"/>
  <polygon points="2.95 43.04 29.51 30.28 5.21 46.96 2.95 43.04"/>
  <polygon points="54.79 13.04 30.49 29.72 57.05 16.96 54.79 13.04"/>
  <polygon points="6.25 48.39 29.58 30.38 9.27 51.76 6.25 48.39"/>
  <polygon points="50.73 8.24 30.42 29.62 53.75 11.61 50.73 8.24"/>
  <polygon points="10.58 52.94 29.67 30.46 14.24 55.6 10.58 52.94"/>
  <polygon points="45.76 4.4 30.33 29.54 49.42 7.06 45.76 4.4"/>
  <polygon points="15.76 56.49 29.77 30.52 19.89 58.33 15.76 56.49"/>
  <polygon points="40.11 1.67 30.23 29.48 44.24 3.51 40.11 1.67"/>
  <polygon points="21.57 58.87 29.88 30.55 25.99 59.82 21.57 58.87"/>
  <polygon points="34.01 .18 30.12 29.45 38.43 1.13 34.01 .18"/>
</svg>
