<?xml version="1.0" encoding="UTF-8"?>
<svg id="a" data-name="Слой 1" xmlns="http://www.w3.org/2000/svg" viewBox="0 0 60 60">
  <path d="M30,9.5c11.3,0,20.5,9.2,20.5,20.5s-9.2,20.5-20.5,20.5-20.5-9.2-20.5-20.5S18.7,9.5,30,9.5M30,7.5c-12.43,0-22.5,10.07-22.5,22.5s10.07,22.5,22.5,22.5,22.5-10.07,22.5-22.5S42.43,7.5,30,7.5h0Z"/>
  <g>
    <path d="M29,29v-11.45c-6.1.48-10.96,5.35-11.45,11.45h11.45Z"/>
    <path d="M31,29h11.45c-.48-6.1-5.35-10.96-11.45-11.45v11.45Z"/>
    <path d="M29,31h-11.45c.48,6.1,5.35,10.96,11.45,11.45v-11.45Z"/>
    <path d="M31,31v11.45c6.1-.48,10.96-5.35,11.45-11.45h-11.45Z"/>
  </g>
  <path d="M60,31h-29v29h-2v-29H0v-2h29V0h2v29h29v2ZM30,17.5c-6.9,0-12.5,5.6-12.5,12.5s5.6,12.5,12.5,12.5,12.5-5.6,12.5-12.5-5.6-12.5-12.5-12.5Z"/>
</svg>
