<?xml version="1.0" encoding="UTF-8"?>
<svg id="a" data-name="Слой 1" xmlns="http://www.w3.org/2000/svg" viewBox="0 0 50 50">
  <polygon points="26.06 25 43.61 24.47 50 24.28 50 21.77 43.47 22.61 26.04 24.83 43.3 21.57 50 20.3 50 17.66 42.86 19.75 26.01 24.67 42.54 18.75 50 16.07 50 13.15 41.82 17.02 25.94 24.52 41.35 16.08 50 11.34 50 7.92 40.37 14.48 25.85 24.38 39.75 13.63 50 5.7 50 1.41 38.53 12.21 25.75 24.25 37.79 11.46 48.58 0 44.29 0 36.36 10.25 25.62 24.14 35.51 9.63 42.08 0 38.66 0 33.92 8.65 25.48 24.06 32.98 8.17 36.84 0 33.93 0 31.25 7.46 25.33 23.99 30.25 7.13 32.33 0 29.7 0 28.43 6.7 25.17 23.95 27.39 6.53 28.22 0 25.72 0 25.53 6.38 25 23.94 24.47 6.38 24.28 0 21.78 0 22.61 6.53 24.83 23.95 21.57 6.7 20.3 0 17.66 0 19.75 7.13 24.67 23.99 18.75 7.46 16.07 0 13.16 0 17.02 8.17 24.52 24.06 16.08 8.65 11.34 0 7.92 0 14.49 9.63 24.38 24.14 13.63 10.25 5.71 0 1.41 0 12.21 11.47 24.25 24.25 11.47 12.21 0 1.41 0 5.7 10.25 13.63 24.15 24.38 9.63 14.48 0 7.92 0 11.34 8.65 16.08 24.06 24.52 8.17 17.02 0 13.15 0 16.07 7.46 18.75 24 24.67 7.13 19.75 0 17.66 0 20.3 6.7 21.57 23.96 24.83 6.53 22.61 0 21.77 0 24.28 6.39 24.47 23.94 25 6.39 25.53 0 25.72 0 28.22 6.53 27.39 23.96 25.16 6.7 28.43 0 29.7 0 32.33 7.14 30.25 24 25.33 7.46 31.25 0 33.92 0 36.84 8.18 32.98 24.06 25.48 8.65 33.92 0 38.66 0 42.08 9.63 35.51 24.15 25.62 10.25 36.37 0 44.29 0 48.58 11.47 37.79 24.25 25.74 12.21 38.53 1.41 50 5.7 50 13.63 39.74 24.38 25.85 14.48 40.37 7.92 50 11.34 50 16.08 41.34 24.52 25.94 17.02 41.82 13.16 50 16.07 50 18.75 42.54 24.67 26 19.75 42.86 17.67 50 20.3 50 21.57 43.3 24.83 26.04 22.61 43.47 21.77 50 24.28 50 24.47 43.61 25 26.05 25.53 43.61 25.72 50 28.23 50 27.39 43.46 25.17 26.04 28.43 43.3 29.7 50 32.33 50 30.25 42.86 25.33 26 31.25 42.54 33.93 50 36.84 50 32.98 41.82 25.48 25.94 33.92 41.34 38.66 50 42.08 50 35.51 40.37 25.62 25.85 36.36 39.75 44.3 50 48.59 50 37.79 38.53 25.75 25.74 38.53 37.79 50 48.58 50 44.29 39.75 36.36 25.85 25.62 40.37 35.51 50 42.08 50 38.66 41.35 33.92 25.94 25.48 41.82 32.98 50 36.84 50 33.92 42.54 31.25 26.01 25.33 42.87 30.25 50 32.33 50 29.7 43.3 28.43 26.04 25.16 43.47 27.39 50 28.22 50 25.72 43.61 25.53 26.06 25" fill="#231f20"/>
</svg>
