<?xml version="1.0" encoding="UTF-8"?>
<svg id="a" data-name="Слой 1" xmlns="http://www.w3.org/2000/svg" viewBox="0 0 61 62">
  <path d="M33.26,2l-2.26,29.43-2.26-29.43h4.52ZM33.26,62l-2.26-29.43-2.26,29.43h4.52ZM22.57,3.13l8.31,28.32-3.9-29.26-4.42.94ZM39.43,60.87l-8.31-28.32,3.9,29.26,4.42-.94ZM16.76,5.51l14.01,25.97L20.89,3.67l-4.13,1.84ZM45.24,58.49l-14.01-25.97,9.88,27.81,4.13-1.84ZM11.58,9.06l19.09,22.48L15.24,6.4l-3.65,2.66ZM50.42,54.94l-19.09-22.48,15.43,25.14,3.65-2.66ZM7.25,13.61l23.33,18.01L10.27,10.24l-3.02,3.37ZM54.75,50.39l-23.33-18.01,20.31,21.38,3.02-3.37ZM3.95,18.96l26.56,12.76L6.21,15.04l-2.26,3.92ZM58.05,45.04l-26.56-12.76,24.3,16.68,2.26-3.92ZM1.84,24.88l28.62,6.94L3.23,20.58l-1.4,4.31ZM60.16,39.12l-28.62-6.94,27.23,11.25,1.4-4.31ZM1,31.12l29.44.82L1.47,26.61l-.47,4.5ZM61,32.88l-29.44-.82,28.97,5.33.47-4.5ZM1.47,37.39l28.97-5.33-29.44.82.47,4.5ZM60.53,26.61l-28.97,5.33,29.44-.82-.47-4.5ZM3.23,43.42l27.23-11.25L1.84,39.12l1.4,4.31ZM58.77,20.58l-27.23,11.25,28.62-6.94-1.4-4.31ZM6.21,48.96l24.3-16.68L3.95,45.04l2.26,3.92ZM55.79,15.04l-24.3,16.68,26.56-12.76-2.26-3.92ZM10.27,53.76l20.31-21.38L7.25,50.39l3.02,3.37ZM51.73,10.24l-20.31,21.38,23.33-18.01-3.02-3.37ZM15.24,57.6l15.43-25.14-19.09,22.48,3.65,2.66ZM46.76,6.4l-15.43,25.14,19.09-22.48-3.65-2.66ZM20.89,60.33l9.88-27.81-14.01,25.97,4.13,1.84ZM41.11,3.67l-9.88,27.81,14.01-25.97-4.13-1.84ZM26.99,61.82l3.9-29.26-8.31,28.32,4.42.94ZM35.01,2.18l-3.9,29.26L39.43,3.13l-4.42-.94Z" fill="#e2a52e"/>
  <path d="M32.26,0l-2.26,29.43L27.74,0h4.52ZM32.26,60l-2.26-29.43-2.26,29.43h4.52ZM21.57,1.13l8.31,28.32L25.99.18l-4.42.94ZM38.43,58.87l-8.31-28.32,3.9,29.26,4.42-.94ZM15.76,3.51l14.01,25.97L19.89,1.67l-4.13,1.84ZM44.24,56.49l-14.01-25.97,9.88,27.81,4.13-1.84ZM10.58,7.06l19.09,22.48L14.24,4.4l-3.65,2.66ZM49.42,52.94l-19.09-22.48,15.43,25.14,3.65-2.66ZM6.25,11.61l23.33,18.01L9.27,8.24l-3.02,3.37ZM53.75,48.39l-23.33-18.01,20.31,21.38,3.02-3.37ZM2.95,16.96l26.56,12.76L5.21,13.04l-2.26,3.92ZM57.05,43.04l-26.56-12.76,24.3,16.68,2.26-3.92ZM.84,22.88l28.62,6.94L2.23,18.58l-1.4,4.31ZM59.16,37.12l-28.62-6.94,27.23,11.25,1.4-4.31ZM0,29.12l29.44.82L.47,24.61l-.47,4.5ZM60,30.88l-29.44-.82,28.97,5.33.47-4.5ZM.47,35.39l28.97-5.33-29.44.82.47,4.5ZM59.53,24.61l-28.97,5.33,29.44-.82-.47-4.5ZM2.23,41.42l27.23-11.25L.84,37.12l1.4,4.31ZM57.77,18.58l-27.23,11.25,28.62-6.94-1.4-4.31ZM5.21,46.96l24.3-16.68L2.95,43.04l2.26,3.92ZM54.79,13.04l-24.3,16.68,26.56-12.76-2.26-3.92ZM9.27,51.76l20.31-21.38L6.25,48.39l3.02,3.37ZM50.73,8.24l-20.31,21.38,23.33-18.01-3.02-3.37ZM14.24,55.6l15.43-25.14-19.09,22.48,3.65,2.66ZM45.76,4.4l-15.43,25.14L49.42,7.06l-3.65-2.66ZM19.89,58.33l9.88-27.81-14.01,25.97,4.13,1.84ZM40.11,1.67l-9.88,27.81L44.24,3.51l-4.13-1.84ZM25.99,59.82l3.9-29.26-8.31,28.32,4.42.94ZM34.01.18l-3.9,29.26L38.43,1.13l-4.42-.94Z" fill="#0a335c"/>
  <g>
    <polygon points="31.66 27.38 31.56 28.09 32.39 27.12 32.91 25.34 31.66 27.38"/>
    <polygon points="32.77 27.15 32.45 28.06 33.53 27.22 34.62 25.2 32.77 27.15"/>
    <polygon points="33.88 27.39 33.27 28.38 34.53 27.78 36.22 25.78 33.88 27.39"/>
    <polygon points="35.36 29.06 34.23 29.84 35.47 29.8 38.06 28.56 35.36 29.06"/>
    <polygon points="34.8 28.06 33.9 29.01 35.22 28.69 37.44 26.97 34.8 28.06"/>
    <polygon points="1 32.88 1.25 35.24 16.43 32.45 1 32.88"/>
    <polygon points="25.47 34.7 21.52 36.6 6.25 48.39 6.55 48.73 22.64 37.69 25.47 34.7"/>
    <polygon points="33.06 26.33 35.66 23.26 45.24 5.51 45.11 5.46 34.1 23.4 33.06 26.33"/>
    <polygon points="26.61 35.45 23.2 38.08 10.58 52.94 10.86 53.14 24.67 38.6 26.61 35.45"/>
    <polygon points="27.94 35.67 25.34 38.74 15.76 56.49 15.89 56.54 26.9 38.6 27.94 35.67"/>
    <polygon points="34.39 26.55 37.8 23.92 50.42 9.06 50.14 8.86 36.33 23.4 34.39 26.55"/>
    <polygon points="60 29.12 59.75 26.76 44.57 29.55 60 29.12"/>
    <polygon points="35.53 27.3 39.48 25.4 54.75 13.61 54.45 13.27 38.36 24.31 35.53 27.3"/>
    <polygon points="40.54 28.1 36.5 29.77 40.45 29.66 59.57 25.03 59.53 24.61 40.54 28.1"/>
    <polygon points="28.85 28.57 15.24 6.4 12.01 8.75 28.85 28.57"/>
    <polygon points="28.15 29.06 27.38 28.26 16.92 21.07 25.81 27.94 28.15 29.06"/>
    <polygon points="26.2 27.01 10.27 10.24 7.9 12.88 26.2 27.01"/>
    <polygon points="16.83 5.49 29.77 29.48 20.64 3.78 16.83 5.49"/>
    <polygon points="22.57 3.13 29.54 26.87 26.27 2.34 22.57 3.13"/>
    <polygon points="17.79 29.61 1.47 26.61 1.21 29.15 17.79 29.61"/>
    <polygon points="21.81 29.73 25.64 29.83 23.06 28.77 1.84 24.86 1.84 24.88 21.81 29.73"/>
    <polygon points="20.46 33.9 24.5 32.23 20.55 32.34 1.43 36.97 1.47 37.39 20.46 33.9"/>
    <polygon points="20.69 31.67 24.82 30.91 21.43 30.28 1.03 30.86 1 31.12 20.69 31.67"/>
    <polygon points="20.16 27.57 3.23 20.58 2.37 23.25 20.16 27.57"/>
    <polygon points="26.82 29.18 25.17 28.05 8.79 21.28 23.62 28.41 26.82 29.18"/>
    <polygon points="23.13 26.65 6.21 15.04 4.64 17.77 23.13 26.65"/>
    <polygon points="39.85 25.98 36.27 28.43 40.42 27.43 57.91 19.03 57.77 18.58 39.85 25.98"/>
    <polygon points="44.68 26.39 59.16 22.88 58.45 20.7 44.68 26.39"/>
    <polygon points="43.53 23.45 56.93 17.02 55.79 15.04 43.53 23.45"/>
    <polygon points="41.3 21.22 53.28 11.97 51.73 10.24 41.3 21.22"/>
    <polygon points="35.48 30.2 34.19 30.73 35.26 30.92 37.96 30.27 35.48 30.2"/>
    <polygon points="28.74 2 30.42 23.92 32.11 2 28.74 2"/>
    <polygon points="30.06 28.65 30.22 26.51 29.16 18.53 29.9 28.09 30.06 28.65"/>
    <polygon points="30.58 25.97 30.7 27.47 31.52 24.67 32.56 11.09 30.58 25.97"/>
    <polygon points="32.07 24.31 31.76 26.65 33.44 23.53 38.66 5.74 32.07 24.31"/>
    <polygon points="35.24 20.19 43.56 4.77 41.11 3.67 35.24 20.19"/>
    <polygon points="38.37 20.07 48.75 7.85 46.76 6.4 38.37 20.07"/>
    <polygon points="28.57 40.45 23.06 59.19 25.99 59.82 28.57 40.45"/>
    <polygon points="16.32 35.61 1.84 39.12 2.55 41.3 16.32 35.61"/>
    <polygon points="37.87 35.35 54.79 46.96 56.36 44.23 37.87 35.35"/>
    <polygon points="34.18 32.82 35.83 33.95 52.21 40.72 37.38 33.59 34.18 32.82"/>
    <polygon points="40.84 34.43 57.77 41.42 58.63 38.75 40.84 34.43"/>
    <polygon points="34.8 34.99 50.73 51.76 53.1 49.12 34.8 34.99"/>
    <polygon points="32.43 21.55 37.94 2.81 35.01 2.18 32.43 21.55"/>
    <polygon points="32.15 33.43 45.76 55.6 48.99 53.25 32.15 33.43"/>
    <polygon points="35.12 31.29 33.81 31.53 34.6 31.86 37.17 31.78 35.12 31.29"/>
    <polygon points="43.21 32.39 59.53 35.39 59.79 32.85 43.21 32.39"/>
    <polygon points="40.31 30.33 36.18 31.09 39.57 31.72 59.97 31.14 60 30.88 40.31 30.33"/>
    <polygon points="39.19 32.27 35.36 32.17 37.94 33.23 59.16 37.14 59.16 37.12 39.19 32.27"/>
    <polygon points="32.85 32.94 33.62 33.74 44.08 40.93 35.19 34.06 32.85 32.94"/>
    <polygon points="44.17 56.51 31.23 32.52 40.36 58.22 44.17 56.51"/>
    <polygon points="25.76 41.81 17.44 57.23 19.89 58.33 25.76 41.81"/>
    <polygon points="19.7 40.78 7.72 50.03 9.27 51.76 19.7 40.78"/>
    <polygon points="21.15 36.02 24.73 33.57 20.58 34.57 3.09 42.97 3.23 43.42 21.15 36.02"/>
    <polygon points="17.47 38.55 4.07 44.98 5.21 46.96 17.47 38.55"/>
    <polygon points="28.93 37.69 29.24 35.35 27.56 38.47 22.34 56.26 28.93 37.69"/>
    <polygon points="22.63 41.93 12.25 54.15 14.24 55.6 22.63 41.93"/>
    <polygon points="30.42 36.03 30.3 34.53 29.48 37.33 28.44 50.91 30.42 36.03"/>
    <polygon points="38.43 58.87 31.46 35.13 34.73 59.66 38.43 58.87"/>
    <polygon points="30.94 33.35 30.78 35.5 31.84 43.47 31.1 33.91 30.94 33.35"/>
    <polygon points="32.26 60 30.58 38.08 28.89 60 32.26 60"/>
    <polygon points="26.65 29.86 27.86 29.9 27.37 29.56 25.18 29.16 26.65 29.86"/>
    <polygon points="30.26 33.95 30.23 33.52 29.7 34.51 29.6 35.82 30.26 33.95"/>
    <polygon points="34.35 32.14 33.14 32.1 33.63 32.44 35.82 32.84 34.35 32.14"/>
    <polygon points="28.23 34.85 28.55 33.94 27.47 34.78 26.38 36.8 28.23 34.85"/>
    <polygon points="25.64 32.94 26.77 32.16 25.53 32.2 22.94 33.44 25.64 32.94"/>
    <polygon points="26.2 33.94 27.1 32.99 25.78 33.31 23.56 35.03 26.2 33.94"/>
    <polygon points="25.52 31.8 26.81 31.27 25.74 31.08 23.04 31.73 25.52 31.8"/>
    <polygon points="29.34 34.62 29.44 33.91 28.61 34.88 28.09 36.66 29.34 34.62"/>
    <polygon points="25.88 30.71 27.19 30.47 26.39 30.14 23.83 30.22 25.88 30.71"/>
    <polygon points="27.12 34.61 27.73 33.62 26.47 34.22 24.78 36.22 27.12 34.61"/>
  </g>
</svg>
