<?xml version="1.0" encoding="UTF-8"?>
<svg id="_Слой_1" data-name="Слой_1" xmlns="http://www.w3.org/2000/svg" version="1.1" viewBox="0 0 64 85">
  <!-- Generator: Adobe Illustrator 29.1.0, SVG Export Plug-In . SVG Version: 2.1.0 Build 142)  -->
  <polygon points="24 15.4 4 27.4 24 39.4 24 15.4" fill="none" stroke="slategray" stroke-miterlimit="10"/>
  <polygon points="40 15.9 60 27.9 40 39.9 40 15.9" fill="none" stroke="slategray" stroke-miterlimit="10"/>
  <path d="M32,.5h0C14.6.5.5,14.8.5,32.5v16h63v-16C63.5,14.8,49.4.5,32,.5Z" fill="none" stroke="slategray" stroke-miterlimit="10"/>
  <path d="M32,48.5h0c17.4,0,31.5,14.1,31.5,31.5v4.5H.5v-4.5c0-17.4,14.1-31.5,31.5-31.5Z" transform="translate(64 133) rotate(-180)" fill="none" stroke="slategray" stroke-miterlimit="10"/>
  <path d="M32,33.4v-12h6v-3c0-3.3-2.7-6-6-6s-6,2.7-6,6v18c0,3.3,2.7,6,6,6s6-2.7,6-6v-3h-6Z" fill="darkslategray"/>
</svg>
